<?xml version="1.0" encoding="utf-8"?>
<!-- Generator: Adobe Illustrator 21.1.0, SVG Export Plug-In . SVG Version: 6.00 Build 0)  -->
<svg version="1.1"
	 id="Layer_1" xmlns:cc="http://creativecommons.org/ns#" xmlns:dc="http://purl.org/dc/elements/1.1/" xmlns:inkscape="http://www.inkscape.org/namespaces/inkscape" xmlns:rdf="http://www.w3.org/1999/02/22-rdf-syntax-ns#" xmlns:sodipodi="http://sodipodi.sourceforge.net/DTD/sodipodi-0.dtd" xmlns:svg="http://www.w3.org/2000/svg"
	 xmlns="http://www.w3.org/2000/svg" xmlns:xlink="http://www.w3.org/1999/xlink" x="0px" y="0px" viewBox="0 0 64 64"
	 style="enable-background:new 0 0 64 64;" xml:space="preserve">
<style type="text/css">
	.st0{fill:#665964;}
	.st1{fill:#BC86B2;}
	.st2{fill:#6A8438;}
	.st3{fill:#D5D6C9;}
	.st4{fill:#444F2D;}
</style>
<g transform="translate(0,-988.36216)">
	<g transform="translate(192,-1.4853682e-5)">
		<path d="M-167.5,1039.4C-167.5,1039.4-167.5,1039.4-167.5,1039.4c-0.3,0-0.5,0.2-0.5,0.5v2c0,0.3,0.2,0.5,0.5,0.5
			c0.3,0,0.5-0.2,0.5-0.5v-2C-167,1039.6-167.2,1039.4-167.5,1039.4z M-167.5,1039.4C-167.5,1039.4-167.5,1039.4-167.5,1039.4
			c-0.3,0-0.5,0.2-0.5,0.5v2c0,0.3,0.2,0.5,0.5,0.5c0.3,0,0.5-0.2,0.5-0.5v-2C-167,1039.6-167.2,1039.4-167.5,1039.4z
			 M-148.5,1025.4h-0.5v-7.5c0-0.3-0.2-0.5-0.5-0.5h-7c-0.3,0-0.5,0.2-0.5,0.5v7.5h-0.5c-0.3,0-0.5,0.2-0.5,0.5v3
			c0,0.3,0.2,0.5,0.5,0.5h9c0.3,0,0.5-0.2,0.5-0.5v-3C-148,1025.6-148.2,1025.4-148.5,1025.4z M-156,1018.4h6v7h-6V1018.4z
			 M-149,1028.4h-8v-2h8V1028.4z M-160.5,1025.4h-0.5v-7.5c0-0.3-0.2-0.5-0.5-0.5h-7c-0.3,0-0.5,0.2-0.5,0.5v7.5h-0.5
			c-0.3,0-0.5,0.2-0.5,0.5v3c0,0.3,0.2,0.5,0.5,0.5h9c0.3,0,0.5-0.2,0.5-0.5v-3C-160,1025.6-160.2,1025.4-160.5,1025.4z
			 M-168,1018.4h6v7h-6V1018.4z M-161,1028.4h-8v-2h8V1028.4z M-148.5,1011.4h-0.5v-7.5c0-0.3-0.2-0.5-0.5-0.5h-7
			c-0.3,0-0.5,0.2-0.5,0.5v7.5h-0.5c-0.3,0-0.5,0.2-0.5,0.5v3c0,0.3,0.2,0.5,0.5,0.5h9c0.3,0,0.5-0.2,0.5-0.5v-3
			C-148,1011.6-148.2,1011.4-148.5,1011.4z M-156,1004.4h6v7h-6V1004.4z M-149,1014.4h-8v-2h8V1014.4z M-160.5,1011.4h-0.5v-7.5
			c0-0.3-0.2-0.5-0.5-0.5h-7c-0.3,0-0.5,0.2-0.5,0.5v7.5h-0.5c-0.3,0-0.5,0.2-0.5,0.5v3c0,0.3,0.2,0.5,0.5,0.5h9
			c0.3,0,0.5-0.2,0.5-0.5v-3C-160,1011.6-160.2,1011.4-160.5,1011.4z M-168,1004.4h6v7h-6V1004.4z M-161,1014.4h-8v-2h8V1014.4z
			 M-148.5,1025.4h-0.5v-7.5c0-0.3-0.2-0.5-0.5-0.5h-7c-0.3,0-0.5,0.2-0.5,0.5v7.5h-0.5c-0.3,0-0.5,0.2-0.5,0.5v3
			c0,0.3,0.2,0.5,0.5,0.5h9c0.3,0,0.5-0.2,0.5-0.5v-3C-148,1025.6-148.2,1025.4-148.5,1025.4z M-156,1018.4h6v7h-6V1018.4z
			 M-149,1028.4h-8v-2h8V1028.4z M-148.5,1011.4h-0.5v-7.5c0-0.3-0.2-0.5-0.5-0.5h-7c-0.3,0-0.5,0.2-0.5,0.5v7.5h-0.5
			c-0.3,0-0.5,0.2-0.5,0.5v3c0,0.3,0.2,0.5,0.5,0.5h9c0.3,0,0.5-0.2,0.5-0.5v-3C-148,1011.6-148.2,1011.4-148.5,1011.4z
			 M-156,1004.4h6v7h-6V1004.4z M-149,1014.4h-8v-2h8V1014.4z M-160.5,1025.4h-0.5v-7.5c0-0.3-0.2-0.5-0.5-0.5h-7
			c-0.3,0-0.5,0.2-0.5,0.5v7.5h-0.5c-0.3,0-0.5,0.2-0.5,0.5v3c0,0.3,0.2,0.5,0.5,0.5h9c0.3,0,0.5-0.2,0.5-0.5v-3
			C-160,1025.6-160.2,1025.4-160.5,1025.4z M-168,1018.4h6v7h-6V1018.4z M-161,1028.4h-8v-2h8V1028.4z M-160.5,1011.4h-0.5v-7.5
			c0-0.3-0.2-0.5-0.5-0.5h-7c-0.3,0-0.5,0.2-0.5,0.5v7.5h-0.5c-0.3,0-0.5,0.2-0.5,0.5v3c0,0.3,0.2,0.5,0.5,0.5h9
			c0.3,0,0.5-0.2,0.5-0.5v-3C-160,1011.6-160.2,1011.4-160.5,1011.4z M-168,1004.4h6v7h-6V1004.4z M-161,1014.4h-8v-2h8V1014.4z
			 M-167.5,1039.4C-167.5,1039.4-167.5,1039.4-167.5,1039.4c-0.3,0-0.5,0.2-0.5,0.5v2c0,0.3,0.2,0.5,0.5,0.5c0.3,0,0.5-0.2,0.5-0.5
			v-2C-167,1039.6-167.2,1039.4-167.5,1039.4z M-160.5,1011.4h-0.5v-7.5c0-0.3-0.2-0.5-0.5-0.5h-7c-0.3,0-0.5,0.2-0.5,0.5v7.5h-0.5
			c-0.3,0-0.5,0.2-0.5,0.5v3c0,0.3,0.2,0.5,0.5,0.5h9c0.3,0,0.5-0.2,0.5-0.5v-3C-160,1011.6-160.2,1011.4-160.5,1011.4z
			 M-168,1004.4h6v7h-6V1004.4z M-161,1014.4h-8v-2h8V1014.4z M-160.5,1025.4h-0.5v-7.5c0-0.3-0.2-0.5-0.5-0.5h-7
			c-0.3,0-0.5,0.2-0.5,0.5v7.5h-0.5c-0.3,0-0.5,0.2-0.5,0.5v3c0,0.3,0.2,0.5,0.5,0.5h9c0.3,0,0.5-0.2,0.5-0.5v-3
			C-160,1025.6-160.2,1025.4-160.5,1025.4z M-168,1018.4h6v7h-6V1018.4z M-161,1028.4h-8v-2h8V1028.4z M-148.5,1011.4h-0.5v-7.5
			c0-0.3-0.2-0.5-0.5-0.5h-7c-0.3,0-0.5,0.2-0.5,0.5v7.5h-0.5c-0.3,0-0.5,0.2-0.5,0.5v3c0,0.3,0.2,0.5,0.5,0.5h9
			c0.3,0,0.5-0.2,0.5-0.5v-3C-148,1011.6-148.2,1011.4-148.5,1011.4z M-156,1004.4h6v7h-6V1004.4z M-149,1014.4h-8v-2h8V1014.4z
			 M-148.5,1025.4h-0.5v-7.5c0-0.3-0.2-0.5-0.5-0.5h-7c-0.3,0-0.5,0.2-0.5,0.5v7.5h-0.5c-0.3,0-0.5,0.2-0.5,0.5v3
			c0,0.3,0.2,0.5,0.5,0.5h9c0.3,0,0.5-0.2,0.5-0.5v-3C-148,1025.6-148.2,1025.4-148.5,1025.4z M-156,1018.4h6v7h-6V1018.4z
			 M-149,1028.4h-8v-2h8V1028.4z M-148.5,1025.4h-0.5v-7.5c0-0.3-0.2-0.5-0.5-0.5h-7c-0.3,0-0.5,0.2-0.5,0.5v7.5h-0.5
			c-0.3,0-0.5,0.2-0.5,0.5v3c0,0.3,0.2,0.5,0.5,0.5h9c0.3,0,0.5-0.2,0.5-0.5v-3C-148,1025.6-148.2,1025.4-148.5,1025.4z
			 M-156,1018.4h6v7h-6V1018.4z M-149,1028.4h-8v-2h8V1028.4z M-148.5,1011.4h-0.5v-7.5c0-0.3-0.2-0.5-0.5-0.5h-7
			c-0.3,0-0.5,0.2-0.5,0.5v7.5h-0.5c-0.3,0-0.5,0.2-0.5,0.5v3c0,0.3,0.2,0.5,0.5,0.5h9c0.3,0,0.5-0.2,0.5-0.5v-3
			C-148,1011.6-148.2,1011.4-148.5,1011.4z M-156,1004.4h6v7h-6V1004.4z M-149,1014.4h-8v-2h8V1014.4z M-160.5,1025.4h-0.5v-7.5
			c0-0.3-0.2-0.5-0.5-0.5h-7c-0.3,0-0.5,0.2-0.5,0.5v7.5h-0.5c-0.3,0-0.5,0.2-0.5,0.5v3c0,0.3,0.2,0.5,0.5,0.5h9
			c0.3,0,0.5-0.2,0.5-0.5v-3C-160,1025.6-160.2,1025.4-160.5,1025.4z M-168,1018.4h6v7h-6V1018.4z M-161,1028.4h-8v-2h8V1028.4z
			 M-160.5,1011.4h-0.5v-7.5c0-0.3-0.2-0.5-0.5-0.5h-7c-0.3,0-0.5,0.2-0.5,0.5v7.5h-0.5c-0.3,0-0.5,0.2-0.5,0.5v3
			c0,0.3,0.2,0.5,0.5,0.5h9c0.3,0,0.5-0.2,0.5-0.5v-3C-160,1011.6-160.2,1011.4-160.5,1011.4z M-168,1004.4h6v7h-6V1004.4z
			 M-161,1014.4h-8v-2h8V1014.4z M-167.5,1039.4C-167.5,1039.4-167.5,1039.4-167.5,1039.4c-0.3,0-0.5,0.2-0.5,0.5v2
			c0,0.3,0.2,0.5,0.5,0.5c0.3,0,0.5-0.2,0.5-0.5v-2C-167,1039.6-167.2,1039.4-167.5,1039.4z M-167.5,1039.4
			C-167.5,1039.4-167.5,1039.4-167.5,1039.4c-0.3,0-0.5,0.2-0.5,0.5v2c0,0.3,0.2,0.5,0.5,0.5c0.3,0,0.5-0.2,0.5-0.5v-2
			C-167,1039.6-167.2,1039.4-167.5,1039.4z M-160.5,1011.4h-0.5v-7.5c0-0.3-0.2-0.5-0.5-0.5h-7c-0.3,0-0.5,0.2-0.5,0.5v7.5h-0.5
			c-0.3,0-0.5,0.2-0.5,0.5v3c0,0.3,0.2,0.5,0.5,0.5h9c0.3,0,0.5-0.2,0.5-0.5v-3C-160,1011.6-160.2,1011.4-160.5,1011.4z
			 M-168,1004.4h6v7h-6V1004.4z M-161,1014.4h-8v-2h8V1014.4z M-160.5,1025.4h-0.5v-7.5c0-0.3-0.2-0.5-0.5-0.5h-7
			c-0.3,0-0.5,0.2-0.5,0.5v7.5h-0.5c-0.3,0-0.5,0.2-0.5,0.5v3c0,0.3,0.2,0.5,0.5,0.5h9c0.3,0,0.5-0.2,0.5-0.5v-3
			C-160,1025.6-160.2,1025.4-160.5,1025.4z M-168,1018.4h6v7h-6V1018.4z M-161,1028.4h-8v-2h8V1028.4z M-148.5,1011.4h-0.5v-7.5
			c0-0.3-0.2-0.5-0.5-0.5h-7c-0.3,0-0.5,0.2-0.5,0.5v7.5h-0.5c-0.3,0-0.5,0.2-0.5,0.5v3c0,0.3,0.2,0.5,0.5,0.5h9
			c0.3,0,0.5-0.2,0.5-0.5v-3C-148,1011.6-148.2,1011.4-148.5,1011.4z M-156,1004.4h6v7h-6V1004.4z M-149,1014.4h-8v-2h8V1014.4z
			 M-148.5,1025.4h-0.5v-7.5c0-0.3-0.2-0.5-0.5-0.5h-7c-0.3,0-0.5,0.2-0.5,0.5v7.5h-0.5c-0.3,0-0.5,0.2-0.5,0.5v3
			c0,0.3,0.2,0.5,0.5,0.5h9c0.3,0,0.5-0.2,0.5-0.5v-3C-148,1025.6-148.2,1025.4-148.5,1025.4z M-156,1018.4h6v7h-6V1018.4z
			 M-149,1028.4h-8v-2h8V1028.4z M-148.5,1025.4h-0.5v-7.5c0-0.3-0.2-0.5-0.5-0.5h-7c-0.3,0-0.5,0.2-0.5,0.5v7.5h-0.5
			c-0.3,0-0.5,0.2-0.5,0.5v3c0,0.3,0.2,0.5,0.5,0.5h9c0.3,0,0.5-0.2,0.5-0.5v-3C-148,1025.6-148.2,1025.4-148.5,1025.4z
			 M-156,1018.4h6v7h-6V1018.4z M-149,1028.4h-8v-2h8V1028.4z M-148.5,1011.4h-0.5v-7.5c0-0.3-0.2-0.5-0.5-0.5h-7
			c-0.3,0-0.5,0.2-0.5,0.5v7.5h-0.5c-0.3,0-0.5,0.2-0.5,0.5v3c0,0.3,0.2,0.5,0.5,0.5h9c0.3,0,0.5-0.2,0.5-0.5v-3
			C-148,1011.6-148.2,1011.4-148.5,1011.4z M-156,1004.4h6v7h-6V1004.4z M-149,1014.4h-8v-2h8V1014.4z M-160.5,1025.4h-0.5v-7.5
			c0-0.3-0.2-0.5-0.5-0.5h-7c-0.3,0-0.5,0.2-0.5,0.5v7.5h-0.5c-0.3,0-0.5,0.2-0.5,0.5v3c0,0.3,0.2,0.5,0.5,0.5h9
			c0.3,0,0.5-0.2,0.5-0.5v-3C-160,1025.6-160.2,1025.4-160.5,1025.4z M-168,1018.4h6v7h-6V1018.4z M-161,1028.4h-8v-2h8V1028.4z
			 M-160.5,1011.4h-0.5v-7.5c0-0.3-0.2-0.5-0.5-0.5h-7c-0.3,0-0.5,0.2-0.5,0.5v7.5h-0.5c-0.3,0-0.5,0.2-0.5,0.5v3
			c0,0.3,0.2,0.5,0.5,0.5h9c0.3,0,0.5-0.2,0.5-0.5v-3C-160,1011.6-160.2,1011.4-160.5,1011.4z M-168,1004.4h6v7h-6V1004.4z
			 M-161,1014.4h-8v-2h8V1014.4z M-167.5,1039.4C-167.5,1039.4-167.5,1039.4-167.5,1039.4c-0.3,0-0.5,0.2-0.5,0.5v2
			c0,0.3,0.2,0.5,0.5,0.5c0.3,0,0.5-0.2,0.5-0.5v-2C-167,1039.6-167.2,1039.4-167.5,1039.4z M-167.5,1039.4
			C-167.5,1039.4-167.5,1039.4-167.5,1039.4c-0.3,0-0.5,0.2-0.5,0.5v2c0,0.3,0.2,0.5,0.5,0.5c0.3,0,0.5-0.2,0.5-0.5v-2
			C-167,1039.6-167.2,1039.4-167.5,1039.4z M-160.5,1011.4h-0.5v-7.5c0-0.3-0.2-0.5-0.5-0.5h-7c-0.3,0-0.5,0.2-0.5,0.5v7.5h-0.5
			c-0.3,0-0.5,0.2-0.5,0.5v3c0,0.3,0.2,0.5,0.5,0.5h9c0.3,0,0.5-0.2,0.5-0.5v-3C-160,1011.6-160.2,1011.4-160.5,1011.4z
			 M-168,1004.4h6v7h-6V1004.4z M-161,1014.4h-8v-2h8V1014.4z M-160.5,1025.4h-0.5v-7.5c0-0.3-0.2-0.5-0.5-0.5h-7
			c-0.3,0-0.5,0.2-0.5,0.5v7.5h-0.5c-0.3,0-0.5,0.2-0.5,0.5v3c0,0.3,0.2,0.5,0.5,0.5h9c0.3,0,0.5-0.2,0.5-0.5v-3
			C-160,1025.6-160.2,1025.4-160.5,1025.4z M-168,1018.4h6v7h-6V1018.4z M-161,1028.4h-8v-2h8V1028.4z M-148.5,1011.4h-0.5v-7.5
			c0-0.3-0.2-0.5-0.5-0.5h-7c-0.3,0-0.5,0.2-0.5,0.5v7.5h-0.5c-0.3,0-0.5,0.2-0.5,0.5v3c0,0.3,0.2,0.5,0.5,0.5h9
			c0.3,0,0.5-0.2,0.5-0.5v-3C-148,1011.6-148.2,1011.4-148.5,1011.4z M-156,1004.4h6v7h-6V1004.4z M-149,1014.4h-8v-2h8V1014.4z
			 M-148.5,1025.4h-0.5v-7.5c0-0.3-0.2-0.5-0.5-0.5h-7c-0.3,0-0.5,0.2-0.5,0.5v7.5h-0.5c-0.3,0-0.5,0.2-0.5,0.5v3
			c0,0.3,0.2,0.5,0.5,0.5h9c0.3,0,0.5-0.2,0.5-0.5v-3C-148,1025.6-148.2,1025.4-148.5,1025.4z M-156,1018.4h6v7h-6V1018.4z
			 M-149,1028.4h-8v-2h8V1028.4z M-148.5,1025.4h-0.5v-7.5c0-0.3-0.2-0.5-0.5-0.5h-7c-0.3,0-0.5,0.2-0.5,0.5v7.5h-0.5
			c-0.3,0-0.5,0.2-0.5,0.5v3c0,0.3,0.2,0.5,0.5,0.5h9c0.3,0,0.5-0.2,0.5-0.5v-3C-148,1025.6-148.2,1025.4-148.5,1025.4z
			 M-156,1018.4h6v7h-6V1018.4z M-149,1028.4h-8v-2h8V1028.4z M-148.5,1011.4h-0.5v-7.5c0-0.3-0.2-0.5-0.5-0.5h-7
			c-0.3,0-0.5,0.2-0.5,0.5v7.5h-0.5c-0.3,0-0.5,0.2-0.5,0.5v3c0,0.3,0.2,0.5,0.5,0.5h9c0.3,0,0.5-0.2,0.5-0.5v-3
			C-148,1011.6-148.2,1011.4-148.5,1011.4z M-156,1004.4h6v7h-6V1004.4z M-149,1014.4h-8v-2h8V1014.4z M-160.5,1025.4h-0.5v-7.5
			c0-0.3-0.2-0.5-0.5-0.5h-7c-0.3,0-0.5,0.2-0.5,0.5v7.5h-0.5c-0.3,0-0.5,0.2-0.5,0.5v3c0,0.3,0.2,0.5,0.5,0.5h9
			c0.3,0,0.5-0.2,0.5-0.5v-3C-160,1025.6-160.2,1025.4-160.5,1025.4z M-168,1018.4h6v7h-6V1018.4z M-161,1028.4h-8v-2h8V1028.4z
			 M-160.5,1011.4h-0.5v-7.5c0-0.3-0.2-0.5-0.5-0.5h-7c-0.3,0-0.5,0.2-0.5,0.5v7.5h-0.5c-0.3,0-0.5,0.2-0.5,0.5v3
			c0,0.3,0.2,0.5,0.5,0.5h9c0.3,0,0.5-0.2,0.5-0.5v-3C-160,1011.6-160.2,1011.4-160.5,1011.4z M-168,1004.4h6v7h-6V1004.4z
			 M-161,1014.4h-8v-2h8V1014.4z M-167.5,1039.4C-167.5,1039.4-167.5,1039.4-167.5,1039.4c-0.3,0-0.5,0.2-0.5,0.5v2
			c0,0.3,0.2,0.5,0.5,0.5c0.3,0,0.5-0.2,0.5-0.5v-2C-167,1039.6-167.2,1039.4-167.5,1039.4z M-167.5,1039.4
			C-167.5,1039.4-167.5,1039.4-167.5,1039.4c-0.3,0-0.5,0.2-0.5,0.5v2c0,0.3,0.2,0.5,0.5,0.5c0.3,0,0.5-0.2,0.5-0.5v-2
			C-167,1039.6-167.2,1039.4-167.5,1039.4z M-160.5,1011.4h-0.5v-7.5c0-0.3-0.2-0.5-0.5-0.5h-7c-0.3,0-0.5,0.2-0.5,0.5v7.5h-0.5
			c-0.3,0-0.5,0.2-0.5,0.5v3c0,0.3,0.2,0.5,0.5,0.5h9c0.3,0,0.5-0.2,0.5-0.5v-3C-160,1011.6-160.2,1011.4-160.5,1011.4z
			 M-168,1004.4h6v7h-6V1004.4z M-161,1014.4h-8v-2h8V1014.4z M-160.5,1025.4h-0.5v-7.5c0-0.3-0.2-0.5-0.5-0.5h-7
			c-0.3,0-0.5,0.2-0.5,0.5v7.5h-0.5c-0.3,0-0.5,0.2-0.5,0.5v3c0,0.3,0.2,0.5,0.5,0.5h9c0.3,0,0.5-0.2,0.5-0.5v-3
			C-160,1025.6-160.2,1025.4-160.5,1025.4z M-168,1018.4h6v7h-6V1018.4z M-161,1028.4h-8v-2h8V1028.4z M-148.5,1011.4h-0.5v-7.5
			c0-0.3-0.2-0.5-0.5-0.5h-7c-0.3,0-0.5,0.2-0.5,0.5v7.5h-0.5c-0.3,0-0.5,0.2-0.5,0.5v3c0,0.3,0.2,0.5,0.5,0.5h9
			c0.3,0,0.5-0.2,0.5-0.5v-3C-148,1011.6-148.2,1011.4-148.5,1011.4z M-156,1004.4h6v7h-6V1004.4z M-149,1014.4h-8v-2h8V1014.4z
			 M-148.5,1025.4h-0.5v-7.5c0-0.3-0.2-0.5-0.5-0.5h-7c-0.3,0-0.5,0.2-0.5,0.5v7.5h-0.5c-0.3,0-0.5,0.2-0.5,0.5v3
			c0,0.3,0.2,0.5,0.5,0.5h9c0.3,0,0.5-0.2,0.5-0.5v-3C-148,1025.6-148.2,1025.4-148.5,1025.4z M-156,1018.4h6v7h-6V1018.4z
			 M-149,1028.4h-8v-2h8V1028.4z M-148.5,1025.4h-0.5v-7.5c0-0.3-0.2-0.5-0.5-0.5h-7c-0.3,0-0.5,0.2-0.5,0.5v7.5h-0.5
			c-0.3,0-0.5,0.2-0.5,0.5v3c0,0.3,0.2,0.5,0.5,0.5h9c0.3,0,0.5-0.2,0.5-0.5v-3C-148,1025.6-148.2,1025.4-148.5,1025.4z
			 M-156,1018.4h6v7h-6V1018.4z M-149,1028.4h-8v-2h8V1028.4z M-148.5,1011.4h-0.5v-7.5c0-0.3-0.2-0.5-0.5-0.5h-7
			c-0.3,0-0.5,0.2-0.5,0.5v7.5h-0.5c-0.3,0-0.5,0.2-0.5,0.5v3c0,0.3,0.2,0.5,0.5,0.5h9c0.3,0,0.5-0.2,0.5-0.5v-3
			C-148,1011.6-148.2,1011.4-148.5,1011.4z M-156,1004.4h6v7h-6V1004.4z M-149,1014.4h-8v-2h8V1014.4z M-160.5,1025.4h-0.5v-7.5
			c0-0.3-0.2-0.5-0.5-0.5h-7c-0.3,0-0.5,0.2-0.5,0.5v7.5h-0.5c-0.3,0-0.5,0.2-0.5,0.5v3c0,0.3,0.2,0.5,0.5,0.5h9
			c0.3,0,0.5-0.2,0.5-0.5v-3C-160,1025.6-160.2,1025.4-160.5,1025.4z M-168,1018.4h6v7h-6V1018.4z M-161,1028.4h-8v-2h8V1028.4z
			 M-160.5,1011.4h-0.5v-7.5c0-0.3-0.2-0.5-0.5-0.5h-7c-0.3,0-0.5,0.2-0.5,0.5v7.5h-0.5c-0.3,0-0.5,0.2-0.5,0.5v3
			c0,0.3,0.2,0.5,0.5,0.5h9c0.3,0,0.5-0.2,0.5-0.5v-3C-160,1011.6-160.2,1011.4-160.5,1011.4z M-168,1004.4h6v7h-6V1004.4z
			 M-161,1014.4h-8v-2h8V1014.4z M-167.5,1039.4C-167.5,1039.4-167.5,1039.4-167.5,1039.4c-0.3,0-0.5,0.2-0.5,0.5v2
			c0,0.3,0.2,0.5,0.5,0.5c0.3,0,0.5-0.2,0.5-0.5v-2C-167,1039.6-167.2,1039.4-167.5,1039.4z M-167.5,1039.4
			C-167.5,1039.4-167.5,1039.4-167.5,1039.4c-0.3,0-0.5,0.2-0.5,0.5v2c0,0.3,0.2,0.5,0.5,0.5c0.3,0,0.5-0.2,0.5-0.5v-2
			C-167,1039.6-167.2,1039.4-167.5,1039.4z M-160.5,1011.4h-0.5v-7.5c0-0.3-0.2-0.5-0.5-0.5h-7c-0.3,0-0.5,0.2-0.5,0.5v7.5h-0.5
			c-0.3,0-0.5,0.2-0.5,0.5v3c0,0.3,0.2,0.5,0.5,0.5h9c0.3,0,0.5-0.2,0.5-0.5v-3C-160,1011.6-160.2,1011.4-160.5,1011.4z
			 M-168,1004.4h6v7h-6V1004.4z M-161,1014.4h-8v-2h8V1014.4z M-160.5,1025.4h-0.5v-7.5c0-0.3-0.2-0.5-0.5-0.5h-7
			c-0.3,0-0.5,0.2-0.5,0.5v7.5h-0.5c-0.3,0-0.5,0.2-0.5,0.5v3c0,0.3,0.2,0.5,0.5,0.5h9c0.3,0,0.5-0.2,0.5-0.5v-3
			C-160,1025.6-160.2,1025.4-160.5,1025.4z M-168,1018.4h6v7h-6V1018.4z M-161,1028.4h-8v-2h8V1028.4z M-148.5,1011.4h-0.5v-7.5
			c0-0.3-0.2-0.5-0.5-0.5h-7c-0.3,0-0.5,0.2-0.5,0.5v7.5h-0.5c-0.3,0-0.5,0.2-0.5,0.5v3c0,0.3,0.2,0.5,0.5,0.5h9
			c0.3,0,0.5-0.2,0.5-0.5v-3C-148,1011.6-148.2,1011.4-148.5,1011.4z M-156,1004.4h6v7h-6V1004.4z M-149,1014.4h-8v-2h8V1014.4z
			 M-148.5,1025.4h-0.5v-7.5c0-0.3-0.2-0.5-0.5-0.5h-7c-0.3,0-0.5,0.2-0.5,0.5v7.5h-0.5c-0.3,0-0.5,0.2-0.5,0.5v3
			c0,0.3,0.2,0.5,0.5,0.5h9c0.3,0,0.5-0.2,0.5-0.5v-3C-148,1025.6-148.2,1025.4-148.5,1025.4z M-156,1018.4h6v7h-6V1018.4z
			 M-149,1028.4h-8v-2h8V1028.4z M-148.5,1025.4h-0.5v-7.5c0-0.3-0.2-0.5-0.5-0.5h-7c-0.3,0-0.5,0.2-0.5,0.5v7.5h-0.5
			c-0.3,0-0.5,0.2-0.5,0.5v3c0,0.3,0.2,0.5,0.5,0.5h9c0.3,0,0.5-0.2,0.5-0.5v-3C-148,1025.6-148.2,1025.4-148.5,1025.4z
			 M-156,1018.4h6v7h-6V1018.4z M-149,1028.4h-8v-2h8V1028.4z M-148.5,1011.4h-0.5v-7.5c0-0.3-0.2-0.5-0.5-0.5h-7
			c-0.3,0-0.5,0.2-0.5,0.5v7.5h-0.5c-0.3,0-0.5,0.2-0.5,0.5v3c0,0.3,0.2,0.5,0.5,0.5h9c0.3,0,0.5-0.2,0.5-0.5v-3
			C-148,1011.6-148.2,1011.4-148.5,1011.4z M-156,1004.4h6v7h-6V1004.4z M-149,1014.4h-8v-2h8V1014.4z M-160.5,1025.4h-0.5v-7.5
			c0-0.3-0.2-0.5-0.5-0.5h-7c-0.3,0-0.5,0.2-0.5,0.5v7.5h-0.5c-0.3,0-0.5,0.2-0.5,0.5v3c0,0.3,0.2,0.5,0.5,0.5h9
			c0.3,0,0.5-0.2,0.5-0.5v-3C-160,1025.6-160.2,1025.4-160.5,1025.4z M-168,1018.4h6v7h-6V1018.4z M-161,1028.4h-8v-2h8V1028.4z
			 M-160.5,1011.4h-0.5v-7.5c0-0.3-0.2-0.5-0.5-0.5h-7c-0.3,0-0.5,0.2-0.5,0.5v7.5h-0.5c-0.3,0-0.5,0.2-0.5,0.5v3
			c0,0.3,0.2,0.5,0.5,0.5h9c0.3,0,0.5-0.2,0.5-0.5v-3C-160,1011.6-160.2,1011.4-160.5,1011.4z M-168,1004.4h6v7h-6V1004.4z
			 M-161,1014.4h-8v-2h8V1014.4z M-167.5,1039.4C-167.5,1039.4-167.5,1039.4-167.5,1039.4c-0.3,0-0.5,0.2-0.5,0.5v2
			c0,0.3,0.2,0.5,0.5,0.5c0.3,0,0.5-0.2,0.5-0.5v-2C-167,1039.6-167.2,1039.4-167.5,1039.4z M-167.5,1039.4
			C-167.5,1039.4-167.5,1039.4-167.5,1039.4c-0.3,0-0.5,0.2-0.5,0.5v2c0,0.3,0.2,0.5,0.5,0.5c0.3,0,0.5-0.2,0.5-0.5v-2
			C-167,1039.6-167.2,1039.4-167.5,1039.4z M-160.5,1011.4h-0.5v-7.5c0-0.3-0.2-0.5-0.5-0.5h-7c-0.3,0-0.5,0.2-0.5,0.5v7.5h-0.5
			c-0.3,0-0.5,0.2-0.5,0.5v3c0,0.3,0.2,0.5,0.5,0.5h9c0.3,0,0.5-0.2,0.5-0.5v-3C-160,1011.6-160.2,1011.4-160.5,1011.4z
			 M-168,1004.4h6v7h-6V1004.4z M-161,1014.4h-8v-2h8V1014.4z M-160.5,1025.4h-0.5v-7.5c0-0.3-0.2-0.5-0.5-0.5h-7
			c-0.3,0-0.5,0.2-0.5,0.5v7.5h-0.5c-0.3,0-0.5,0.2-0.5,0.5v3c0,0.3,0.2,0.5,0.5,0.5h9c0.3,0,0.5-0.2,0.5-0.5v-3
			C-160,1025.6-160.2,1025.4-160.5,1025.4z M-168,1018.4h6v7h-6V1018.4z M-161,1028.4h-8v-2h8V1028.4z M-148.5,1011.4h-0.5v-7.5
			c0-0.3-0.2-0.5-0.5-0.5h-7c-0.3,0-0.5,0.2-0.5,0.5v7.5h-0.5c-0.3,0-0.5,0.2-0.5,0.5v3c0,0.3,0.2,0.5,0.5,0.5h9
			c0.3,0,0.5-0.2,0.5-0.5v-3C-148,1011.6-148.2,1011.4-148.5,1011.4z M-156,1004.4h6v7h-6V1004.4z M-149,1014.4h-8v-2h8V1014.4z
			 M-148.5,1025.4h-0.5v-7.5c0-0.3-0.2-0.5-0.5-0.5h-7c-0.3,0-0.5,0.2-0.5,0.5v7.5h-0.5c-0.3,0-0.5,0.2-0.5,0.5v3
			c0,0.3,0.2,0.5,0.5,0.5h9c0.3,0,0.5-0.2,0.5-0.5v-3C-148,1025.6-148.2,1025.4-148.5,1025.4z M-156,1018.4h6v7h-6V1018.4z
			 M-149,1028.4h-8v-2h8V1028.4z M-148.5,1025.4h-0.5v-7.5c0-0.3-0.2-0.5-0.5-0.5h-7c-0.3,0-0.5,0.2-0.5,0.5v7.5h-0.5
			c-0.3,0-0.5,0.2-0.5,0.5v3c0,0.3,0.2,0.5,0.5,0.5h9c0.3,0,0.5-0.2,0.5-0.5v-3C-148,1025.6-148.2,1025.4-148.5,1025.4z
			 M-156,1018.4h6v7h-6V1018.4z M-149,1028.4h-8v-2h8V1028.4z M-148.5,1011.4h-0.5v-7.5c0-0.3-0.2-0.5-0.5-0.5h-7
			c-0.3,0-0.5,0.2-0.5,0.5v7.5h-0.5c-0.3,0-0.5,0.2-0.5,0.5v3c0,0.3,0.2,0.5,0.5,0.5h9c0.3,0,0.5-0.2,0.5-0.5v-3
			C-148,1011.6-148.2,1011.4-148.5,1011.4z M-156,1004.4h6v7h-6V1004.4z M-149,1014.4h-8v-2h8V1014.4z M-160.5,1025.4h-0.5v-7.5
			c0-0.3-0.2-0.5-0.5-0.5h-7c-0.3,0-0.5,0.2-0.5,0.5v7.5h-0.5c-0.3,0-0.5,0.2-0.5,0.5v3c0,0.3,0.2,0.5,0.5,0.5h9
			c0.3,0,0.5-0.2,0.5-0.5v-3C-160,1025.6-160.2,1025.4-160.5,1025.4z M-168,1018.4h6v7h-6V1018.4z M-161,1028.4h-8v-2h8V1028.4z
			 M-160.5,1011.4h-0.5v-7.5c0-0.3-0.2-0.5-0.5-0.5h-7c-0.3,0-0.5,0.2-0.5,0.5v7.5h-0.5c-0.3,0-0.5,0.2-0.5,0.5v3
			c0,0.3,0.2,0.5,0.5,0.5h9c0.3,0,0.5-0.2,0.5-0.5v-3C-160,1011.6-160.2,1011.4-160.5,1011.4z M-168,1004.4h6v7h-6V1004.4z
			 M-161,1014.4h-8v-2h8V1014.4z M-167.5,1039.4C-167.5,1039.4-167.5,1039.4-167.5,1039.4c-0.3,0-0.5,0.2-0.5,0.5v2
			c0,0.3,0.2,0.5,0.5,0.5c0.3,0,0.5-0.2,0.5-0.5v-2C-167,1039.6-167.2,1039.4-167.5,1039.4z M-167.5,1039.4
			C-167.5,1039.4-167.5,1039.4-167.5,1039.4c-0.3,0-0.5,0.2-0.5,0.5v2c0,0.3,0.2,0.5,0.5,0.5c0.3,0,0.5-0.2,0.5-0.5v-2
			C-167,1039.6-167.2,1039.4-167.5,1039.4z M-160.5,1011.4h-0.5v-7.5c0-0.3-0.2-0.5-0.5-0.5h-7c-0.3,0-0.5,0.2-0.5,0.5v7.5h-0.5
			c-0.3,0-0.5,0.2-0.5,0.5v3c0,0.3,0.2,0.5,0.5,0.5h9c0.3,0,0.5-0.2,0.5-0.5v-3C-160,1011.6-160.2,1011.4-160.5,1011.4z
			 M-168,1004.4h6v7h-6V1004.4z M-161,1014.4h-8v-2h8V1014.4z M-160.5,1025.4h-0.5v-7.5c0-0.3-0.2-0.5-0.5-0.5h-7
			c-0.3,0-0.5,0.2-0.5,0.5v7.5h-0.5c-0.3,0-0.5,0.2-0.5,0.5v3c0,0.3,0.2,0.5,0.5,0.5h9c0.3,0,0.5-0.2,0.5-0.5v-3
			C-160,1025.6-160.2,1025.4-160.5,1025.4z M-168,1018.4h6v7h-6V1018.4z M-161,1028.4h-8v-2h8V1028.4z M-148.5,1011.4h-0.5v-7.5
			c0-0.3-0.2-0.5-0.5-0.5h-7c-0.3,0-0.5,0.2-0.5,0.5v7.5h-0.5c-0.3,0-0.5,0.2-0.5,0.5v3c0,0.3,0.2,0.5,0.5,0.5h9
			c0.3,0,0.5-0.2,0.5-0.5v-3C-148,1011.6-148.2,1011.4-148.5,1011.4z M-156,1004.4h6v7h-6V1004.4z M-149,1014.4h-8v-2h8V1014.4z
			 M-148.5,1025.4h-0.5v-7.5c0-0.3-0.2-0.5-0.5-0.5h-7c-0.3,0-0.5,0.2-0.5,0.5v7.5h-0.5c-0.3,0-0.5,0.2-0.5,0.5v3
			c0,0.3,0.2,0.5,0.5,0.5h9c0.3,0,0.5-0.2,0.5-0.5v-3C-148,1025.6-148.2,1025.4-148.5,1025.4z M-156,1018.4h6v7h-6V1018.4z
			 M-149,1028.4h-8v-2h8V1028.4z M-148.5,1025.4h-0.5v-7.5c0-0.3-0.2-0.5-0.5-0.5h-7c-0.3,0-0.5,0.2-0.5,0.5v7.5h-0.5
			c-0.3,0-0.5,0.2-0.5,0.5v3c0,0.3,0.2,0.5,0.5,0.5h9c0.3,0,0.5-0.2,0.5-0.5v-3C-148,1025.6-148.2,1025.4-148.5,1025.4z
			 M-156,1018.4h6v7h-6V1018.4z M-149,1028.4h-8v-2h8V1028.4z M-148.5,1011.4h-0.5v-7.5c0-0.3-0.2-0.5-0.5-0.5h-7
			c-0.3,0-0.5,0.2-0.5,0.5v7.5h-0.5c-0.3,0-0.5,0.2-0.5,0.5v3c0,0.3,0.2,0.5,0.5,0.5h9c0.3,0,0.5-0.2,0.5-0.5v-3
			C-148,1011.6-148.2,1011.4-148.5,1011.4z M-156,1004.4h6v7h-6V1004.4z M-149,1014.4h-8v-2h8V1014.4z M-160.5,1025.4h-0.5v-7.5
			c0-0.3-0.2-0.5-0.5-0.5h-7c-0.3,0-0.5,0.2-0.5,0.5v7.5h-0.5c-0.3,0-0.5,0.2-0.5,0.5v3c0,0.3,0.2,0.5,0.5,0.5h9
			c0.3,0,0.5-0.2,0.5-0.5v-3C-160,1025.6-160.2,1025.4-160.5,1025.4z M-168,1018.4h6v7h-6V1018.4z M-161,1028.4h-8v-2h8V1028.4z
			 M-160.5,1011.4h-0.5v-7.5c0-0.3-0.2-0.5-0.5-0.5h-7c-0.3,0-0.5,0.2-0.5,0.5v7.5h-0.5c-0.3,0-0.5,0.2-0.5,0.5v3
			c0,0.3,0.2,0.5,0.5,0.5h9c0.3,0,0.5-0.2,0.5-0.5v-3C-160,1011.6-160.2,1011.4-160.5,1011.4z M-168,1004.4h6v7h-6V1004.4z
			 M-161,1014.4h-8v-2h8V1014.4z M-167.5,1039.4C-167.5,1039.4-167.5,1039.4-167.5,1039.4c-0.3,0-0.5,0.2-0.5,0.5v2
			c0,0.3,0.2,0.5,0.5,0.5c0.3,0,0.5-0.2,0.5-0.5v-2C-167,1039.6-167.2,1039.4-167.5,1039.4z M-167.5,1039.4
			C-167.5,1039.4-167.5,1039.4-167.5,1039.4c-0.3,0-0.5,0.2-0.5,0.5v2c0,0.3,0.2,0.5,0.5,0.5c0.3,0,0.5-0.2,0.5-0.5v-2
			C-167,1039.6-167.2,1039.4-167.5,1039.4z M-160.5,1011.4h-0.5v-7.5c0-0.3-0.2-0.5-0.5-0.5h-7c-0.3,0-0.5,0.2-0.5,0.5v7.5h-0.5
			c-0.3,0-0.5,0.2-0.5,0.5v3c0,0.3,0.2,0.5,0.5,0.5h9c0.3,0,0.5-0.2,0.5-0.5v-3C-160,1011.6-160.2,1011.4-160.5,1011.4z
			 M-168,1004.4h6v7h-6V1004.4z M-161,1014.4h-8v-2h8V1014.4z M-160.5,1025.4h-0.5v-7.5c0-0.3-0.2-0.5-0.5-0.5h-7
			c-0.3,0-0.5,0.2-0.5,0.5v7.5h-0.5c-0.3,0-0.5,0.2-0.5,0.5v3c0,0.3,0.2,0.5,0.5,0.5h9c0.3,0,0.5-0.2,0.5-0.5v-3
			C-160,1025.6-160.2,1025.4-160.5,1025.4z M-168,1018.4h6v7h-6V1018.4z M-161,1028.4h-8v-2h8V1028.4z M-148.5,1011.4h-0.5v-7.5
			c0-0.3-0.2-0.5-0.5-0.5h-7c-0.3,0-0.5,0.2-0.5,0.5v7.5h-0.5c-0.3,0-0.5,0.2-0.5,0.5v3c0,0.3,0.2,0.5,0.5,0.5h9
			c0.3,0,0.5-0.2,0.5-0.5v-3C-148,1011.6-148.2,1011.4-148.5,1011.4z M-156,1004.4h6v7h-6V1004.4z M-149,1014.4h-8v-2h8V1014.4z
			 M-148.5,1025.4h-0.5v-7.5c0-0.3-0.2-0.5-0.5-0.5h-7c-0.3,0-0.5,0.2-0.5,0.5v7.5h-0.5c-0.3,0-0.5,0.2-0.5,0.5v3
			c0,0.3,0.2,0.5,0.5,0.5h9c0.3,0,0.5-0.2,0.5-0.5v-3C-148,1025.6-148.2,1025.4-148.5,1025.4z M-156,1018.4h6v7h-6V1018.4z
			 M-149,1028.4h-8v-2h8V1028.4z M-148.5,1025.4h-0.5v-7.5c0-0.3-0.2-0.5-0.5-0.5h-7c-0.3,0-0.5,0.2-0.5,0.5v7.5h-0.5
			c-0.3,0-0.5,0.2-0.5,0.5v3c0,0.3,0.2,0.5,0.5,0.5h9c0.3,0,0.5-0.2,0.5-0.5v-3C-148,1025.6-148.2,1025.4-148.5,1025.4z
			 M-156,1018.4h6v7h-6V1018.4z M-149,1028.4h-8v-2h8V1028.4z M-148.5,1011.4h-0.5v-7.5c0-0.3-0.2-0.5-0.5-0.5h-7
			c-0.3,0-0.5,0.2-0.5,0.5v7.5h-0.5c-0.3,0-0.5,0.2-0.5,0.5v3c0,0.3,0.2,0.5,0.5,0.5h9c0.3,0,0.5-0.2,0.5-0.5v-3
			C-148,1011.6-148.2,1011.4-148.5,1011.4z M-156,1004.4h6v7h-6V1004.4z M-149,1014.4h-8v-2h8V1014.4z M-160.5,1025.4h-0.5v-7.5
			c0-0.3-0.2-0.5-0.5-0.5h-7c-0.3,0-0.5,0.2-0.5,0.5v7.5h-0.5c-0.3,0-0.5,0.2-0.5,0.5v3c0,0.3,0.2,0.5,0.5,0.5h9
			c0.3,0,0.5-0.2,0.5-0.5v-3C-160,1025.6-160.2,1025.4-160.5,1025.4z M-168,1018.4h6v7h-6V1018.4z M-161,1028.4h-8v-2h8V1028.4z
			 M-160.5,1011.4h-0.5v-7.5c0-0.3-0.2-0.5-0.5-0.5h-7c-0.3,0-0.5,0.2-0.5,0.5v7.5h-0.5c-0.3,0-0.5,0.2-0.5,0.5v3
			c0,0.3,0.2,0.5,0.5,0.5h9c0.3,0,0.5-0.2,0.5-0.5v-3C-160,1011.6-160.2,1011.4-160.5,1011.4z M-168,1004.4h6v7h-6V1004.4z
			 M-161,1014.4h-8v-2h8V1014.4z M-167.5,1039.4C-167.5,1039.4-167.5,1039.4-167.5,1039.4c-0.3,0-0.5,0.2-0.5,0.5v2
			c0,0.3,0.2,0.5,0.5,0.5c0.3,0,0.5-0.2,0.5-0.5v-2C-167,1039.6-167.2,1039.4-167.5,1039.4z M-167.5,1039.4
			C-167.5,1039.4-167.5,1039.4-167.5,1039.4c-0.3,0-0.5,0.2-0.5,0.5v2c0,0.3,0.2,0.5,0.5,0.5c0.3,0,0.5-0.2,0.5-0.5v-2
			C-167,1039.6-167.2,1039.4-167.5,1039.4z M-160.5,1011.4h-0.5v-7.5c0-0.3-0.2-0.5-0.5-0.5h-7c-0.3,0-0.5,0.2-0.5,0.5v7.5h-0.5
			c-0.3,0-0.5,0.2-0.5,0.5v3c0,0.3,0.2,0.5,0.5,0.5h9c0.3,0,0.5-0.2,0.5-0.5v-3C-160,1011.6-160.2,1011.4-160.5,1011.4z
			 M-168,1004.4h6v7h-6V1004.4z M-161,1014.4h-8v-2h8V1014.4z M-160.5,1025.4h-0.5v-7.5c0-0.3-0.2-0.5-0.5-0.5h-7
			c-0.3,0-0.5,0.2-0.5,0.5v7.5h-0.5c-0.3,0-0.5,0.2-0.5,0.5v3c0,0.3,0.2,0.5,0.5,0.5h9c0.3,0,0.5-0.2,0.5-0.5v-3
			C-160,1025.6-160.2,1025.4-160.5,1025.4z M-168,1018.4h6v7h-6V1018.4z M-161,1028.4h-8v-2h8V1028.4z M-148.5,1011.4h-0.5v-7.5
			c0-0.3-0.2-0.5-0.5-0.5h-7c-0.3,0-0.5,0.2-0.5,0.5v7.5h-0.5c-0.3,0-0.5,0.2-0.5,0.5v3c0,0.3,0.2,0.5,0.5,0.5h9
			c0.3,0,0.5-0.2,0.5-0.5v-3C-148,1011.6-148.2,1011.4-148.5,1011.4z M-156,1004.4h6v7h-6V1004.4z M-149,1014.4h-8v-2h8V1014.4z
			 M-148.5,1025.4h-0.5v-7.5c0-0.3-0.2-0.5-0.5-0.5h-7c-0.3,0-0.5,0.2-0.5,0.5v7.5h-0.5c-0.3,0-0.5,0.2-0.5,0.5v3
			c0,0.3,0.2,0.5,0.5,0.5h9c0.3,0,0.5-0.2,0.5-0.5v-3C-148,1025.6-148.2,1025.4-148.5,1025.4z M-156,1018.4h6v7h-6V1018.4z
			 M-149,1028.4h-8v-2h8V1028.4z M-148.5,1025.4h-0.5v-7.5c0-0.3-0.2-0.5-0.5-0.5h-7c-0.3,0-0.5,0.2-0.5,0.5v7.5h-0.5
			c-0.3,0-0.5,0.2-0.5,0.5v3c0,0.3,0.2,0.5,0.5,0.5h9c0.3,0,0.5-0.2,0.5-0.5v-3C-148,1025.6-148.2,1025.4-148.5,1025.4z
			 M-156,1018.4h6v7h-6V1018.4z M-149,1028.4h-8v-2h8V1028.4z M-148.5,1011.4h-0.5v-7.5c0-0.3-0.2-0.5-0.5-0.5h-7
			c-0.3,0-0.5,0.2-0.5,0.5v7.5h-0.5c-0.3,0-0.5,0.2-0.5,0.5v3c0,0.3,0.2,0.5,0.5,0.5h9c0.3,0,0.5-0.2,0.5-0.5v-3
			C-148,1011.6-148.2,1011.4-148.5,1011.4z M-156,1004.4h6v7h-6V1004.4z M-149,1014.4h-8v-2h8V1014.4z M-160.5,1025.4h-0.5v-7.5
			c0-0.3-0.2-0.5-0.5-0.5h-7c-0.3,0-0.5,0.2-0.5,0.5v7.5h-0.5c-0.3,0-0.5,0.2-0.5,0.5v3c0,0.3,0.2,0.5,0.5,0.5h9
			c0.3,0,0.5-0.2,0.5-0.5v-3C-160,1025.6-160.2,1025.4-160.5,1025.4z M-168,1018.4h6v7h-6V1018.4z M-161,1028.4h-8v-2h8V1028.4z
			 M-160.5,1011.4h-0.5v-7.5c0-0.3-0.2-0.5-0.5-0.5h-7c-0.3,0-0.5,0.2-0.5,0.5v7.5h-0.5c-0.3,0-0.5,0.2-0.5,0.5v3
			c0,0.3,0.2,0.5,0.5,0.5h9c0.3,0,0.5-0.2,0.5-0.5v-3C-160,1011.6-160.2,1011.4-160.5,1011.4z M-168,1004.4h6v7h-6V1004.4z
			 M-161,1014.4h-8v-2h8V1014.4z M-167.5,1039.4C-167.5,1039.4-167.5,1039.4-167.5,1039.4c-0.3,0-0.5,0.2-0.5,0.5v2
			c0,0.3,0.2,0.5,0.5,0.5c0.3,0,0.5-0.2,0.5-0.5v-2C-167,1039.6-167.2,1039.4-167.5,1039.4z M-167.5,1039.4
			C-167.5,1039.4-167.5,1039.4-167.5,1039.4c-0.3,0-0.5,0.2-0.5,0.5v2c0,0.3,0.2,0.5,0.5,0.5c0.3,0,0.5-0.2,0.5-0.5v-2
			C-167,1039.6-167.2,1039.4-167.5,1039.4z M-160.5,1011.4h-0.5v-7.5c0-0.3-0.2-0.5-0.5-0.5h-7c-0.3,0-0.5,0.2-0.5,0.5v7.5h-0.5
			c-0.3,0-0.5,0.2-0.5,0.5v3c0,0.3,0.2,0.5,0.5,0.5h9c0.3,0,0.5-0.2,0.5-0.5v-3C-160,1011.6-160.2,1011.4-160.5,1011.4z
			 M-168,1004.4h6v7h-6V1004.4z M-161,1014.4h-8v-2h8V1014.4z M-160.5,1025.4h-0.5v-7.5c0-0.3-0.2-0.5-0.5-0.5h-7
			c-0.3,0-0.5,0.2-0.5,0.5v7.5h-0.5c-0.3,0-0.5,0.2-0.5,0.5v3c0,0.3,0.2,0.5,0.5,0.5h9c0.3,0,0.5-0.2,0.5-0.5v-3
			C-160,1025.6-160.2,1025.4-160.5,1025.4z M-168,1018.4h6v7h-6V1018.4z M-161,1028.4h-8v-2h8V1028.4z M-148.5,1011.4h-0.5v-7.5
			c0-0.3-0.2-0.5-0.5-0.5h-7c-0.3,0-0.5,0.2-0.5,0.5v7.5h-0.5c-0.3,0-0.5,0.2-0.5,0.5v3c0,0.3,0.2,0.5,0.5,0.5h9
			c0.3,0,0.5-0.2,0.5-0.5v-3C-148,1011.6-148.2,1011.4-148.5,1011.4z M-156,1004.4h6v7h-6V1004.4z M-149,1014.4h-8v-2h8V1014.4z
			 M-148.5,1025.4h-0.5v-7.5c0-0.3-0.2-0.5-0.5-0.5h-7c-0.3,0-0.5,0.2-0.5,0.5v7.5h-0.5c-0.3,0-0.5,0.2-0.5,0.5v3
			c0,0.3,0.2,0.5,0.5,0.5h9c0.3,0,0.5-0.2,0.5-0.5v-3C-148,1025.6-148.2,1025.4-148.5,1025.4z M-156,1018.4h6v7h-6V1018.4z
			 M-149,1028.4h-8v-2h8V1028.4z M-148.5,1025.4h-0.5v-7.5c0-0.3-0.2-0.5-0.5-0.5h-7c-0.3,0-0.5,0.2-0.5,0.5v7.5h-0.5
			c-0.3,0-0.5,0.2-0.5,0.5v3c0,0.3,0.2,0.5,0.5,0.5h9c0.3,0,0.5-0.2,0.5-0.5v-3C-148,1025.6-148.2,1025.4-148.5,1025.4z
			 M-156,1018.4h6v7h-6V1018.4z M-149,1028.4h-8v-2h8V1028.4z M-148.5,1011.4h-0.5v-7.5c0-0.3-0.2-0.5-0.5-0.5h-7
			c-0.3,0-0.5,0.2-0.5,0.5v7.5h-0.5c-0.3,0-0.5,0.2-0.5,0.5v3c0,0.3,0.2,0.5,0.5,0.5h9c0.3,0,0.5-0.2,0.5-0.5v-3
			C-148,1011.6-148.2,1011.4-148.5,1011.4z M-156,1004.4h6v7h-6V1004.4z M-149,1014.4h-8v-2h8V1014.4z M-160.5,1025.4h-0.5v-7.5
			c0-0.3-0.2-0.5-0.5-0.5h-7c-0.3,0-0.5,0.2-0.5,0.5v7.5h-0.5c-0.3,0-0.5,0.2-0.5,0.5v3c0,0.3,0.2,0.5,0.5,0.5h9
			c0.3,0,0.5-0.2,0.5-0.5v-3C-160,1025.6-160.2,1025.4-160.5,1025.4z M-168,1018.4h6v7h-6V1018.4z M-161,1028.4h-8v-2h8V1028.4z
			 M-160.5,1011.4h-0.5v-7.5c0-0.3-0.2-0.5-0.5-0.5h-7c-0.3,0-0.5,0.2-0.5,0.5v7.5h-0.5c-0.3,0-0.5,0.2-0.5,0.5v3
			c0,0.3,0.2,0.5,0.5,0.5h9c0.3,0,0.5-0.2,0.5-0.5v-3C-160,1011.6-160.2,1011.4-160.5,1011.4z M-168,1004.4h6v7h-6V1004.4z
			 M-161,1014.4h-8v-2h8V1014.4z M-167.5,1039.4C-167.5,1039.4-167.5,1039.4-167.5,1039.4c-0.3,0-0.5,0.2-0.5,0.5v2
			c0,0.3,0.2,0.5,0.5,0.5c0.3,0,0.5-0.2,0.5-0.5v-2C-167,1039.6-167.2,1039.4-167.5,1039.4z M-142.5,991.4c-1.4,0-2.6,0.8-3.2,2
			h-29.8c-0.3,0-0.5,0.2-0.5,0.5v6c0,0.3,0.2,0.5,0.5,0.5h1.5v7h-9.5c-0.3,0-0.5,0.2-0.5,0.5v6c0,0.3,0.2,0.5,0.5,0.5h9.5v7h-9.5
			c-0.3,0-0.5,0.2-0.5,0.5v6c0,0.3,0.2,0.5,0.5,0.5h9.5v18.5c0,0.3,0.2,0.5,0.5,0.5h29c0.3,0,0.5-0.2,0.5-0.5v-3.5h4v3.5
			c0,0.3,0.2,0.5,0.5,0.5c0.3,0,0.5-0.2,0.5-0.5v-52C-139,992.9-140.6,991.4-142.5,991.4z M-182,1027.4h-1v-5h1V1027.4z
			 M-180,1027.4h-1v-5h1V1027.4z M-178,1027.4h-1v-5h1V1027.4z M-176,1027.4h-1v-5h1V1027.4z M-174,1027.4h-1v-5h1V1027.4z
			 M-182,1013.4h-1v-5h1V1013.4z M-180,1013.4h-1v-5h1V1013.4z M-178,1013.4h-1v-5h1V1013.4z M-176,1013.4h-1v-5h1V1013.4z
			 M-174,1013.4h-1v-5h1V1013.4z M-148,994.4h2v5h-2V994.4z M-151,994.4h2v5h-2V994.4z M-154,994.4h2v5h-2V994.4z M-157,994.4h2v5
			h-2V994.4z M-160,994.4h2v5h-2V994.4z M-163,994.4h2v5h-2V994.4z M-166,994.4h2v5h-2V994.4z M-169,994.4h2v5h-2V994.4z
			 M-172,994.4h2v5h-2V994.4z M-175,999.4v-5h2v5H-175z M-163,1046.4h-6v-13h6V1046.4z M-145,1046.4h-17v-13.5
			c0-0.3-0.2-0.5-0.5-0.5h-7c-0.3,0-0.5,0.2-0.5,0.5v13.5h-3v-46h28V1046.4z M-145,999.4v-5h2v5H-145z M-140,1042.4h-4v-3h4V1042.4z
			 M-140,1038.4h-4v-3h4V1038.4z M-140,1034.4h-4v-3h4V1034.4z M-140,1030.4h-4v-3h4V1030.4z M-140,1026.4h-4v-3h4V1026.4z
			 M-140,1022.4h-4v-3h4V1022.4z M-140,1018.4h-4v-3h4V1018.4z M-140,1014.4h-4v-3h4V1014.4z M-140,1010.4h-4v-3h4V1010.4z
			 M-140,1006.4h-4v-3h4V1006.4z M-140,1002.4h-4v-2h1.5c0.3,0,0.5-0.2,0.5-0.5v-6c0-0.3-0.2-0.5-0.5-0.5h-2c0.5-0.6,1.2-1,2-1
			c1.4,0,2.5,1.1,2.5,2.5V1002.4z M-157.5,1029.4h9c0.3,0,0.5-0.2,0.5-0.5v-3c0-0.3-0.2-0.5-0.5-0.5h-0.5v-7.5
			c0-0.3-0.2-0.5-0.5-0.5h-7c-0.3,0-0.5,0.2-0.5,0.5v7.5h-0.5c-0.3,0-0.5,0.2-0.5,0.5v3C-158,1029.1-157.8,1029.4-157.5,1029.4z
			 M-156,1018.4h6v7h-6V1018.4z M-157,1026.4h8v2h-8V1026.4z M-157.5,1015.4h9c0.3,0,0.5-0.2,0.5-0.5v-3c0-0.3-0.2-0.5-0.5-0.5h-0.5
			v-7.5c0-0.3-0.2-0.5-0.5-0.5h-7c-0.3,0-0.5,0.2-0.5,0.5v7.5h-0.5c-0.3,0-0.5,0.2-0.5,0.5v3C-158,1015.1-157.8,1015.4-157.5,1015.4
			z M-156,1004.4h6v7h-6V1004.4z M-157,1012.4h8v2h-8V1012.4z M-169.5,1029.4h9c0.3,0,0.5-0.2,0.5-0.5v-3c0-0.3-0.2-0.5-0.5-0.5
			h-0.5v-7.5c0-0.3-0.2-0.5-0.5-0.5h-7c-0.3,0-0.5,0.2-0.5,0.5v7.5h-0.5c-0.3,0-0.5,0.2-0.5,0.5v3
			C-170,1029.1-169.8,1029.4-169.5,1029.4z M-168,1018.4h6v7h-6V1018.4z M-169,1026.4h8v2h-8V1026.4z M-169.5,1015.4h9
			c0.3,0,0.5-0.2,0.5-0.5v-3c0-0.3-0.2-0.5-0.5-0.5h-0.5v-7.5c0-0.3-0.2-0.5-0.5-0.5h-7c-0.3,0-0.5,0.2-0.5,0.5v7.5h-0.5
			c-0.3,0-0.5,0.2-0.5,0.5v3C-170,1015.1-169.8,1015.4-169.5,1015.4z M-168,1004.4h6v7h-6V1004.4z M-169,1012.4h8v2h-8V1012.4z
			 M-167.5,1042.4c0.3,0,0.5-0.2,0.5-0.5v-2c0-0.3-0.2-0.5-0.5-0.5c0,0,0,0,0,0c-0.3,0-0.5,0.2-0.5,0.5v2
			C-168,1042.1-167.8,1042.4-167.5,1042.4z M-167.5,1039.4C-167.5,1039.4-167.5,1039.4-167.5,1039.4c-0.3,0-0.5,0.2-0.5,0.5v2
			c0,0.3,0.2,0.5,0.5,0.5c0.3,0,0.5-0.2,0.5-0.5v-2C-167,1039.6-167.2,1039.4-167.5,1039.4z M-160.5,1011.4h-0.5v-7.5
			c0-0.3-0.2-0.5-0.5-0.5h-7c-0.3,0-0.5,0.2-0.5,0.5v7.5h-0.5c-0.3,0-0.5,0.2-0.5,0.5v3c0,0.3,0.2,0.5,0.5,0.5h9
			c0.3,0,0.5-0.2,0.5-0.5v-3C-160,1011.6-160.2,1011.4-160.5,1011.4z M-168,1004.4h6v7h-6V1004.4z M-161,1014.4h-8v-2h8V1014.4z
			 M-160.5,1025.4h-0.5v-7.5c0-0.3-0.2-0.5-0.5-0.5h-7c-0.3,0-0.5,0.2-0.5,0.5v7.5h-0.5c-0.3,0-0.5,0.2-0.5,0.5v3
			c0,0.3,0.2,0.5,0.5,0.5h9c0.3,0,0.5-0.2,0.5-0.5v-3C-160,1025.6-160.2,1025.4-160.5,1025.4z M-168,1018.4h6v7h-6V1018.4z
			 M-161,1028.4h-8v-2h8V1028.4z M-148.5,1011.4h-0.5v-7.5c0-0.3-0.2-0.5-0.5-0.5h-7c-0.3,0-0.5,0.2-0.5,0.5v7.5h-0.5
			c-0.3,0-0.5,0.2-0.5,0.5v3c0,0.3,0.2,0.5,0.5,0.5h9c0.3,0,0.5-0.2,0.5-0.5v-3C-148,1011.6-148.2,1011.4-148.5,1011.4z
			 M-156,1004.4h6v7h-6V1004.4z M-149,1014.4h-8v-2h8V1014.4z M-148.5,1025.4h-0.5v-7.5c0-0.3-0.2-0.5-0.5-0.5h-7
			c-0.3,0-0.5,0.2-0.5,0.5v7.5h-0.5c-0.3,0-0.5,0.2-0.5,0.5v3c0,0.3,0.2,0.5,0.5,0.5h9c0.3,0,0.5-0.2,0.5-0.5v-3
			C-148,1025.6-148.2,1025.4-148.5,1025.4z M-156,1018.4h6v7h-6V1018.4z M-149,1028.4h-8v-2h8V1028.4z M-148.5,1025.4h-0.5v-7.5
			c0-0.3-0.2-0.5-0.5-0.5h-7c-0.3,0-0.5,0.2-0.5,0.5v7.5h-0.5c-0.3,0-0.5,0.2-0.5,0.5v3c0,0.3,0.2,0.5,0.5,0.5h9
			c0.3,0,0.5-0.2,0.5-0.5v-3C-148,1025.6-148.2,1025.4-148.5,1025.4z M-156,1018.4h6v7h-6V1018.4z M-149,1028.4h-8v-2h8V1028.4z
			 M-148.5,1011.4h-0.5v-7.5c0-0.3-0.2-0.5-0.5-0.5h-7c-0.3,0-0.5,0.2-0.5,0.5v7.5h-0.5c-0.3,0-0.5,0.2-0.5,0.5v3
			c0,0.3,0.2,0.5,0.5,0.5h9c0.3,0,0.5-0.2,0.5-0.5v-3C-148,1011.6-148.2,1011.4-148.5,1011.4z M-156,1004.4h6v7h-6V1004.4z
			 M-149,1014.4h-8v-2h8V1014.4z M-160.5,1025.4h-0.5v-7.5c0-0.3-0.2-0.5-0.5-0.5h-7c-0.3,0-0.5,0.2-0.5,0.5v7.5h-0.5
			c-0.3,0-0.5,0.2-0.5,0.5v3c0,0.3,0.2,0.5,0.5,0.5h9c0.3,0,0.5-0.2,0.5-0.5v-3C-160,1025.6-160.2,1025.4-160.5,1025.4z
			 M-168,1018.4h6v7h-6V1018.4z M-161,1028.4h-8v-2h8V1028.4z M-160.5,1011.4h-0.5v-7.5c0-0.3-0.2-0.5-0.5-0.5h-7
			c-0.3,0-0.5,0.2-0.5,0.5v7.5h-0.5c-0.3,0-0.5,0.2-0.5,0.5v3c0,0.3,0.2,0.5,0.5,0.5h9c0.3,0,0.5-0.2,0.5-0.5v-3
			C-160,1011.6-160.2,1011.4-160.5,1011.4z M-168,1004.4h6v7h-6V1004.4z M-161,1014.4h-8v-2h8V1014.4z M-167.5,1039.4
			C-167.5,1039.4-167.5,1039.4-167.5,1039.4c-0.3,0-0.5,0.2-0.5,0.5v2c0,0.3,0.2,0.5,0.5,0.5c0.3,0,0.5-0.2,0.5-0.5v-2
			C-167,1039.6-167.2,1039.4-167.5,1039.4z M-167.5,1039.4C-167.5,1039.4-167.5,1039.4-167.5,1039.4c-0.3,0-0.5,0.2-0.5,0.5v2
			c0,0.3,0.2,0.5,0.5,0.5c0.3,0,0.5-0.2,0.5-0.5v-2C-167,1039.6-167.2,1039.4-167.5,1039.4z M-160.5,1011.4h-0.5v-7.5
			c0-0.3-0.2-0.5-0.5-0.5h-7c-0.3,0-0.5,0.2-0.5,0.5v7.5h-0.5c-0.3,0-0.5,0.2-0.5,0.5v3c0,0.3,0.2,0.5,0.5,0.5h9
			c0.3,0,0.5-0.2,0.5-0.5v-3C-160,1011.6-160.2,1011.4-160.5,1011.4z M-168,1004.4h6v7h-6V1004.4z M-161,1014.4h-8v-2h8V1014.4z
			 M-160.5,1025.4h-0.5v-7.5c0-0.3-0.2-0.5-0.5-0.5h-7c-0.3,0-0.5,0.2-0.5,0.5v7.5h-0.5c-0.3,0-0.5,0.2-0.5,0.5v3
			c0,0.3,0.2,0.5,0.5,0.5h9c0.3,0,0.5-0.2,0.5-0.5v-3C-160,1025.6-160.2,1025.4-160.5,1025.4z M-168,1018.4h6v7h-6V1018.4z
			 M-161,1028.4h-8v-2h8V1028.4z M-148.5,1011.4h-0.5v-7.5c0-0.3-0.2-0.5-0.5-0.5h-7c-0.3,0-0.5,0.2-0.5,0.5v7.5h-0.5
			c-0.3,0-0.5,0.2-0.5,0.5v3c0,0.3,0.2,0.5,0.5,0.5h9c0.3,0,0.5-0.2,0.5-0.5v-3C-148,1011.6-148.2,1011.4-148.5,1011.4z
			 M-156,1004.4h6v7h-6V1004.4z M-149,1014.4h-8v-2h8V1014.4z M-148.5,1025.4h-0.5v-7.5c0-0.3-0.2-0.5-0.5-0.5h-7
			c-0.3,0-0.5,0.2-0.5,0.5v7.5h-0.5c-0.3,0-0.5,0.2-0.5,0.5v3c0,0.3,0.2,0.5,0.5,0.5h9c0.3,0,0.5-0.2,0.5-0.5v-3
			C-148,1025.6-148.2,1025.4-148.5,1025.4z M-156,1018.4h6v7h-6V1018.4z M-149,1028.4h-8v-2h8V1028.4z M-148.5,1025.4h-0.5v-7.5
			c0-0.3-0.2-0.5-0.5-0.5h-7c-0.3,0-0.5,0.2-0.5,0.5v7.5h-0.5c-0.3,0-0.5,0.2-0.5,0.5v3c0,0.3,0.2,0.5,0.5,0.5h9
			c0.3,0,0.5-0.2,0.5-0.5v-3C-148,1025.6-148.2,1025.4-148.5,1025.4z M-156,1018.4h6v7h-6V1018.4z M-149,1028.4h-8v-2h8V1028.4z
			 M-148.5,1011.4h-0.5v-7.5c0-0.3-0.2-0.5-0.5-0.5h-7c-0.3,0-0.5,0.2-0.5,0.5v7.5h-0.5c-0.3,0-0.5,0.2-0.5,0.5v3
			c0,0.3,0.2,0.5,0.5,0.5h9c0.3,0,0.5-0.2,0.5-0.5v-3C-148,1011.6-148.2,1011.4-148.5,1011.4z M-156,1004.4h6v7h-6V1004.4z
			 M-149,1014.4h-8v-2h8V1014.4z M-160.5,1025.4h-0.5v-7.5c0-0.3-0.2-0.5-0.5-0.5h-7c-0.3,0-0.5,0.2-0.5,0.5v7.5h-0.5
			c-0.3,0-0.5,0.2-0.5,0.5v3c0,0.3,0.2,0.5,0.5,0.5h9c0.3,0,0.5-0.2,0.5-0.5v-3C-160,1025.6-160.2,1025.4-160.5,1025.4z
			 M-168,1018.4h6v7h-6V1018.4z M-161,1028.4h-8v-2h8V1028.4z M-160.5,1011.4h-0.5v-7.5c0-0.3-0.2-0.5-0.5-0.5h-7
			c-0.3,0-0.5,0.2-0.5,0.5v7.5h-0.5c-0.3,0-0.5,0.2-0.5,0.5v3c0,0.3,0.2,0.5,0.5,0.5h9c0.3,0,0.5-0.2,0.5-0.5v-3
			C-160,1011.6-160.2,1011.4-160.5,1011.4z M-168,1004.4h6v7h-6V1004.4z M-161,1014.4h-8v-2h8V1014.4z M-167.5,1039.4
			C-167.5,1039.4-167.5,1039.4-167.5,1039.4c-0.3,0-0.5,0.2-0.5,0.5v2c0,0.3,0.2,0.5,0.5,0.5c0.3,0,0.5-0.2,0.5-0.5v-2
			C-167,1039.6-167.2,1039.4-167.5,1039.4z M-167.5,1039.4C-167.5,1039.4-167.5,1039.4-167.5,1039.4c-0.3,0-0.5,0.2-0.5,0.5v2
			c0,0.3,0.2,0.5,0.5,0.5c0.3,0,0.5-0.2,0.5-0.5v-2C-167,1039.6-167.2,1039.4-167.5,1039.4z M-160.5,1011.4h-0.5v-7.5
			c0-0.3-0.2-0.5-0.5-0.5h-7c-0.3,0-0.5,0.2-0.5,0.5v7.5h-0.5c-0.3,0-0.5,0.2-0.5,0.5v3c0,0.3,0.2,0.5,0.5,0.5h9
			c0.3,0,0.5-0.2,0.5-0.5v-3C-160,1011.6-160.2,1011.4-160.5,1011.4z M-168,1004.4h6v7h-6V1004.4z M-161,1014.4h-8v-2h8V1014.4z
			 M-160.5,1025.4h-0.5v-7.5c0-0.3-0.2-0.5-0.5-0.5h-7c-0.3,0-0.5,0.2-0.5,0.5v7.5h-0.5c-0.3,0-0.5,0.2-0.5,0.5v3
			c0,0.3,0.2,0.5,0.5,0.5h9c0.3,0,0.5-0.2,0.5-0.5v-3C-160,1025.6-160.2,1025.4-160.5,1025.4z M-168,1018.4h6v7h-6V1018.4z
			 M-161,1028.4h-8v-2h8V1028.4z M-148.5,1011.4h-0.5v-7.5c0-0.3-0.2-0.5-0.5-0.5h-7c-0.3,0-0.5,0.2-0.5,0.5v7.5h-0.5
			c-0.3,0-0.5,0.2-0.5,0.5v3c0,0.3,0.2,0.5,0.5,0.5h9c0.3,0,0.5-0.2,0.5-0.5v-3C-148,1011.6-148.2,1011.4-148.5,1011.4z
			 M-156,1004.4h6v7h-6V1004.4z M-149,1014.4h-8v-2h8V1014.4z M-148.5,1025.4h-0.5v-7.5c0-0.3-0.2-0.5-0.5-0.5h-7
			c-0.3,0-0.5,0.2-0.5,0.5v7.5h-0.5c-0.3,0-0.5,0.2-0.5,0.5v3c0,0.3,0.2,0.5,0.5,0.5h9c0.3,0,0.5-0.2,0.5-0.5v-3
			C-148,1025.6-148.2,1025.4-148.5,1025.4z M-156,1018.4h6v7h-6V1018.4z M-149,1028.4h-8v-2h8V1028.4z M-148.5,1025.4h-0.5v-7.5
			c0-0.3-0.2-0.5-0.5-0.5h-7c-0.3,0-0.5,0.2-0.5,0.5v7.5h-0.5c-0.3,0-0.5,0.2-0.5,0.5v3c0,0.3,0.2,0.5,0.5,0.5h9
			c0.3,0,0.5-0.2,0.5-0.5v-3C-148,1025.6-148.2,1025.4-148.5,1025.4z M-156,1018.4h6v7h-6V1018.4z M-149,1028.4h-8v-2h8V1028.4z
			 M-148.5,1011.4h-0.5v-7.5c0-0.3-0.2-0.5-0.5-0.5h-7c-0.3,0-0.5,0.2-0.5,0.5v7.5h-0.5c-0.3,0-0.5,0.2-0.5,0.5v3
			c0,0.3,0.2,0.5,0.5,0.5h9c0.3,0,0.5-0.2,0.5-0.5v-3C-148,1011.6-148.2,1011.4-148.5,1011.4z M-156,1004.4h6v7h-6V1004.4z
			 M-149,1014.4h-8v-2h8V1014.4z M-160.5,1025.4h-0.5v-7.5c0-0.3-0.2-0.5-0.5-0.5h-7c-0.3,0-0.5,0.2-0.5,0.5v7.5h-0.5
			c-0.3,0-0.5,0.2-0.5,0.5v3c0,0.3,0.2,0.5,0.5,0.5h9c0.3,0,0.5-0.2,0.5-0.5v-3C-160,1025.6-160.2,1025.4-160.5,1025.4z
			 M-168,1018.4h6v7h-6V1018.4z M-161,1028.4h-8v-2h8V1028.4z M-160.5,1011.4h-0.5v-7.5c0-0.3-0.2-0.5-0.5-0.5h-7
			c-0.3,0-0.5,0.2-0.5,0.5v7.5h-0.5c-0.3,0-0.5,0.2-0.5,0.5v3c0,0.3,0.2,0.5,0.5,0.5h9c0.3,0,0.5-0.2,0.5-0.5v-3
			C-160,1011.6-160.2,1011.4-160.5,1011.4z M-168,1004.4h6v7h-6V1004.4z M-161,1014.4h-8v-2h8V1014.4z M-167.5,1039.4
			C-167.5,1039.4-167.5,1039.4-167.5,1039.4c-0.3,0-0.5,0.2-0.5,0.5v2c0,0.3,0.2,0.5,0.5,0.5c0.3,0,0.5-0.2,0.5-0.5v-2
			C-167,1039.6-167.2,1039.4-167.5,1039.4z M-167.5,1039.4C-167.5,1039.4-167.5,1039.4-167.5,1039.4c-0.3,0-0.5,0.2-0.5,0.5v2
			c0,0.3,0.2,0.5,0.5,0.5c0.3,0,0.5-0.2,0.5-0.5v-2C-167,1039.6-167.2,1039.4-167.5,1039.4z M-160.5,1011.4h-0.5v-7.5
			c0-0.3-0.2-0.5-0.5-0.5h-7c-0.3,0-0.5,0.2-0.5,0.5v7.5h-0.5c-0.3,0-0.5,0.2-0.5,0.5v3c0,0.3,0.2,0.5,0.5,0.5h9
			c0.3,0,0.5-0.2,0.5-0.5v-3C-160,1011.6-160.2,1011.4-160.5,1011.4z M-168,1004.4h6v7h-6V1004.4z M-161,1014.4h-8v-2h8V1014.4z
			 M-160.5,1025.4h-0.5v-7.5c0-0.3-0.2-0.5-0.5-0.5h-7c-0.3,0-0.5,0.2-0.5,0.5v7.5h-0.5c-0.3,0-0.5,0.2-0.5,0.5v3
			c0,0.3,0.2,0.5,0.5,0.5h9c0.3,0,0.5-0.2,0.5-0.5v-3C-160,1025.6-160.2,1025.4-160.5,1025.4z M-168,1018.4h6v7h-6V1018.4z
			 M-161,1028.4h-8v-2h8V1028.4z M-148.5,1011.4h-0.5v-7.5c0-0.3-0.2-0.5-0.5-0.5h-7c-0.3,0-0.5,0.2-0.5,0.5v7.5h-0.5
			c-0.3,0-0.5,0.2-0.5,0.5v3c0,0.3,0.2,0.5,0.5,0.5h9c0.3,0,0.5-0.2,0.5-0.5v-3C-148,1011.6-148.2,1011.4-148.5,1011.4z
			 M-156,1004.4h6v7h-6V1004.4z M-149,1014.4h-8v-2h8V1014.4z M-148.5,1025.4h-0.5v-7.5c0-0.3-0.2-0.5-0.5-0.5h-7
			c-0.3,0-0.5,0.2-0.5,0.5v7.5h-0.5c-0.3,0-0.5,0.2-0.5,0.5v3c0,0.3,0.2,0.5,0.5,0.5h9c0.3,0,0.5-0.2,0.5-0.5v-3
			C-148,1025.6-148.2,1025.4-148.5,1025.4z M-156,1018.4h6v7h-6V1018.4z M-149,1028.4h-8v-2h8V1028.4z M-148.5,1025.4h-0.5v-7.5
			c0-0.3-0.2-0.5-0.5-0.5h-7c-0.3,0-0.5,0.2-0.5,0.5v7.5h-0.5c-0.3,0-0.5,0.2-0.5,0.5v3c0,0.3,0.2,0.5,0.5,0.5h9
			c0.3,0,0.5-0.2,0.5-0.5v-3C-148,1025.6-148.2,1025.4-148.5,1025.4z M-156,1018.4h6v7h-6V1018.4z M-149,1028.4h-8v-2h8V1028.4z
			 M-148.5,1011.4h-0.5v-7.5c0-0.3-0.2-0.5-0.5-0.5h-7c-0.3,0-0.5,0.2-0.5,0.5v7.5h-0.5c-0.3,0-0.5,0.2-0.5,0.5v3
			c0,0.3,0.2,0.5,0.5,0.5h9c0.3,0,0.5-0.2,0.5-0.5v-3C-148,1011.6-148.2,1011.4-148.5,1011.4z M-156,1004.4h6v7h-6V1004.4z
			 M-149,1014.4h-8v-2h8V1014.4z M-160.5,1025.4h-0.5v-7.5c0-0.3-0.2-0.5-0.5-0.5h-7c-0.3,0-0.5,0.2-0.5,0.5v7.5h-0.5
			c-0.3,0-0.5,0.2-0.5,0.5v3c0,0.3,0.2,0.5,0.5,0.5h9c0.3,0,0.5-0.2,0.5-0.5v-3C-160,1025.6-160.2,1025.4-160.5,1025.4z
			 M-168,1018.4h6v7h-6V1018.4z M-161,1028.4h-8v-2h8V1028.4z M-160.5,1011.4h-0.5v-7.5c0-0.3-0.2-0.5-0.5-0.5h-7
			c-0.3,0-0.5,0.2-0.5,0.5v7.5h-0.5c-0.3,0-0.5,0.2-0.5,0.5v3c0,0.3,0.2,0.5,0.5,0.5h9c0.3,0,0.5-0.2,0.5-0.5v-3
			C-160,1011.6-160.2,1011.4-160.5,1011.4z M-168,1004.4h6v7h-6V1004.4z M-161,1014.4h-8v-2h8V1014.4z M-167.5,1039.4
			C-167.5,1039.4-167.5,1039.4-167.5,1039.4c-0.3,0-0.5,0.2-0.5,0.5v2c0,0.3,0.2,0.5,0.5,0.5c0.3,0,0.5-0.2,0.5-0.5v-2
			C-167,1039.6-167.2,1039.4-167.5,1039.4z M-167.5,1039.4C-167.5,1039.4-167.5,1039.4-167.5,1039.4c-0.3,0-0.5,0.2-0.5,0.5v2
			c0,0.3,0.2,0.5,0.5,0.5c0.3,0,0.5-0.2,0.5-0.5v-2C-167,1039.6-167.2,1039.4-167.5,1039.4z M-160.5,1011.4h-0.5v-7.5
			c0-0.3-0.2-0.5-0.5-0.5h-7c-0.3,0-0.5,0.2-0.5,0.5v7.5h-0.5c-0.3,0-0.5,0.2-0.5,0.5v3c0,0.3,0.2,0.5,0.5,0.5h9
			c0.3,0,0.5-0.2,0.5-0.5v-3C-160,1011.6-160.2,1011.4-160.5,1011.4z M-168,1004.4h6v7h-6V1004.4z M-161,1014.4h-8v-2h8V1014.4z
			 M-160.5,1025.4h-0.5v-7.5c0-0.3-0.2-0.5-0.5-0.5h-7c-0.3,0-0.5,0.2-0.5,0.5v7.5h-0.5c-0.3,0-0.5,0.2-0.5,0.5v3
			c0,0.3,0.2,0.5,0.5,0.5h9c0.3,0,0.5-0.2,0.5-0.5v-3C-160,1025.6-160.2,1025.4-160.5,1025.4z M-168,1018.4h6v7h-6V1018.4z
			 M-161,1028.4h-8v-2h8V1028.4z M-148.5,1011.4h-0.5v-7.5c0-0.3-0.2-0.5-0.5-0.5h-7c-0.3,0-0.5,0.2-0.5,0.5v7.5h-0.5
			c-0.3,0-0.5,0.2-0.5,0.5v3c0,0.3,0.2,0.5,0.5,0.5h9c0.3,0,0.5-0.2,0.5-0.5v-3C-148,1011.6-148.2,1011.4-148.5,1011.4z
			 M-156,1004.4h6v7h-6V1004.4z M-149,1014.4h-8v-2h8V1014.4z M-148.5,1025.4h-0.5v-7.5c0-0.3-0.2-0.5-0.5-0.5h-7
			c-0.3,0-0.5,0.2-0.5,0.5v7.5h-0.5c-0.3,0-0.5,0.2-0.5,0.5v3c0,0.3,0.2,0.5,0.5,0.5h9c0.3,0,0.5-0.2,0.5-0.5v-3
			C-148,1025.6-148.2,1025.4-148.5,1025.4z M-156,1018.4h6v7h-6V1018.4z M-149,1028.4h-8v-2h8V1028.4z M-148.5,1025.4h-0.5v-7.5
			c0-0.3-0.2-0.5-0.5-0.5h-7c-0.3,0-0.5,0.2-0.5,0.5v7.5h-0.5c-0.3,0-0.5,0.2-0.5,0.5v3c0,0.3,0.2,0.5,0.5,0.5h9
			c0.3,0,0.5-0.2,0.5-0.5v-3C-148,1025.6-148.2,1025.4-148.5,1025.4z M-156,1018.4h6v7h-6V1018.4z M-149,1028.4h-8v-2h8V1028.4z
			 M-148.5,1011.4h-0.5v-7.5c0-0.3-0.2-0.5-0.5-0.5h-7c-0.3,0-0.5,0.2-0.5,0.5v7.5h-0.5c-0.3,0-0.5,0.2-0.5,0.5v3
			c0,0.3,0.2,0.5,0.5,0.5h9c0.3,0,0.5-0.2,0.5-0.5v-3C-148,1011.6-148.2,1011.4-148.5,1011.4z M-156,1004.4h6v7h-6V1004.4z
			 M-149,1014.4h-8v-2h8V1014.4z M-160.5,1025.4h-0.5v-7.5c0-0.3-0.2-0.5-0.5-0.5h-7c-0.3,0-0.5,0.2-0.5,0.5v7.5h-0.5
			c-0.3,0-0.5,0.2-0.5,0.5v3c0,0.3,0.2,0.5,0.5,0.5h9c0.3,0,0.5-0.2,0.5-0.5v-3C-160,1025.6-160.2,1025.4-160.5,1025.4z
			 M-168,1018.4h6v7h-6V1018.4z M-161,1028.4h-8v-2h8V1028.4z M-160.5,1011.4h-0.5v-7.5c0-0.3-0.2-0.5-0.5-0.5h-7
			c-0.3,0-0.5,0.2-0.5,0.5v7.5h-0.5c-0.3,0-0.5,0.2-0.5,0.5v3c0,0.3,0.2,0.5,0.5,0.5h9c0.3,0,0.5-0.2,0.5-0.5v-3
			C-160,1011.6-160.2,1011.4-160.5,1011.4z M-168,1004.4h6v7h-6V1004.4z M-161,1014.4h-8v-2h8V1014.4z M-167.5,1039.4
			C-167.5,1039.4-167.5,1039.4-167.5,1039.4c-0.3,0-0.5,0.2-0.5,0.5v2c0,0.3,0.2,0.5,0.5,0.5c0.3,0,0.5-0.2,0.5-0.5v-2
			C-167,1039.6-167.2,1039.4-167.5,1039.4z M-167.5,1039.4C-167.5,1039.4-167.5,1039.4-167.5,1039.4c-0.3,0-0.5,0.2-0.5,0.5v2
			c0,0.3,0.2,0.5,0.5,0.5c0.3,0,0.5-0.2,0.5-0.5v-2C-167,1039.6-167.2,1039.4-167.5,1039.4z M-160.5,1011.4h-0.5v-7.5
			c0-0.3-0.2-0.5-0.5-0.5h-7c-0.3,0-0.5,0.2-0.5,0.5v7.5h-0.5c-0.3,0-0.5,0.2-0.5,0.5v3c0,0.3,0.2,0.5,0.5,0.5h9
			c0.3,0,0.5-0.2,0.5-0.5v-3C-160,1011.6-160.2,1011.4-160.5,1011.4z M-168,1004.4h6v7h-6V1004.4z M-161,1014.4h-8v-2h8V1014.4z
			 M-160.5,1025.4h-0.5v-7.5c0-0.3-0.2-0.5-0.5-0.5h-7c-0.3,0-0.5,0.2-0.5,0.5v7.5h-0.5c-0.3,0-0.5,0.2-0.5,0.5v3
			c0,0.3,0.2,0.5,0.5,0.5h9c0.3,0,0.5-0.2,0.5-0.5v-3C-160,1025.6-160.2,1025.4-160.5,1025.4z M-168,1018.4h6v7h-6V1018.4z
			 M-161,1028.4h-8v-2h8V1028.4z M-148.5,1011.4h-0.5v-7.5c0-0.3-0.2-0.5-0.5-0.5h-7c-0.3,0-0.5,0.2-0.5,0.5v7.5h-0.5
			c-0.3,0-0.5,0.2-0.5,0.5v3c0,0.3,0.2,0.5,0.5,0.5h9c0.3,0,0.5-0.2,0.5-0.5v-3C-148,1011.6-148.2,1011.4-148.5,1011.4z
			 M-156,1004.4h6v7h-6V1004.4z M-149,1014.4h-8v-2h8V1014.4z M-148.5,1025.4h-0.5v-7.5c0-0.3-0.2-0.5-0.5-0.5h-7
			c-0.3,0-0.5,0.2-0.5,0.5v7.5h-0.5c-0.3,0-0.5,0.2-0.5,0.5v3c0,0.3,0.2,0.5,0.5,0.5h9c0.3,0,0.5-0.2,0.5-0.5v-3
			C-148,1025.6-148.2,1025.4-148.5,1025.4z M-156,1018.4h6v7h-6V1018.4z M-149,1028.4h-8v-2h8V1028.4z M-148.5,1025.4h-0.5v-7.5
			c0-0.3-0.2-0.5-0.5-0.5h-7c-0.3,0-0.5,0.2-0.5,0.5v7.5h-0.5c-0.3,0-0.5,0.2-0.5,0.5v3c0,0.3,0.2,0.5,0.5,0.5h9
			c0.3,0,0.5-0.2,0.5-0.5v-3C-148,1025.6-148.2,1025.4-148.5,1025.4z M-156,1018.4h6v7h-6V1018.4z M-149,1028.4h-8v-2h8V1028.4z
			 M-148.5,1011.4h-0.5v-7.5c0-0.3-0.2-0.5-0.5-0.5h-7c-0.3,0-0.5,0.2-0.5,0.5v7.5h-0.5c-0.3,0-0.5,0.2-0.5,0.5v3
			c0,0.3,0.2,0.5,0.5,0.5h9c0.3,0,0.5-0.2,0.5-0.5v-3C-148,1011.6-148.2,1011.4-148.5,1011.4z M-156,1004.4h6v7h-6V1004.4z
			 M-149,1014.4h-8v-2h8V1014.4z M-160.5,1025.4h-0.5v-7.5c0-0.3-0.2-0.5-0.5-0.5h-7c-0.3,0-0.5,0.2-0.5,0.5v7.5h-0.5
			c-0.3,0-0.5,0.2-0.5,0.5v3c0,0.3,0.2,0.5,0.5,0.5h9c0.3,0,0.5-0.2,0.5-0.5v-3C-160,1025.6-160.2,1025.4-160.5,1025.4z
			 M-168,1018.4h6v7h-6V1018.4z M-161,1028.4h-8v-2h8V1028.4z M-160.5,1011.4h-0.5v-7.5c0-0.3-0.2-0.5-0.5-0.5h-7
			c-0.3,0-0.5,0.2-0.5,0.5v7.5h-0.5c-0.3,0-0.5,0.2-0.5,0.5v3c0,0.3,0.2,0.5,0.5,0.5h9c0.3,0,0.5-0.2,0.5-0.5v-3
			C-160,1011.6-160.2,1011.4-160.5,1011.4z M-168,1004.4h6v7h-6V1004.4z M-161,1014.4h-8v-2h8V1014.4z M-167.5,1039.4
			C-167.5,1039.4-167.5,1039.4-167.5,1039.4c-0.3,0-0.5,0.2-0.5,0.5v2c0,0.3,0.2,0.5,0.5,0.5c0.3,0,0.5-0.2,0.5-0.5v-2
			C-167,1039.6-167.2,1039.4-167.5,1039.4z M-167.5,1039.4C-167.5,1039.4-167.5,1039.4-167.5,1039.4c-0.3,0-0.5,0.2-0.5,0.5v2
			c0,0.3,0.2,0.5,0.5,0.5c0.3,0,0.5-0.2,0.5-0.5v-2C-167,1039.6-167.2,1039.4-167.5,1039.4z M-160.5,1011.4h-0.5v-7.5
			c0-0.3-0.2-0.5-0.5-0.5h-7c-0.3,0-0.5,0.2-0.5,0.5v7.5h-0.5c-0.3,0-0.5,0.2-0.5,0.5v3c0,0.3,0.2,0.5,0.5,0.5h9
			c0.3,0,0.5-0.2,0.5-0.5v-3C-160,1011.6-160.2,1011.4-160.5,1011.4z M-168,1004.4h6v7h-6V1004.4z M-161,1014.4h-8v-2h8V1014.4z
			 M-160.5,1025.4h-0.5v-7.5c0-0.3-0.2-0.5-0.5-0.5h-7c-0.3,0-0.5,0.2-0.5,0.5v7.5h-0.5c-0.3,0-0.5,0.2-0.5,0.5v3
			c0,0.3,0.2,0.5,0.5,0.5h9c0.3,0,0.5-0.2,0.5-0.5v-3C-160,1025.6-160.2,1025.4-160.5,1025.4z M-168,1018.4h6v7h-6V1018.4z
			 M-161,1028.4h-8v-2h8V1028.4z M-148.5,1011.4h-0.5v-7.5c0-0.3-0.2-0.5-0.5-0.5h-7c-0.3,0-0.5,0.2-0.5,0.5v7.5h-0.5
			c-0.3,0-0.5,0.2-0.5,0.5v3c0,0.3,0.2,0.5,0.5,0.5h9c0.3,0,0.5-0.2,0.5-0.5v-3C-148,1011.6-148.2,1011.4-148.5,1011.4z
			 M-156,1004.4h6v7h-6V1004.4z M-149,1014.4h-8v-2h8V1014.4z M-148.5,1025.4h-0.5v-7.5c0-0.3-0.2-0.5-0.5-0.5h-7
			c-0.3,0-0.5,0.2-0.5,0.5v7.5h-0.5c-0.3,0-0.5,0.2-0.5,0.5v3c0,0.3,0.2,0.5,0.5,0.5h9c0.3,0,0.5-0.2,0.5-0.5v-3
			C-148,1025.6-148.2,1025.4-148.5,1025.4z M-156,1018.4h6v7h-6V1018.4z M-149,1028.4h-8v-2h8V1028.4z M-148.5,1025.4h-0.5v-7.5
			c0-0.3-0.2-0.5-0.5-0.5h-7c-0.3,0-0.5,0.2-0.5,0.5v7.5h-0.5c-0.3,0-0.5,0.2-0.5,0.5v3c0,0.3,0.2,0.5,0.5,0.5h9
			c0.3,0,0.5-0.2,0.5-0.5v-3C-148,1025.6-148.2,1025.4-148.5,1025.4z M-156,1018.4h6v7h-6V1018.4z M-149,1028.4h-8v-2h8V1028.4z
			 M-148.5,1011.4h-0.5v-7.5c0-0.3-0.2-0.5-0.5-0.5h-7c-0.3,0-0.5,0.2-0.5,0.5v7.5h-0.5c-0.3,0-0.5,0.2-0.5,0.5v3
			c0,0.3,0.2,0.5,0.5,0.5h9c0.3,0,0.5-0.2,0.5-0.5v-3C-148,1011.6-148.2,1011.4-148.5,1011.4z M-156,1004.4h6v7h-6V1004.4z
			 M-149,1014.4h-8v-2h8V1014.4z M-160.5,1025.4h-0.5v-7.5c0-0.3-0.2-0.5-0.5-0.5h-7c-0.3,0-0.5,0.2-0.5,0.5v7.5h-0.5
			c-0.3,0-0.5,0.2-0.5,0.5v3c0,0.3,0.2,0.5,0.5,0.5h9c0.3,0,0.5-0.2,0.5-0.5v-3C-160,1025.6-160.2,1025.4-160.5,1025.4z
			 M-168,1018.4h6v7h-6V1018.4z M-161,1028.4h-8v-2h8V1028.4z M-160.5,1011.4h-0.5v-7.5c0-0.3-0.2-0.5-0.5-0.5h-7
			c-0.3,0-0.5,0.2-0.5,0.5v7.5h-0.5c-0.3,0-0.5,0.2-0.5,0.5v3c0,0.3,0.2,0.5,0.5,0.5h9c0.3,0,0.5-0.2,0.5-0.5v-3
			C-160,1011.6-160.2,1011.4-160.5,1011.4z M-168,1004.4h6v7h-6V1004.4z M-161,1014.4h-8v-2h8V1014.4z M-167.5,1039.4
			C-167.5,1039.4-167.5,1039.4-167.5,1039.4c-0.3,0-0.5,0.2-0.5,0.5v2c0,0.3,0.2,0.5,0.5,0.5c0.3,0,0.5-0.2,0.5-0.5v-2
			C-167,1039.6-167.2,1039.4-167.5,1039.4z M-167.5,1039.4C-167.5,1039.4-167.5,1039.4-167.5,1039.4c-0.3,0-0.5,0.2-0.5,0.5v2
			c0,0.3,0.2,0.5,0.5,0.5c0.3,0,0.5-0.2,0.5-0.5v-2C-167,1039.6-167.2,1039.4-167.5,1039.4z M-160.5,1011.4h-0.5v-7.5
			c0-0.3-0.2-0.5-0.5-0.5h-7c-0.3,0-0.5,0.2-0.5,0.5v7.5h-0.5c-0.3,0-0.5,0.2-0.5,0.5v3c0,0.3,0.2,0.5,0.5,0.5h9
			c0.3,0,0.5-0.2,0.5-0.5v-3C-160,1011.6-160.2,1011.4-160.5,1011.4z M-168,1004.4h6v7h-6V1004.4z M-161,1014.4h-8v-2h8V1014.4z
			 M-160.5,1025.4h-0.5v-7.5c0-0.3-0.2-0.5-0.5-0.5h-7c-0.3,0-0.5,0.2-0.5,0.5v7.5h-0.5c-0.3,0-0.5,0.2-0.5,0.5v3
			c0,0.3,0.2,0.5,0.5,0.5h9c0.3,0,0.5-0.2,0.5-0.5v-3C-160,1025.6-160.2,1025.4-160.5,1025.4z M-168,1018.4h6v7h-6V1018.4z
			 M-161,1028.4h-8v-2h8V1028.4z M-148.5,1011.4h-0.5v-7.5c0-0.3-0.2-0.5-0.5-0.5h-7c-0.3,0-0.5,0.2-0.5,0.5v7.5h-0.5
			c-0.3,0-0.5,0.2-0.5,0.5v3c0,0.3,0.2,0.5,0.5,0.5h9c0.3,0,0.5-0.2,0.5-0.5v-3C-148,1011.6-148.2,1011.4-148.5,1011.4z
			 M-156,1004.4h6v7h-6V1004.4z M-149,1014.4h-8v-2h8V1014.4z M-148.5,1025.4h-0.5v-7.5c0-0.3-0.2-0.5-0.5-0.5h-7
			c-0.3,0-0.5,0.2-0.5,0.5v7.5h-0.5c-0.3,0-0.5,0.2-0.5,0.5v3c0,0.3,0.2,0.5,0.5,0.5h9c0.3,0,0.5-0.2,0.5-0.5v-3
			C-148,1025.6-148.2,1025.4-148.5,1025.4z M-156,1018.4h6v7h-6V1018.4z M-149,1028.4h-8v-2h8V1028.4z M-148.5,1025.4h-0.5v-7.5
			c0-0.3-0.2-0.5-0.5-0.5h-7c-0.3,0-0.5,0.2-0.5,0.5v7.5h-0.5c-0.3,0-0.5,0.2-0.5,0.5v3c0,0.3,0.2,0.5,0.5,0.5h9
			c0.3,0,0.5-0.2,0.5-0.5v-3C-148,1025.6-148.2,1025.4-148.5,1025.4z M-156,1018.4h6v7h-6V1018.4z M-149,1028.4h-8v-2h8V1028.4z
			 M-148.5,1011.4h-0.5v-7.5c0-0.3-0.2-0.5-0.5-0.5h-7c-0.3,0-0.5,0.2-0.5,0.5v7.5h-0.5c-0.3,0-0.5,0.2-0.5,0.5v3
			c0,0.3,0.2,0.5,0.5,0.5h9c0.3,0,0.5-0.2,0.5-0.5v-3C-148,1011.6-148.2,1011.4-148.5,1011.4z M-156,1004.4h6v7h-6V1004.4z
			 M-149,1014.4h-8v-2h8V1014.4z M-160.5,1025.4h-0.5v-7.5c0-0.3-0.2-0.5-0.5-0.5h-7c-0.3,0-0.5,0.2-0.5,0.5v7.5h-0.5
			c-0.3,0-0.5,0.2-0.5,0.5v3c0,0.3,0.2,0.5,0.5,0.5h9c0.3,0,0.5-0.2,0.5-0.5v-3C-160,1025.6-160.2,1025.4-160.5,1025.4z
			 M-168,1018.4h6v7h-6V1018.4z M-161,1028.4h-8v-2h8V1028.4z M-160.5,1011.4h-0.5v-7.5c0-0.3-0.2-0.5-0.5-0.5h-7
			c-0.3,0-0.5,0.2-0.5,0.5v7.5h-0.5c-0.3,0-0.5,0.2-0.5,0.5v3c0,0.3,0.2,0.5,0.5,0.5h9c0.3,0,0.5-0.2,0.5-0.5v-3
			C-160,1011.6-160.2,1011.4-160.5,1011.4z M-168,1004.4h6v7h-6V1004.4z M-161,1014.4h-8v-2h8V1014.4z M-167.5,1039.4
			C-167.5,1039.4-167.5,1039.4-167.5,1039.4c-0.3,0-0.5,0.2-0.5,0.5v2c0,0.3,0.2,0.5,0.5,0.5c0.3,0,0.5-0.2,0.5-0.5v-2
			C-167,1039.6-167.2,1039.4-167.5,1039.4z M-167.5,1039.4C-167.5,1039.4-167.5,1039.4-167.5,1039.4c-0.3,0-0.5,0.2-0.5,0.5v2
			c0,0.3,0.2,0.5,0.5,0.5c0.3,0,0.5-0.2,0.5-0.5v-2C-167,1039.6-167.2,1039.4-167.5,1039.4z M-160.5,1011.4h-0.5v-7.5
			c0-0.3-0.2-0.5-0.5-0.5h-7c-0.3,0-0.5,0.2-0.5,0.5v7.5h-0.5c-0.3,0-0.5,0.2-0.5,0.5v3c0,0.3,0.2,0.5,0.5,0.5h9
			c0.3,0,0.5-0.2,0.5-0.5v-3C-160,1011.6-160.2,1011.4-160.5,1011.4z M-168,1004.4h6v7h-6V1004.4z M-161,1014.4h-8v-2h8V1014.4z
			 M-160.5,1025.4h-0.5v-7.5c0-0.3-0.2-0.5-0.5-0.5h-7c-0.3,0-0.5,0.2-0.5,0.5v7.5h-0.5c-0.3,0-0.5,0.2-0.5,0.5v3
			c0,0.3,0.2,0.5,0.5,0.5h9c0.3,0,0.5-0.2,0.5-0.5v-3C-160,1025.6-160.2,1025.4-160.5,1025.4z M-168,1018.4h6v7h-6V1018.4z
			 M-161,1028.4h-8v-2h8V1028.4z M-148.5,1011.4h-0.5v-7.5c0-0.3-0.2-0.5-0.5-0.5h-7c-0.3,0-0.5,0.2-0.5,0.5v7.5h-0.5
			c-0.3,0-0.5,0.2-0.5,0.5v3c0,0.3,0.2,0.5,0.5,0.5h9c0.3,0,0.5-0.2,0.5-0.5v-3C-148,1011.6-148.2,1011.4-148.5,1011.4z
			 M-156,1004.4h6v7h-6V1004.4z M-149,1014.4h-8v-2h8V1014.4z M-148.5,1025.4h-0.5v-7.5c0-0.3-0.2-0.5-0.5-0.5h-7
			c-0.3,0-0.5,0.2-0.5,0.5v7.5h-0.5c-0.3,0-0.5,0.2-0.5,0.5v3c0,0.3,0.2,0.5,0.5,0.5h9c0.3,0,0.5-0.2,0.5-0.5v-3
			C-148,1025.6-148.2,1025.4-148.5,1025.4z M-156,1018.4h6v7h-6V1018.4z M-149,1028.4h-8v-2h8V1028.4z M-148.5,1025.4h-0.5v-7.5
			c0-0.3-0.2-0.5-0.5-0.5h-7c-0.3,0-0.5,0.2-0.5,0.5v7.5h-0.5c-0.3,0-0.5,0.2-0.5,0.5v3c0,0.3,0.2,0.5,0.5,0.5h9
			c0.3,0,0.5-0.2,0.5-0.5v-3C-148,1025.6-148.2,1025.4-148.5,1025.4z M-156,1018.4h6v7h-6V1018.4z M-149,1028.4h-8v-2h8V1028.4z
			 M-148.5,1011.4h-0.5v-7.5c0-0.3-0.2-0.5-0.5-0.5h-7c-0.3,0-0.5,0.2-0.5,0.5v7.5h-0.5c-0.3,0-0.5,0.2-0.5,0.5v3
			c0,0.3,0.2,0.5,0.5,0.5h9c0.3,0,0.5-0.2,0.5-0.5v-3C-148,1011.6-148.2,1011.4-148.5,1011.4z M-156,1004.4h6v7h-6V1004.4z
			 M-149,1014.4h-8v-2h8V1014.4z M-160.5,1025.4h-0.5v-7.5c0-0.3-0.2-0.5-0.5-0.5h-7c-0.3,0-0.5,0.2-0.5,0.5v7.5h-0.5
			c-0.3,0-0.5,0.2-0.5,0.5v3c0,0.3,0.2,0.5,0.5,0.5h9c0.3,0,0.5-0.2,0.5-0.5v-3C-160,1025.6-160.2,1025.4-160.5,1025.4z
			 M-168,1018.4h6v7h-6V1018.4z M-161,1028.4h-8v-2h8V1028.4z M-160.5,1011.4h-0.5v-7.5c0-0.3-0.2-0.5-0.5-0.5h-7
			c-0.3,0-0.5,0.2-0.5,0.5v7.5h-0.5c-0.3,0-0.5,0.2-0.5,0.5v3c0,0.3,0.2,0.5,0.5,0.5h9c0.3,0,0.5-0.2,0.5-0.5v-3
			C-160,1011.6-160.2,1011.4-160.5,1011.4z M-168,1004.4h6v7h-6V1004.4z M-161,1014.4h-8v-2h8V1014.4z M-167.5,1039.4
			C-167.5,1039.4-167.5,1039.4-167.5,1039.4c-0.3,0-0.5,0.2-0.5,0.5v2c0,0.3,0.2,0.5,0.5,0.5c0.3,0,0.5-0.2,0.5-0.5v-2
			C-167,1039.6-167.2,1039.4-167.5,1039.4z M-167.5,1039.4C-167.5,1039.4-167.5,1039.4-167.5,1039.4c-0.3,0-0.5,0.2-0.5,0.5v2
			c0,0.3,0.2,0.5,0.5,0.5c0.3,0,0.5-0.2,0.5-0.5v-2C-167,1039.6-167.2,1039.4-167.5,1039.4z M-160.5,1011.4h-0.5v-7.5
			c0-0.3-0.2-0.5-0.5-0.5h-7c-0.3,0-0.5,0.2-0.5,0.5v7.5h-0.5c-0.3,0-0.5,0.2-0.5,0.5v3c0,0.3,0.2,0.5,0.5,0.5h9
			c0.3,0,0.5-0.2,0.5-0.5v-3C-160,1011.6-160.2,1011.4-160.5,1011.4z M-168,1004.4h6v7h-6V1004.4z M-161,1014.4h-8v-2h8V1014.4z
			 M-160.5,1025.4h-0.5v-7.5c0-0.3-0.2-0.5-0.5-0.5h-7c-0.3,0-0.5,0.2-0.5,0.5v7.5h-0.5c-0.3,0-0.5,0.2-0.5,0.5v3
			c0,0.3,0.2,0.5,0.5,0.5h9c0.3,0,0.5-0.2,0.5-0.5v-3C-160,1025.6-160.2,1025.4-160.5,1025.4z M-168,1018.4h6v7h-6V1018.4z
			 M-161,1028.4h-8v-2h8V1028.4z M-148.5,1011.4h-0.5v-7.5c0-0.3-0.2-0.5-0.5-0.5h-7c-0.3,0-0.5,0.2-0.5,0.5v7.5h-0.5
			c-0.3,0-0.5,0.2-0.5,0.5v3c0,0.3,0.2,0.5,0.5,0.5h9c0.3,0,0.5-0.2,0.5-0.5v-3C-148,1011.6-148.2,1011.4-148.5,1011.4z
			 M-156,1004.4h6v7h-6V1004.4z M-149,1014.4h-8v-2h8V1014.4z M-148.5,1025.4h-0.5v-7.5c0-0.3-0.2-0.5-0.5-0.5h-7
			c-0.3,0-0.5,0.2-0.5,0.5v7.5h-0.5c-0.3,0-0.5,0.2-0.5,0.5v3c0,0.3,0.2,0.5,0.5,0.5h9c0.3,0,0.5-0.2,0.5-0.5v-3
			C-148,1025.6-148.2,1025.4-148.5,1025.4z M-156,1018.4h6v7h-6V1018.4z M-149,1028.4h-8v-2h8V1028.4z M-148.5,1025.4h-0.5v-7.5
			c0-0.3-0.2-0.5-0.5-0.5h-7c-0.3,0-0.5,0.2-0.5,0.5v7.5h-0.5c-0.3,0-0.5,0.2-0.5,0.5v3c0,0.3,0.2,0.5,0.5,0.5h9
			c0.3,0,0.5-0.2,0.5-0.5v-3C-148,1025.6-148.2,1025.4-148.5,1025.4z M-156,1018.4h6v7h-6V1018.4z M-149,1028.4h-8v-2h8V1028.4z
			 M-148.5,1011.4h-0.5v-7.5c0-0.3-0.2-0.5-0.5-0.5h-7c-0.3,0-0.5,0.2-0.5,0.5v7.5h-0.5c-0.3,0-0.5,0.2-0.5,0.5v3
			c0,0.3,0.2,0.5,0.5,0.5h9c0.3,0,0.5-0.2,0.5-0.5v-3C-148,1011.6-148.2,1011.4-148.5,1011.4z M-156,1004.4h6v7h-6V1004.4z
			 M-149,1014.4h-8v-2h8V1014.4z M-160.5,1025.4h-0.5v-7.5c0-0.3-0.2-0.5-0.5-0.5h-7c-0.3,0-0.5,0.2-0.5,0.5v7.5h-0.5
			c-0.3,0-0.5,0.2-0.5,0.5v3c0,0.3,0.2,0.5,0.5,0.5h9c0.3,0,0.5-0.2,0.5-0.5v-3C-160,1025.6-160.2,1025.4-160.5,1025.4z
			 M-168,1018.4h6v7h-6V1018.4z M-161,1028.4h-8v-2h8V1028.4z M-160.5,1011.4h-0.5v-7.5c0-0.3-0.2-0.5-0.5-0.5h-7
			c-0.3,0-0.5,0.2-0.5,0.5v7.5h-0.5c-0.3,0-0.5,0.2-0.5,0.5v3c0,0.3,0.2,0.5,0.5,0.5h9c0.3,0,0.5-0.2,0.5-0.5v-3
			C-160,1011.6-160.2,1011.4-160.5,1011.4z M-168,1004.4h6v7h-6V1004.4z M-161,1014.4h-8v-2h8V1014.4z M-167.5,1039.4
			C-167.5,1039.4-167.5,1039.4-167.5,1039.4c-0.3,0-0.5,0.2-0.5,0.5v2c0,0.3,0.2,0.5,0.5,0.5c0.3,0,0.5-0.2,0.5-0.5v-2
			C-167,1039.6-167.2,1039.4-167.5,1039.4z"/>
		<rect x="-145" y="994.4" class="st0" width="2" height="5"/>
		<rect x="-148" y="994.4" class="st0" width="2" height="5"/>
		<rect x="-151" y="994.4" class="st0" width="2" height="5"/>
		<rect x="-154" y="994.4" class="st0" width="2" height="5"/>
		<rect x="-157" y="994.4" class="st0" width="2" height="5"/>
		<rect x="-160" y="994.4" class="st0" width="2" height="5"/>
		<rect x="-163" y="994.4" class="st0" width="2" height="5"/>
		<rect x="-166" y="994.4" class="st0" width="2" height="5"/>
		<rect x="-169" y="994.4" class="st0" width="2" height="5"/>
		<rect x="-172" y="994.4" class="st0" width="2" height="5"/>
		<rect x="-175" y="994.4" class="st0" width="2" height="5"/>
		<path class="st1" d="M-169,1033.4v13h6v-13H-169z M-167,1041.9c0,0.3-0.2,0.5-0.5,0.5c-0.3,0-0.5-0.2-0.5-0.5v-2
			c0-0.3,0.2-0.5,0.5-0.5c0,0,0,0,0,0c0.3,0,0.5,0.2,0.5,0.5V1041.9z"/>
		<path class="st2" d="M-173,1000.4v46h3v-13.5c0-0.3,0.2-0.5,0.5-0.5h7c0.3,0,0.5,0.2,0.5,0.5v13.5h17v-46H-173z M-160,1028.9
			c0,0.3-0.2,0.5-0.5,0.5h-9c-0.3,0-0.5-0.2-0.5-0.5v-3c0-0.3,0.2-0.5,0.5-0.5h0.5v-7.5c0-0.3,0.2-0.5,0.5-0.5h7
			c0.3,0,0.5,0.2,0.5,0.5v7.5h0.5c0.3,0,0.5,0.2,0.5,0.5V1028.9z M-160,1014.9c0,0.3-0.2,0.5-0.5,0.5h-9c-0.3,0-0.5-0.2-0.5-0.5v-3
			c0-0.3,0.2-0.5,0.5-0.5h0.5v-7.5c0-0.3,0.2-0.5,0.5-0.5h7c0.3,0,0.5,0.2,0.5,0.5v7.5h0.5c0.3,0,0.5,0.2,0.5,0.5V1014.9z
			 M-148,1028.9c0,0.3-0.2,0.5-0.5,0.5h-9c-0.3,0-0.5-0.2-0.5-0.5v-3c0-0.3,0.2-0.5,0.5-0.5h0.5v-7.5c0-0.3,0.2-0.5,0.5-0.5h7
			c0.3,0,0.5,0.2,0.5,0.5v7.5h0.5c0.3,0,0.5,0.2,0.5,0.5V1028.9z M-148,1014.9c0,0.3-0.2,0.5-0.5,0.5h-9c-0.3,0-0.5-0.2-0.5-0.5v-3
			c0-0.3,0.2-0.5,0.5-0.5h0.5v-7.5c0-0.3,0.2-0.5,0.5-0.5h7c0.3,0,0.5,0.2,0.5,0.5v7.5h0.5c0.3,0,0.5,0.2,0.5,0.5V1014.9z"/>
		<rect x="-156" y="1018.4" class="st3" width="6" height="7"/>
		<rect x="-168" y="1018.4" class="st3" width="6" height="7"/>
		<rect x="-168" y="1004.4" class="st3" width="6" height="7"/>
		<rect x="-156" y="1004.4" class="st3" width="6" height="7"/>
		<rect x="-157" y="1012.4" class="st4" width="8" height="2"/>
		<rect x="-169" y="1012.4" class="st4" width="8" height="2"/>
		<rect x="-169" y="1026.4" class="st4" width="8" height="2"/>
		<rect x="-157" y="1026.4" class="st4" width="8" height="2"/>
	</g>
</g>
</svg>
