<?xml version="1.0" encoding="utf-8"?>
<!-- Generator: Adobe Illustrator 21.1.0, SVG Export Plug-In . SVG Version: 6.00 Build 0)  -->
<svg version="1.1" id="Layer_1" xmlns="http://www.w3.org/2000/svg" xmlns:xlink="http://www.w3.org/1999/xlink" x="0px" y="0px"
	 viewBox="0 0 100 100" style="enable-background:new 0 0 100 100;" xml:space="preserve">
<style type="text/css">
	.st0{fill:#A0C5EA;}
	.st1{fill:#F47C2C;}
	.st2{fill:#7F4612;}
	.st3{fill:#8EEA3D;}
	.st4{fill:#999282;}
	.st5{fill:#896325;}
	.st6{fill:#E7EF92;}
</style>
<path d="M89,82h-5.2l0-6.5c3.5-0.5,6.2-3.3,6.2-6.7c0-1.4-0.4-2.7-1.2-3.8c0,0,0,0,0-0.1c0.2-0.6,0.3-1.3,0.3-1.9
	c0-1.2-0.4-2.4-1.1-3.4c0.2-0.5,0.3-1,0.3-1.6v-0.3c-0.2-2.7-2.5-4.9-5.5-4.9c-3,0-5.5,2.3-5.5,5.1c0,0.5,0.1,1.1,0.3,1.6
	c-0.7,1-1.1,2.2-1.1,3.4c0,0.7,0.1,1.3,0.3,1.9c-0.8,1.1-1.3,2.5-1.3,3.9c0,3.4,2.7,6.3,6.3,6.7l0,6.5h-8.1V29H76
	c0.3,0,0.6-0.1,0.8-0.4c0.2-0.2,0.3-0.5,0.2-0.8l-2-12c-0.1-0.5-0.5-0.8-1-0.8h-6v-5c0-0.6-0.5-1-1-1h-6c-0.6,0-1,0.4-1,1v5h-3.7v-5
	c0-0.6-0.5-1-1-1h-6c-0.6,0-1,0.4-1,1v5H26.2c-0.5,0-0.9,0.3-1,0.8l-2,12c0,0.3,0,0.6,0.2,0.8c0.2,0.2,0.5,0.4,0.8,0.4h2.3v53h-8.3
	l0-6.5c3.5-0.5,6.2-3.3,6.2-6.7c0-1.4-0.4-2.7-1.2-3.8c0,0,0,0,0-0.1c0.2-0.6,0.3-1.3,0.3-1.9c0-1.2-0.4-2.4-1.1-3.4
	c0.2-0.5,0.3-1,0.3-1.6c0-0.1,0-0.2,0-0.3c-0.2-2.7-2.5-4.9-5.5-4.9c-3,0-5.5,2.3-5.5,5.1c0,0.5,0.1,1.1,0.3,1.6
	c-0.7,1-1.1,2.2-1.1,3.4c0,0.7,0.1,1.3,0.3,1.9C10.5,66,10,67.3,10,68.7c0,3.4,2.7,6.3,6.3,6.7l0,6.5H11c-0.5,0-1,0.4-1,1v5
	c0,0.5,0.5,1,1,1h78c0.6,0,1-0.5,1-1v-5C90,82.4,89.6,82,89,82z M81.7,67.3l0,6.1c-2.4-0.4-4.3-2.4-4.3-4.7c0-1.1,0.4-2.2,1.2-3
	c0.3-0.3,0.3-0.8,0.2-1.1c-0.3-0.5-0.4-1.1-0.4-1.6c0-0.9,0.3-1.8,1-2.5c0.3-0.3,0.3-0.8,0.2-1.1c-0.2-0.4-0.3-0.8-0.3-1.3
	c0-1.7,1.6-3.1,3.5-3.1c1.8,0,3.4,1.3,3.5,3V58c0,0.5-0.1,0.9-0.3,1.3c-0.2,0.4-0.1,0.8,0.2,1.1c0.7,0.7,1,1.6,1,2.5
	c0,0.6-0.1,1.1-0.4,1.6c-0.2,0.4-0.1,0.8,0.2,1.1c0.1,0.1,0.2,0.3,0.3,0.4c0.6,0.8,0.9,1.7,0.9,2.6c0,2.3-1.8,4.3-4.2,4.7l0-6.1
	c0-0.6-0.5-1-1-1C82.2,66.3,81.7,66.7,81.7,67.3z M62,11h4v4h-4V11z M50.4,11h4v4h-4V11z M25.4,27l1.7-10h46.1l1.7,10H25.4z
	 M60.1,61.5c-4.4,0-8,3.6-8,8V82H28.6V29h43.1v53h-3.5V69.5C68.1,65.1,64.5,61.5,60.1,61.5z M66.1,69.5V82h-5V63.6
	C64,64.1,66.1,66.6,66.1,69.5z M59.1,63.6V82h-5V69.5C54.1,66.6,56.3,64.1,59.1,63.6z M16.2,67.3l0,6.1C13.8,73,12,71,12,68.7
	c0-1.1,0.4-2.2,1.2-3c0.3-0.3,0.3-0.8,0.2-1.1c-0.3-0.5-0.4-1.1-0.4-1.6c0-0.9,0.3-1.8,1-2.5c0.3-0.3,0.3-0.8,0.2-1.1
	c-0.2-0.4-0.3-0.9-0.3-1.3c0-1.7,1.6-3.1,3.5-3.1c1.8,0,3.4,1.3,3.5,3V58c0,0.4-0.1,0.9-0.3,1.3c-0.2,0.4-0.1,0.8,0.2,1.1
	c0.7,0.7,1,1.6,1,2.5c0,0.6-0.1,1.1-0.4,1.6c-0.2,0.4-0.1,0.8,0.2,1.1c0.1,0.1,0.2,0.3,0.3,0.4c0.6,0.8,0.9,1.7,0.9,2.6
	c0,2.3-1.8,4.3-4.2,4.7l0-6.1c0-0.6-0.5-1-1-1h0C16.7,66.3,16.2,66.7,16.2,67.3z M88,87H12v-3h76V87z"/>
<rect x="62" y="11" class="st0" width="4" height="4"/>
<rect x="50.4" y="11" class="st0" width="4" height="4"/>
<polygon class="st1" points="74.8,27 25.4,27 27.1,17 73.2,17 "/>
<path class="st2" d="M71.7,29v53h-3.5V69.5c0-4.4-3.6-8-8-8c-4.4,0-8,3.6-8,8V82H28.6V29H71.7z"/>
<path class="st3" d="M88,68.7c0,2.3-1.8,4.3-4.2,4.7l0-6.1c0-0.6-0.5-1-1-1c-0.6,0-1,0.4-1,1l0,6.1c-2.4-0.4-4.3-2.4-4.3-4.7
	c0-1.1,0.4-2.2,1.2-3c0.3-0.3,0.3-0.8,0.2-1.1c-0.3-0.5-0.4-1.1-0.4-1.6c0-0.9,0.3-1.8,1-2.5c0.3-0.3,0.3-0.8,0.2-1.1
	c-0.2-0.4-0.3-0.8-0.3-1.3c0-1.7,1.6-3.1,3.5-3.1c1.8,0,3.4,1.3,3.5,3V58c0,0.5-0.1,0.9-0.3,1.3c-0.2,0.4-0.1,0.8,0.2,1.1
	c0.7,0.7,1,1.6,1,2.5c0,0.6-0.1,1.1-0.4,1.6c-0.2,0.4-0.1,0.8,0.2,1.1c0.1,0.1,0.2,0.3,0.3,0.4C87.7,66.8,88,67.8,88,68.7z"/>
<path class="st3" d="M22.5,68.7c0,2.3-1.8,4.3-4.2,4.7l0-6.1c0-0.6-0.5-1-1-1h0c-0.5,0-1,0.4-1,1l0,6.1C13.8,73,12,71,12,68.7
	c0-1.1,0.4-2.2,1.2-3c0.3-0.3,0.3-0.8,0.2-1.1c-0.3-0.5-0.4-1.1-0.4-1.6c0-0.9,0.3-1.8,1-2.5c0.3-0.3,0.3-0.8,0.2-1.1
	c-0.2-0.4-0.3-0.9-0.3-1.3c0-1.7,1.6-3.1,3.5-3.1c1.8,0,3.4,1.3,3.5,3V58c0,0.4-0.1,0.9-0.3,1.3c-0.2,0.4-0.1,0.8,0.2,1.1
	c0.7,0.7,1,1.6,1,2.5c0,0.6-0.1,1.1-0.4,1.6c-0.2,0.4-0.1,0.8,0.2,1.1c0.1,0.1,0.2,0.3,0.3,0.4C22.2,66.8,22.5,67.8,22.5,68.7z"/>
<path class="st4" d="M66.1,69.5V82h-5V63.6C64,64.1,66.1,66.6,66.1,69.5z"/>
<path class="st4" d="M59.1,63.6V82h-5V69.5C54.1,66.6,56.3,64.1,59.1,63.6z"/>
<path class="st5" d="M71.7,29v53h-3.5V69.5c0-4.4-3.6-8-8-8c-4.4,0-8,3.6-8,8V82H28.6V29H71.7z"/>
<path d="M67,49.6h-4.2c-0.6,0-1,0.5-1,1v6.6c0,0.5,0.4,1,1,1H67c0.5,0,1-0.5,1-1v-6.6C68,50.1,67.6,49.6,67,49.6z M66,56.2h-2.2
	v-4.6H66V56.2z"/>
<rect x="63.8" y="51.6" class="st6" width="2.2" height="4.6"/>
<path d="M67,37.8h-4.2c-0.6,0-1,0.5-1,1v6.6c0,0.5,0.4,1,1,1H67c0.5,0,1-0.5,1-1v-6.6C68,38.2,67.6,37.8,67,37.8z M66,44.4h-2.2
	v-4.6H66V44.4z"/>
<rect x="63.8" y="39.8" class="st6" width="2.2" height="4.6"/>
<path d="M57.1,49.6h-4.2c-0.6,0-1,0.5-1,1v6.6c0,0.5,0.4,1,1,1h4.2c0.5,0,1-0.5,1-1v-6.6C58.1,50.1,57.7,49.6,57.1,49.6z M56.1,56.2
	h-2.2v-4.6h2.2V56.2z"/>
<rect x="53.9" y="51.6" class="st6" width="2.2" height="4.6"/>
<path d="M57.1,37.8h-4.2c-0.6,0-1,0.5-1,1v6.6c0,0.5,0.4,1,1,1h4.2c0.5,0,1-0.5,1-1v-6.6C58.1,38.2,57.7,37.8,57.1,37.8z M56.1,44.4
	h-2.2v-4.6h2.2V44.4z"/>
<rect x="53.9" y="39.8" class="st6" width="2.2" height="4.6"/>
<path d="M47.2,49.6H43c-0.6,0-1,0.5-1,1v6.6c0,0.5,0.4,1,1,1h4.2c0.5,0,1-0.5,1-1v-6.6C48.2,50.1,47.8,49.6,47.2,49.6z M46.2,56.2
	H44v-4.6h2.2V56.2z"/>
<rect x="44" y="51.6" class="st6" width="2.2" height="4.6"/>
<path d="M47.2,37.8H43c-0.6,0-1,0.5-1,1v6.6c0,0.5,0.4,1,1,1h4.2c0.5,0,1-0.5,1-1v-6.6C48.2,38.2,47.8,37.8,47.2,37.8z M46.2,44.4
	H44v-4.6h2.2V44.4z"/>
<rect x="44" y="39.8" class="st6" width="2.2" height="4.6"/>
<path d="M37.4,49.6h-4.2c-0.6,0-1,0.5-1,1v6.6c0,0.5,0.4,1,1,1h4.2c0.5,0,1-0.5,1-1v-6.6C38.4,50.1,37.9,49.6,37.4,49.6z M36.4,56.2
	h-2.2v-4.6h2.2V56.2z"/>
<rect x="34.1" y="51.6" class="st6" width="2.2" height="4.6"/>
<path d="M47.2,61.5H43c-0.6,0-1,0.4-1,1v6.6c0,0.5,0.4,1,1,1h4.2c0.5,0,1-0.5,1-1v-6.6C48.2,62,47.8,61.5,47.2,61.5z M46.2,68.2H44
	v-4.6h2.2V68.2z"/>
<rect x="44" y="63.5" class="st6" width="2.2" height="4.6"/>
<path d="M37.4,61.5h-4.2c-0.6,0-1,0.4-1,1v6.6c0,0.5,0.4,1,1,1h4.2c0.5,0,1-0.5,1-1v-6.6C38.4,62,37.9,61.5,37.4,61.5z M36.4,68.2
	h-2.2v-4.6h2.2V68.2z"/>
<rect x="34.1" y="63.5" class="st6" width="2.2" height="4.6"/>
<path d="M37.4,37.8h-4.2c-0.6,0-1,0.5-1,1v6.6c0,0.5,0.4,1,1,1h4.2c0.5,0,1-0.5,1-1v-6.6C38.4,38.2,37.9,37.8,37.4,37.8z M36.4,44.4
	h-2.2v-4.6h2.2V44.4z"/>
<rect x="34.1" y="39.8" class="st6" width="2.2" height="4.6"/>
</svg>
