<?xml version="1.0" encoding="utf-8"?>
<!-- Generator: Adobe Illustrator 21.1.0, SVG Export Plug-In . SVG Version: 6.00 Build 0)  -->
<svg version="1.1" id="Layer_1" xmlns="http://www.w3.org/2000/svg" xmlns:xlink="http://www.w3.org/1999/xlink" x="0px" y="0px"
	 viewBox="0 0 100 100" style="enable-background:new 0 0 100 100;" xml:space="preserve">
<style type="text/css">
	.st0{fill:#B2B2AD;}
	.st1{fill:#A2ECF9;}
	.st2{fill:#74BFE8;}
	.st3{fill:#845D6B;}
	.st4{fill:#B5375E;}
	.st5{fill:#0AC925;}
	.st6{fill:#F9F781;}
	.st7{fill:#F7F781;}
</style>
<path d="M89.2,83h-9.8l0-12c6-0.5,10.7-5.5,10.7-11.6c0-6.4-5.2-11.7-11.7-11.7c-2,0-3.9,0.5-5.5,1.4V23h1.8c0.5,0,1-0.5,1-1v-5
	c0-0.5-0.5-1-1-1H60.2v-5c0-0.5-0.4-1-1-1h-6.6c-0.5,0-1,0.5-1,1v5h-2.2v-5c0-0.5-0.4-1-1-1h-6.6c-0.5,0-1,0.5-1,1v5H26.2
	c-0.6,0-1,0.5-1,1v5c0,0.5,0.4,1,1,1h1.4v26.1c-1.7-0.9-3.6-1.4-5.6-1.4c-6.4,0-11.7,5.2-11.7,11.7C10.2,65.5,15,70.5,21,71l0,12
	h-9.8c-0.5,0-1,0.4-1,1v5c0,0.6,0.5,1,1,1h78c0.5,0,1-0.4,1-1v-5C90.2,83.4,89.8,83,89.2,83z M78.6,49.7c5.3,0,9.7,4.3,9.7,9.7
	c0,5-3.8,9.1-8.7,9.6l0-5.1l3.3-3.4c0.4-0.4,0.4-1,0-1.4c-0.4-0.4-1-0.4-1.4,0L79.5,61l0-3.9c0-0.5-0.5-1-1-1c-0.6,0-1,0.4-1,1
	l0,4.1l-2-2.1c-0.4-0.4-1-0.4-1.4,0s-0.4,1,0,1.4l3.4,3.6l0,4.9c-4.9-0.5-8.6-4.6-8.6-9.6C68.9,54,73.2,49.7,78.6,49.7z M74.7,77.8
	H73v-8.1c1.4,0.7,2.9,1.2,4.5,1.3l0,12h-1.8v-4.2C75.7,78.2,75.3,77.8,74.7,77.8z M27.4,79.8h46.3V83H27.4V79.8z M26.4,77.8
	c-0.5,0-1,0.5-1,1V83h-2.3l0-12c1.6-0.2,3.1-0.6,4.5-1.4v8.2H26.4z M60.7,57.6H40.4c-0.6,0-1,0.4-1,1v19.1h-9.9v-9.6
	c2.5-2.1,4.1-5.3,4.1-8.8c0-3.5-1.6-6.7-4.1-8.8V23H71v27.5c-2.5,2.1-4.1,5.3-4.1,8.9s1.6,6.8,4.1,8.9v9.5h-9.3V58.6
	C61.7,58,61.2,57.6,60.7,57.6z M59.7,59.6v18.1h-8.1V59.6H59.7z M49.5,59.6v18.1h-8.1V59.6H49.5z M53.6,12h4.6v4h-4.6V12z M42.7,12
	h4.6v4h-4.6V12z M27.2,21v-3h46.6v3H27.2z M21,61l-1.9-1.9c-0.4-0.4-1-0.4-1.4,0c-0.4,0.4-0.4,1,0,1.4l3.3,3.4l0,5.1
	c-4.9-0.5-8.8-4.6-8.8-9.6c0-5.3,4.3-9.7,9.7-9.7c5.3,0,9.7,4.3,9.7,9.7c0,5-3.8,9.1-8.6,9.6l0-4.9l3.4-3.6c0.4-0.4,0.4-1,0-1.4
	c-0.4-0.4-1-0.4-1.4,0l-2,2.1l0-4.1c0-0.6-0.5-1-1-1s-1,0.5-1,1L21,61z M88.2,88h-76v-3h76V88z"/>
<rect x="12.2" y="85" class="st0" width="76" height="3"/>
<rect x="27.4" y="79.8" class="st0" width="46.3" height="3.2"/>
<rect x="51.5" y="59.6" class="st1" width="8.1" height="18.1"/>
<rect x="41.4" y="59.6" class="st1" width="8.1" height="18.1"/>
<rect x="53.6" y="12" class="st2" width="4.6" height="4"/>
<rect x="42.7" y="12" class="st2" width="4.6" height="4"/>
<rect x="27.2" y="18" class="st3" width="46.6" height="3"/>
<path class="st4" d="M66.9,59.3c0,3.6,1.6,6.8,4.1,8.9v9.5h-9.3V58.6c0-0.6-0.5-1-1-1H40.4c-0.6,0-1,0.4-1,1v19.1h-9.9v-9.6
	c2.5-2.1,4.1-5.3,4.1-8.8c0-3.5-1.6-6.7-4.1-8.8V23H71v27.5C68.5,52.6,66.9,55.8,66.9,59.3z"/>
<path class="st5" d="M88.2,59.3c0,5-3.8,9.1-8.7,9.6l0-5.1l3.3-3.4c0.4-0.4,0.4-1,0-1.4c-0.4-0.4-1-0.4-1.4,0L79.5,61l0-3.9
	c0-0.5-0.5-1-1-1c-0.6,0-1,0.4-1,1l0,4.1l-2-2.1c-0.4-0.4-1-0.4-1.4,0s-0.4,1,0,1.4l3.4,3.6l0,4.9c-4.9-0.5-8.6-4.6-8.6-9.6
	c0-5.3,4.3-9.7,9.7-9.7C83.9,49.7,88.2,54,88.2,59.3z"/>
<path class="st5" d="M31.6,59.3c0,5-3.8,9.1-8.6,9.6l0-4.9l3.4-3.6c0.4-0.4,0.4-1,0-1.4c-0.4-0.4-1-0.4-1.4,0l-2,2.1l0-4.1
	c0-0.6-0.5-1-1-1s-1,0.5-1,1l0,3.9l-1.9-1.9c-0.4-0.4-1-0.4-1.4,0c-0.4,0.4-0.4,1,0,1.4l3.3,3.4l0,5.1c-4.9-0.5-8.8-4.6-8.8-9.6
	c0-5.3,4.3-9.7,9.7-9.7C27.3,49.7,31.6,54,31.6,59.3z"/>
<path d="M60.5,43.1h-6.1c-0.5,0-1,0.4-1,1v8.8c0,0.5,0.5,1,1,1h6.1c0.5,0,1-0.5,1-1v-8.8C61.5,43.5,61,43.1,60.5,43.1z M59.5,51.9
	h-4.1v-6.8h4.1V51.9z"/>
<rect x="55.3" y="45.1" class="st6" width="4.1" height="6.8"/>
<path d="M60.5,28.6h-6.1c-0.5,0-1,0.5-1,1v8.8c0,0.6,0.5,1,1,1h6.1c0.5,0,1-0.4,1-1v-8.8C61.5,29,61,28.6,60.5,28.6z M59.5,37.4
	h-4.1v-6.8h4.1V37.4z"/>
<rect x="55.3" y="30.6" class="st7" width="4.1" height="6.8"/>
<path d="M46.4,43.1h-6.1c-0.6,0-1,0.4-1,1v8.8c0,0.5,0.4,1,1,1h6.1c0.5,0,1-0.5,1-1v-8.8C47.4,43.5,46.9,43.1,46.4,43.1z M45.4,51.9
	h-4.1v-6.8h4.1V51.9z"/>
<rect x="41.2" y="45.1" class="st6" width="4.1" height="6.8"/>
<path d="M46.4,28.6h-6.1c-0.6,0-1,0.5-1,1v8.8c0,0.6,0.4,1,1,1h6.1c0.5,0,1-0.4,1-1v-8.8C47.4,29,46.9,28.6,46.4,28.6z M45.4,37.4
	h-4.1v-6.8h4.1V37.4z"/>
<rect x="41.2" y="30.6" class="st7" width="4.1" height="6.8"/>
</svg>
