<?xml version="1.0" encoding="utf-8"?>
<!-- Generator: Adobe Illustrator 21.1.0, SVG Export Plug-In . SVG Version: 6.00 Build 0)  -->
<svg version="1.1" id="Layer_1" xmlns="http://www.w3.org/2000/svg" xmlns:xlink="http://www.w3.org/1999/xlink" x="0px" y="0px"
	 viewBox="0 0 100 100" style="enable-background:new 0 0 100 100;" xml:space="preserve">
<style type="text/css">
	.st0{fill:#C3C9C8;}
	.st1{fill:#5C6665;}
	.st2{fill:#4F9E97;}
	.st3{fill:#93C9C3;}
	.st4{fill:#73667F;}
	.st5{fill:#D0BDE0;}
	.st6{fill:#F7F7C6;}
</style>
<path d="M89.2,82h-4.3V35.5h1.8c0.5,0,1-0.5,1-1v-5c0-0.5-0.5-1-1-1H53.2V22h1.6c0.6,0,1-0.5,1-1v-5c0-0.5-0.4-1-1-1h-5v-5
	c0-0.5-0.5-1-1-1H42c-0.6,0-1,0.5-1,1v5h-13v-5c0-0.5-0.4-1-1-1h-6.8c-0.5,0-1,0.5-1,1v5h-5c-0.6,0-1,0.5-1,1v5c0,0.5,0.4,1,1,1h1.5
	v60h-4.3c-0.5,0-1,0.4-1,1v5c0,0.5,0.5,1,1,1h78c0.6,0,1-0.5,1-1v-5C90.2,82.4,89.8,82,89.2,82z M85.8,30.5v3H53.2v-3H85.8z
	 M82.9,35.5V82H53.2V35.5H82.9z M43,11h4.8v4H43V11z M21.1,11h4.8v4h-4.8V11z M15.1,20v-3h38.7v3H15.1z M51.2,22v60H17.6V22H51.2z
	 M88.2,87h-76v-3h76V87z"/>
<rect x="21.1" y="11" class="st0" width="4.8" height="4"/>
<rect x="43" y="11" class="st0" width="4.8" height="4"/>
<rect x="12.2" y="84" class="st1" width="76" height="3"/>
<rect x="15.1" y="17" class="st2" width="38.7" height="3"/>
<rect x="53.2" y="30.5" class="st3" width="32.5" height="3"/>
<rect x="17.6" y="22" class="st4" width="33.7" height="60"/>
<rect x="53.2" y="35.5" class="st5" width="29.7" height="46.4"/>
<path d="M78.2,62.2h-6.4c-0.5,0-1,0.5-1,1v10.5c0,0.5,0.5,1,1,1h6.4c0.6,0,1-0.5,1-1V63.2C79.2,62.7,78.7,62.2,78.2,62.2z
	 M77.2,72.8h-4.4v-8.5h4.4V72.8z"/>
<rect x="72.8" y="64.2" class="st6" width="4.4" height="8.5"/>
<path d="M64.7,62.2h-6.4c-0.5,0-1,0.5-1,1v10.5c0,0.5,0.5,1,1,1h6.4c0.5,0,1-0.5,1-1V63.2C65.7,62.7,65.2,62.2,64.7,62.2z
	 M63.7,72.8h-4.4v-8.5h4.4V72.8z"/>
<rect x="59.3" y="64.2" class="st6" width="4.4" height="8.5"/>
<path d="M78.2,44.9h-6.4c-0.5,0-1,0.5-1,1v10.5c0,0.6,0.5,1,1,1h6.4c0.6,0,1-0.4,1-1V45.9C79.2,45.4,78.7,44.9,78.2,44.9z
	 M77.2,55.4h-4.4v-8.5h4.4V55.4z"/>
<rect x="72.8" y="46.9" class="st6" width="4.4" height="8.5"/>
<path d="M64.7,44.9h-6.4c-0.5,0-1,0.5-1,1v10.5c0,0.6,0.5,1,1,1h6.4c0.5,0,1-0.4,1-1V45.9C65.7,45.4,65.2,44.9,64.7,44.9z
	 M63.7,55.4h-4.4v-8.5h4.4V55.4z"/>
<rect x="59.3" y="46.9" class="st6" width="4.4" height="8.5"/>
<path d="M44.9,44.9h-6.4c-0.5,0-1,0.4-1,1v10.5c0,0.5,0.5,1,1,1h6.4c0.5,0,1-0.5,1-1V45.9C45.9,45.3,45.5,44.9,44.9,44.9z
	 M43.9,55.4h-4.4v-8.5h4.4V55.4z"/>
<rect x="39.6" y="46.9" class="st6" width="4.4" height="8.5"/>
<path d="M44.9,27.6h-6.4c-0.5,0-1,0.5-1,1v10.5c0,0.6,0.5,1,1,1h6.4c0.5,0,1-0.4,1-1V28.6C45.9,28,45.5,27.6,44.9,27.6z M43.9,38.1
	h-4.4v-8.5h4.4V38.1z"/>
<rect x="39.6" y="29.6" class="st6" width="4.4" height="8.5"/>
<path d="M30.3,44.9H24c-0.5,0-1,0.4-1,1v10.5c0,0.5,0.5,1,1,1h6.4c0.6,0,1-0.5,1-1V45.9C31.3,45.3,30.9,44.9,30.3,44.9z M29.3,55.4
	H25v-8.5h4.4V55.4z"/>
<rect x="25" y="46.9" class="st6" width="4.4" height="8.5"/>
<path d="M30.3,27.6H24c-0.5,0-1,0.5-1,1v10.5c0,0.6,0.5,1,1,1h6.4c0.6,0,1-0.4,1-1V28.6C31.3,28,30.9,27.6,30.3,27.6z M29.3,38.1H25
	v-8.5h4.4V38.1z"/>
<rect x="25" y="29.6" class="st6" width="4.4" height="8.5"/>
<path d="M44.9,62.2h-6.4c-0.5,0-1,0.4-1,1v10.5c0,0.5,0.5,1,1,1h6.4c0.5,0,1-0.5,1-1V63.2C45.9,62.7,45.5,62.2,44.9,62.2z
	 M43.9,72.8h-4.4v-8.5h4.4V72.8z"/>
<rect x="39.6" y="64.2" class="st6" width="4.4" height="8.5"/>
<path d="M30.3,62.2H24c-0.5,0-1,0.4-1,1v10.5c0,0.5,0.5,1,1,1h6.4c0.6,0,1-0.5,1-1V63.2C31.3,62.7,30.9,62.2,30.3,62.2z M29.3,72.8
	H25v-8.5h4.4V72.8z"/>
<rect x="25" y="64.2" class="st6" width="4.4" height="8.5"/>
</svg>
