<?xml version="1.0" encoding="utf-8"?>
<!-- Generator: Adobe Illustrator 21.1.0, SVG Export Plug-In . SVG Version: 6.00 Build 0)  -->
<svg version="1.1" id="Layer_1" xmlns="http://www.w3.org/2000/svg" xmlns:xlink="http://www.w3.org/1999/xlink" x="0px" y="0px"
	 viewBox="0 0 120 120" style="enable-background:new 0 0 120 120;" xml:space="preserve">
<style type="text/css">
	.st0{fill:#B78870;}
	.st1{fill:#DD5307;}
	.st2{fill:#59A1B5;}
	.st3{fill:#E1F456;}
</style>
<path d="M108,50.9l-8.7-29.8c-0.2-0.6-0.8-1.1-1.4-1.1H49.3V7.3c0-0.8-0.7-1.5-1.5-1.5H33.6c-0.8,0-1.5,0.7-1.5,1.5v12.8h-10
	c-0.7,0-1.2,0.4-1.4,1.1l-8.7,29.8c-0.1,0.5,0,0.9,0.2,1.3c0.3,0.4,0.7,0.6,1.2,0.6h4.3v58.7c0,0.8,0.7,1.5,1.5,1.5h81.5
	c0.8,0,1.5-0.7,1.5-1.5V52.8h4.3c0.5,0,0.9-0.2,1.2-0.6C108,51.9,108.1,51.4,108,50.9z M35.1,8.8h11.3v11.2H35.1V8.8z M23.2,23.1
	h73.6l1.8,6.3H21.3L23.2,23.1z M20.5,32.4h79l2.1,7.2H18.3L20.5,32.4z M99.2,110H20.7V52.8h78.5V110z M15.4,49.8l2.1-7.2h85l2.1,7.2
	H15.4z"/>
<rect x="35.1" y="8.8" class="st0" width="11.3" height="11.2"/>
<polygon class="st1" points="98.6,29.4 21.3,29.4 23.2,23.1 96.7,23.1 "/>
<polygon class="st1" points="101.6,39.7 18.3,39.7 20.5,32.4 99.5,32.4 "/>
<polygon class="st1" points="104.6,49.8 15.4,49.8 17.5,42.7 102.5,42.7 "/>
<rect x="20.7" y="52.8" class="st2" width="78.5" height="57.2"/>
<path d="M43,59.9H28.4c-0.8,0-1.5,0.7-1.5,1.5v14.5c0,0.8,0.7,1.5,1.5,1.5H43c0.8,0,1.5-0.7,1.5-1.5V61.4
	C44.5,60.6,43.8,59.9,43,59.9z M41.5,74.4H29.9V62.9h11.6V74.4z"/>
<rect x="29.9" y="62.9" class="st3" width="11.6" height="11.5"/>
<path d="M67.2,59.9H52.7c-0.8,0-1.5,0.7-1.5,1.5v14.5c0,0.8,0.7,1.5,1.5,1.5h14.6c0.8,0,1.5-0.7,1.5-1.5V61.4
	C68.7,60.6,68.1,59.9,67.2,59.9z M65.7,74.4H54.2V62.9h11.6V74.4z"/>
<rect x="54.2" y="62.9" class="st3" width="11.6" height="11.5"/>
<path d="M91.5,59.9H76.9c-0.8,0-1.5,0.7-1.5,1.5v14.5c0,0.8,0.7,1.5,1.5,1.5h14.6c0.8,0,1.5-0.7,1.5-1.5V61.4
	C93,60.6,92.3,59.9,91.5,59.9z M90,74.4H78.4V62.9H90V74.4z"/>
<rect x="78.4" y="62.9" class="st3" width="11.6" height="11.5"/>
<path d="M43,85.5H28.4c-0.8,0-1.5,0.7-1.5,1.5v14.5c0,0.8,0.7,1.5,1.5,1.5H43c0.8,0,1.5-0.7,1.5-1.5V87C44.5,86.1,43.8,85.5,43,85.5
	z M41.5,100H29.9V88.5h11.6V100z"/>
<rect x="29.9" y="88.5" class="st3" width="11.6" height="11.5"/>
<path d="M67.2,85.5H52.7c-0.8,0-1.5,0.7-1.5,1.5v14.5c0,0.8,0.7,1.5,1.5,1.5h14.6c0.8,0,1.5-0.7,1.5-1.5V87
	C68.7,86.1,68.1,85.5,67.2,85.5z M65.7,100H54.2V88.5h11.6V100z"/>
<rect x="54.2" y="88.5" class="st3" width="11.6" height="11.5"/>
<path d="M91.5,85.5H76.9c-0.8,0-1.5,0.7-1.5,1.5v14.5c0,0.8,0.7,1.5,1.5,1.5h14.6c0.8,0,1.5-0.7,1.5-1.5V87
	C93,86.1,92.3,85.5,91.5,85.5z M90,100H78.4V88.5H90V100z"/>
<rect x="78.4" y="88.5" class="st3" width="11.6" height="11.5"/>
</svg>
