<?xml version="1.0" encoding="utf-8"?>
<!-- Generator: Adobe Illustrator 21.1.0, SVG Export Plug-In . SVG Version: 6.00 Build 0)  -->
<svg version="1.1" id="Layer_1" xmlns="http://www.w3.org/2000/svg" xmlns:xlink="http://www.w3.org/1999/xlink" x="0px" y="0px"
	 viewBox="0 0 512 512" style="enable-background:new 0 0 512 512;" xml:space="preserve">
<style type="text/css">
	.st0{fill:#D3D3D3;}
	.st1{fill:#9DFCF9;}
	.st2{fill:#FFFFFF;}
	.st3{fill:#C6110C;}
</style>
<g>
	<path d="M477.2,343.5V73.1c0-13.6-11-24.6-24.6-24.6H59.4c-13.6,0-24.6,11-24.6,24.6v270.4H2v31.8c0,13.4,5.2,26,14.7,35.5
		s22.1,14.7,35.5,14.7h407.7c13.4,0,26-5.2,35.5-14.7s14.7-22.1,14.7-35.5v-31.8H477.2z M51.2,73.1c0-4.5,3.7-8.2,8.2-8.2h393.3
		c4.5,0,8.2,3.7,8.2,8.2v270.4H305.2v16.4h-98.3v-16.4H51.2V73.1z M493.7,375.3h-0.1c0,9-3.5,17.5-9.9,23.9
		c-6.4,6.4-14.9,9.9-23.9,9.9H52.2c-9,0-17.5-3.5-23.9-9.9c-6.4-6.4-9.9-14.9-9.9-23.9v-15.4h172.1v16.4h131.1v-16.4h172.1V375.3z"
		/>
	<path class="st0" d="M460.9,73.1v270.4H305.2v16.4h-98.3v-16.4H51.2V73.1c0-4.5,3.7-8.2,8.2-8.2h393.3
		C457.2,64.9,460.9,68.6,460.9,73.1z"/>
	<path class="st0" d="M493.7,359.9v15.4h-0.1c0,9-3.5,17.5-9.9,23.9c-6.4,6.4-14.9,9.9-23.9,9.9H52.2c-9,0-17.5-3.5-23.9-9.9
		c-6.4-6.4-9.9-14.9-9.9-23.9v-15.4h172.1v16.4h131.1v-16.4H493.7z"/>
	<path d="M67.5,81.3v245.8h376.9V162.9h0.1V81.3H67.5z M428,310.7H83.9V162.9H428V310.7z M428,146.6H83.9V97.8H428V146.6z"/>
	<rect x="83.9" y="97.8" class="st1" width="344.1" height="48.8"/>
	<rect x="83.9" y="162.9" class="st2" width="344.1" height="147.8"/>
	<rect x="444.5" y="376.3" width="16.4" height="16.4"/>
	<rect x="411.7" y="376.3" width="16.4" height="16.4"/>
	<rect x="378.9" y="376.3" width="16.4" height="16.4"/>
	<rect x="51.2" y="376.3" width="114.7" height="16.4"/>
	<rect x="108.5" y="114.1" width="16.4" height="16.4"/>
	<rect x="141.3" y="114.1" width="16.4" height="16.4"/>
	<rect x="174.1" y="114.1" width="16.4" height="16.4"/>
	<rect x="256" y="114.1" width="147.5" height="16.4"/>
	<polygon class="st3" points="204.1,271.8 169.3,237 203.7,202.6 192.1,191 146.1,237 192.5,283.4 	"/>
	<polygon class="st3" points="316.1,271.8 327.7,283.4 373.7,237.4 327.3,191 315.8,202.6 350.6,237.4 	"/>
	
		<rect x="195.3" y="232.9" transform="matrix(0.5693 -0.8222 0.8222 0.5693 -86.2067 317.7001)" class="st3" width="129.6" height="16.4"/>
</g>
</svg>
