<?xml version="1.0" encoding="utf-8"?>
<!-- Generator: Adobe Illustrator 21.1.0, SVG Export Plug-In . SVG Version: 6.00 Build 0)  -->
<svg version="1.1" id="Layer_1" xmlns="http://www.w3.org/2000/svg" xmlns:xlink="http://www.w3.org/1999/xlink" x="0px" y="0px"
	 viewBox="0 0 48 48" style="enable-background:new 0 0 48 48;" xml:space="preserve">
<style type="text/css">
	.st0{fill:#F4F416;}
	.st1{fill:#205FED;}
	.st2{fill:#46B746;}
	.st3{fill:#A133D3;}
	.st4{fill:#EA1F54;}
</style>
<g>
	<rect y="39.4" width="48" height="4.5"/>
	<rect x="21.7" y="23" class="st0" width="4.5" height="12.4"/>
	<rect x="39.3" y="13" class="st1" width="4.5" height="22.4"/>
	<rect x="13" y="18" class="st2" width="4.5" height="17.4"/>
	<rect x="4.2" y="23" class="st3" width="4.5" height="12.4"/>
	<rect x="30.5" y="20" class="st4" width="4.5" height="15.4"/>
	<path d="M5.6,18.6l8.5-7.7l9,8.2c0.2,0.2,0.4,0.3,0.7,0.3c0.2,0,0.5-0.1,0.7-0.3L36.9,7.8l-0.7,4.1c0,1.2,0.9,1.2,1,1.2
		c0.5,0,0.9-0.4,1-0.8l1.1-6.9c0-0.3-0.1-0.6-0.3-0.9c-0.2-0.2-0.5-0.3-0.9-0.3l-6.9,1.1c-0.5,0.1-0.9,0.6-0.8,1.1s0.6,0.9,1.1,0.8
		l3.6-0.6L23.7,17l-9-8.2c-0.4-0.3-1-0.3-1.3,0l-9.1,8.3c-0.4,0.4-0.4,1-0.1,1.4C4.6,19,5.2,19,5.6,18.6z"/>
</g>
</svg>
