<?xml version="1.0" encoding="utf-8"?>
<!-- Generator: Adobe Illustrator 21.1.0, SVG Export Plug-In . SVG Version: 6.00 Build 0)  -->
<svg version="1.1" id="Layer_1" xmlns="http://www.w3.org/2000/svg" xmlns:xlink="http://www.w3.org/1999/xlink" x="0px" y="0px"
	 viewBox="0 0 48 52" style="enable-background:new 0 0 48 52;" xml:space="preserve">
<style type="text/css">
	.st0{fill:#4C961D;}
	.st1{fill:#F4EE2F;}
	.st2{fill:#ED3F1D;}
</style>
<title>05-growth</title>
<g>
	<path d="M41,2H7C6.5,2,6,2.5,6,3v20c0,0.5,0.5,1,1,1h34c0.5,0,1-0.5,1-1V3C42,2.5,41.5,2,41,2z M40,22H8V4h32V22z"/>
	<path class="st0" d="M8,4v18h32V4H8z M38,17c0,0.5-0.5,1-1,1s-1,0.5-1,1s-0.5,1-1,1H13c-0.5,0-1-0.5-1-1s-0.5-1-1-1s-1-0.5-1-1V9
		c0-0.5,0.5-1,1-1s1-0.5,1-1s0.5-1,1-1h22c0.5,0,1,0.5,1,1s0.5,1,1,1s1,0.5,1,1V17z"/>
	<path d="M37,8c-0.5,0-1-0.5-1-1s-0.5-1-1-1H13c-0.5,0-1,0.5-1,1s-0.5,1-1,1s-1,0.5-1,1v8c0,0.5,0.5,1,1,1s1,0.5,1,1s0.5,1,1,1h22
		c0.5,0,1-0.5,1-1s0.5-1,1-1s1-0.5,1-1V9C38,8.5,37.5,8,37,8z M36,16.2c-0.9,0.3-1.5,1-1.8,1.8H13.8c-0.3-0.9-1-1.5-1.8-1.8V9.8
		c0.9-0.3,1.5-1,1.8-1.8h20.3c0.3,0.9,1,1.5,1.8,1.8V16.2z"/>
	<path d="M24,9c-2.2,0-4,1.8-4,4s1.8,4,4,4s4-1.8,4-4S26.2,9,24,9z M24,15c-1.1,0-2-0.9-2-2s0.9-2,2-2s2,0.9,2,2S25.1,15,24,15z"/>
	<circle class="st1" cx="24" cy="13" r="2"/>
	<path d="M33,14h-2c-0.6,0-1-0.4-1-1s0.4-1,1-1h2c0.6,0,1,0.4,1,1S33.6,14,33,14z"/>
	<path d="M17,14h-2c-0.6,0-1-0.4-1-1s0.4-1,1-1h2c0.6,0,1,0.4,1,1S17.6,14,17,14z"/>
	<path d="M32,36H16c-1.7,0-3,1.3-3,3v2c0,1.7,1.3,3,3,3h16c1.7,0,3-1.3,3-3v-2C35,37.3,33.7,36,32,36z M33,41c0,0.5-0.5,1-1,1H16
		c-0.5,0-1-0.5-1-1v-2c0-0.5,0.5-1,1-1h16c0.5,0,1,0.5,1,1V41z"/>
	<path class="st2" d="M33,39v2c0,0.5-0.5,1-1,1H16c-0.5,0-1-0.5-1-1v-2c0-0.5,0.5-1,1-1h16C32.5,38,33,38.5,33,39z"/>
	<path d="M32,42H16c-0.1,0-0.2,0-0.3,0c-0.5,0.2-0.8,0.8-0.6,1.3l2,6c0.1,0.4,0.5,0.7,1,0.7h12c0.4,0,0.8-0.3,1-0.7l2-6
		c0-0.1,0-0.2,0-0.3C33,42.5,32.5,42,32,42z M29.3,48H18.7l-1.3-4h13.2L29.3,48z"/>
	<polygon class="st2" points="30.6,44 29.3,48 18.7,48 17.4,44 	"/>
	<path d="M24,38c-0.6,0-1-0.4-1-1V23c0-0.6,0.4-1,1-1s1,0.4,1,1v14C25,37.6,24.6,38,24,38z"/>
	<g>
		<path d="M34,26c-5.5,0-7,4.6-7,7c0,0.5,0.5,1,1,1c5.5,0,7-4.6,7-7C35,26.5,34.5,26,34,26z M29.1,31.9c0.3-1.9,1.8-3.5,3.7-3.8
			C32.6,30,31.1,31.6,29.1,31.9z"/>
		<path class="st0" d="M32.9,28.1c-0.3,1.9-1.8,3.5-3.7,3.8C29.4,30,30.9,28.4,32.9,28.1z"/>
	</g>
	<g>
		<path d="M14,26c-0.5,0-1,0.5-1,1c0,2.4,1.5,7,7,7c0.5,0,1-0.5,1-1C21,30.6,19.5,26,14,26z M15.1,28.1c2,0.3,3.5,1.9,3.8,3.8
			C16.9,31.6,15.4,30,15.1,28.1z"/>
		<path class="st0" d="M15.1,28.1c0.3,2,1.8,3.5,3.8,3.8C18.6,30,17.1,28.4,15.1,28.1z"/>
	</g>
	<path d="M28,34h-8c-0.6,0-1-0.4-1-1s0.4-1,1-1h8c0.6,0,1,0.4,1,1S28.6,34,28,34z"/>
</g>
</svg>
