<?xml version="1.0" encoding="utf-8"?>
<!-- Generator: Adobe Illustrator 21.1.0, SVG Export Plug-In . SVG Version: 6.00 Build 0)  -->
<svg version="1.1" id="Layer_1" xmlns="http://www.w3.org/2000/svg" xmlns:xlink="http://www.w3.org/1999/xlink" x="0px" y="0px"
	 viewBox="0 0 100 100" style="enable-background:new 0 0 100 100;" xml:space="preserve">
<style type="text/css">
	.st0{fill:#633F05;stroke:#633F05;stroke-width:0.25;stroke-miterlimit:10;}
	.st1{fill:#A56D55;stroke:#A56D55;stroke-width:0.25;stroke-miterlimit:10;}
	.st2{fill:#E0B7A4;stroke:#E0B7A4;stroke-width:0.25;stroke-miterlimit:10;}
</style>
<g>
	<path d="M69.5,31.6c0,1.1-0.4,2.1-1.2,2.9c-2.4,2.4-4.7,4.6-6.9,6.8l-2.3,2.3c-0.8,0.8-1.2,1.8-1.2,2.9v37.3h-2.7V46.5
		c0-1.9,0.7-3.5,2-4.8l2.3-2.3c2.2-2.2,4.5-4.4,6.9-6.8c0.3-0.3,0.4-0.6,0.4-1c0-0.4-0.1-0.7-0.4-1l-0.2-0.2c-0.5-0.5-1.4-0.5-1.9,0
		l-2.1,2.1c-0.4,0.4-1,0.5-1.5,0.3s-0.8-0.7-0.8-1.3V15.3c0-0.8-0.6-1.4-1.4-1.4h-0.2c-0.6,0-1.1,0.4-1.3,1V28
		c0,0.8-0.6,1.4-1.4,1.4c-0.8,0-1.4-0.6-1.4-1.4V14.8c0,0,0,0,0-0.1v-2.5c0-0.8-0.6-1.4-1.4-1.4h-0.2c-0.8,0-1.4,0.6-1.4,1.4V28
		c0,0.8-0.6,1.4-1.4,1.4c-0.8,0-1.4-0.6-1.4-1.4V14.7c-0.1-0.7-0.7-1.2-1.3-1.2h-0.2c-0.8,0-1.4,0.6-1.4,1.4v12.3
		c0,0.8-0.6,1.4-1.4,1.4c-0.8,0-1.4-0.6-1.4-1.4v-8.6c-0.2-0.5-0.7-0.9-1.3-0.9h-0.2c-0.8,0-1.4,0.6-1.4,1.4v17.5
		c0,1.3,0.5,2.5,1.4,3.4l1,1c1.4,1.5,2.1,3.3,2.1,5.3v37.5h-2.7V46.4c0-1.3-0.5-2.5-1.4-3.4l-1-1c-1.4-1.5-2.1-3.3-2.1-5.3V19.1
		c0-2.2,1.8-4.1,4.1-4.1h0.2c0.4,0,0.9,0.1,1.3,0.2v-0.3c0-2.3,1.8-4.1,4.1-4.1H47c0.5,0,1,0.1,1.5,0.3c0.5-1.7,2.1-2.9,3.9-2.9h0.2
		c2,0,3.6,1.4,4,3.3c0.4-0.2,0.9-0.2,1.4-0.2h0.2c2.3,0,4.1,1.8,4.1,4.1v13c0.7-0.7,1.7-1,2.7-1c1.1,0,2.1,0.4,2.9,1.2l0.2,0.2
		C69,29.5,69.5,30.5,69.5,31.6z"/>
	<path d="M35.4,44.5V62c0,2-0.7,3.8-2.1,5.3l-1,1c-0.9,1-1.4,2.1-1.4,3.4v12.2h-2.7V71.8c0-2,0.7-3.8,2.1-5.3l1-1
		c0.9-1,1.4-2.1,1.4-3.4V44.5c0-0.8-0.6-1.4-1.4-1.4H31c-0.6,0-1.1,0.4-1.3,0.9v8.6c0,0.8-0.6,1.4-1.4,1.4S27,53.4,27,52.6V40.3
		c0-0.8-0.6-1.4-1.4-1.4h-0.2c-0.7,0-1.2,0.5-1.3,1.2v13.3c0,0.8-0.6,1.4-1.4,1.4s-1.4-0.6-1.4-1.4V37.7c0-0.8-0.6-1.4-1.4-1.4h-0.2
		c-0.8,0-1.4,0.6-1.4,1.4v1.8c0,0.1,0,0.1,0,0.2v13.8c0,0.8-0.6,1.4-1.4,1.4s-1.4-0.6-1.4-1.4v-13c-0.2-0.6-0.7-1-1.3-1h-0.3
		c-0.8,0-1.4,0.6-1.4,1.4V57c0,0.5-0.3,1-0.8,1.3c-0.5,0.2-1.1,0.1-1.5-0.3l-2.1-2.1c-0.5-0.5-1.4-0.5-1.9,0L6.1,56
		c-0.5,0.5-0.5,1.4,0,1.9c2.4,2.4,4.7,4.6,6.9,6.8l2.3,2.3c1.3,1.3,2,3,2,4.8v12h-2.7v-12c0-1.1-0.4-2.1-1.2-2.9l-2.3-2.3
		c-2.2-2.2-4.5-4.4-6.9-6.8c-1.6-1.6-1.6-4.2,0-5.8l0.2-0.2c0.8-0.8,1.8-1.2,2.9-1.2c1,0,1.9,0.4,2.7,1v-13c0-2.3,1.8-4.1,4.1-4.1
		h0.2c0.5,0,1,0.1,1.4,0.2c0.4-1.9,2-3.3,4-3.3H20c1.8,0,3.4,1.2,3.9,2.9c0.5-0.2,1-0.3,1.5-0.3h0.2c2.3,0,4.1,1.8,4.1,4.1v0.3
		c0.4-0.1,0.8-0.2,1.3-0.2h0.2C33.5,40.4,35.4,42.2,35.4,44.5z"/>
	<path d="M93.2,45.2v17.5c0,2-0.7,3.8-2.1,5.3l-1,1c-0.9,1-1.4,2.1-1.4,3.4V84H86V72.5c0-2,0.7-3.8,2.1-5.3l1-1
		c0.9-1,1.4-2.1,1.4-3.4V45.2c0-0.8-0.6-1.4-1.4-1.4h-0.2c-0.6,0-1.1,0.4-1.3,0.9v8.6c0,0.8-0.6,1.4-1.4,1.4s-1.4-0.6-1.4-1.4V41
		c0-0.8-0.6-1.4-1.4-1.4h-0.2c-0.7,0-1.2,0.5-1.3,1.2v13.3c0,0.8-0.6,1.4-1.4,1.4s-1.4-0.6-1.4-1.4V38.4c0-0.8-0.6-1.4-1.4-1.4h-0.2
		c-0.8,0-1.4,0.6-1.4,1.4v2.5l0,0v11.6c0,0.8-0.6,1.4-1.4,1.4s-1.4-0.6-1.4-1.4V41.1c-0.2-0.6-0.7-1-1.3-1h-0.2
		c-0.8,0-1.4,0.6-1.4,1.4v16.3c0,0.5-0.3,1-0.8,1.3c-0.5,0.2-1.1,0.1-1.5-0.3L66,56.6c-0.5-0.5-1.4-0.5-1.9,0l-0.2,0.2
		c-0.3,0.3-0.4,0.6-0.4,1s0.1,0.7,0.4,1c2.4,2.4,4.6,4.6,6.8,6.8l2.4,2.3c1.3,1.3,2,3,2,4.8V84h-2.7V72.6c0-1.2-0.4-2.1-1.2-2.9
		l-2.3-2.3c-2.2-2.2-4.5-4.4-6.8-6.8c-0.8-0.8-1.2-1.8-1.2-2.9c0-1.1,0.4-2.1,1.2-2.9l0.2-0.2c0.8-0.8,1.8-1.2,2.9-1.2
		c1,0,2,0.4,2.7,1v-13c0-2.2,1.8-4.1,4.1-4.1h0.2c0.5,0,0.9,0.1,1.4,0.2c0.4-1.9,2-3.3,4-3.3h0.2c1.8,0,3.4,1.2,3.9,2.9
		c0.5-0.2,1-0.3,1.5-0.3h0.2c2.3,0,4.1,1.8,4.1,4.1v0.3c0.4-0.1,0.8-0.2,1.3-0.2H89C91.3,41.1,93.2,43,93.2,45.2z"/>
</g>
<path class="st0" d="M32.5,44.5V62c0,1.3-0.4,2.5-1.4,3.4l-1,1c-1.4,1.5-2.1,3.3-2.1,5.3l0.1,12l-10.8,0l0-11.8c0-1.9-0.7-3.5-2-4.8
	l-2.3-2.3C10.7,62.6,8.4,60.4,6,58c-0.5-0.5-0.5-1.4,0-1.9l0.2-0.2c0.5-0.5,1.4-0.5,1.9,0l2.1,2.1c0.4,0.4,1,0.5,1.5,0.3
	c0.5-0.2,0.8-0.7,0.8-1.3V40.7c0-0.8,0.6-1.4,1.4-1.4h0.3c0.6,0,1.2,0.4,1.3,1v13c0,0.8,0.6,1.4,1.4,1.4c0.8,0,1.4-0.6,1.4-1.4V39.6
	c0,0,0-0.1,0-0.2v-1.8c0-0.8,0.6-1.4,1.4-1.4h0.2c0.8,0,1.4,0.6,1.4,1.4v15.7c0,0.8,0.6,1.4,1.4,1.4c0.8,0,1.4-0.6,1.4-1.4V40.1
	c0.1-0.7,0.7-1.2,1.3-1.2h0.2c0.8,0,1.4,0.6,1.4,1.4v12.3c0,0.8,0.6,1.4,1.4,1.4c0.8,0,1.4-0.6,1.4-1.4V44c0.2-0.5,0.7-0.9,1.3-0.9
	h0.2C31.9,43.1,32.5,43.7,32.5,44.5z"/>
<path class="st1" d="M66.7,31.6c0,0.4-0.1,0.7-0.4,1c-2.4,2.4-4.7,4.6-6.9,6.8l-2.3,2.3c-1.3,1.3-2,3-2,4.8l0,37.2l-11,0l0.3-37.3
	c0-2-0.7-3.8-2.1-5.3l-1-1c-0.9-1-1.4-2.1-1.4-3.4V19.1c0-0.8,0.6-1.4,1.4-1.4h0.2c0.6,0,1.1,0.4,1.3,0.9v8.6c0,0.8,0.6,1.4,1.4,1.4
	c0.8,0,1.4-0.6,1.4-1.4V14.9c0-0.8,0.6-1.4,1.4-1.4h0.2c0.7,0,1.2,0.5,1.3,1.2V28c0,0.8,0.6,1.4,1.4,1.4c0.8,0,1.4-0.6,1.4-1.4V12.3
	c0-0.8,0.6-1.4,1.4-1.4h0.2c0.8,0,1.4,0.6,1.4,1.4v2.5v0.1v13.2c0,0.8,0.6,1.4,1.4,1.4c0.8,0,1.4-0.6,1.4-1.4V14.9
	c0.2-0.6,0.7-1,1.3-1h0.2c0.8,0,1.4,0.6,1.4,1.4v16.3c0,0.5,0.3,1,0.8,1.3c0.5,0.2,1.1,0.1,1.5-0.3l2.1-2.1c0.5-0.5,1.4-0.5,1.9,0
	l0.2,0.2C66.6,30.9,66.7,31.3,66.7,31.6z"/>
<path class="st2" d="M90.4,45.2v17.5c0,1.3-0.5,2.5-1.4,3.4l-1,1c-1.4,1.5-2.1,3.3-2.1,5.3L86,83.9l-11,0l0.1-11.3
	c0-1.9-0.7-3.5-2-4.8l-2.4-2.3c-2.2-2.2-4.4-4.4-6.8-6.8c-0.3-0.3-0.4-0.6-0.4-1s0.1-0.7,0.4-1l0.2-0.2c0.5-0.5,1.4-0.5,1.9,0
	l2.1,2.1c0.4,0.4,1,0.5,1.5,0.3s0.8-0.7,0.8-1.3V41.5c0-0.8,0.6-1.4,1.4-1.4H72c0.6,0,1.1,0.4,1.3,1v11.5c0,0.8,0.6,1.4,1.4,1.4
	s1.4-0.6,1.4-1.4V40.9l0,0v-2.5c0-0.8,0.6-1.4,1.4-1.4h0.2c0.8,0,1.4,0.6,1.4,1.4v15.7c0,0.8,0.6,1.4,1.4,1.4s1.4-0.6,1.4-1.4V40.8
	c0.1-0.7,0.7-1.2,1.3-1.2h0.2c0.8,0,1.4,0.6,1.4,1.4v12.3c0,0.8,0.6,1.4,1.4,1.4s1.4-0.6,1.4-1.4v-8.6c0.2-0.5,0.7-0.9,1.3-0.9h0.2
	C89.8,43.8,90.4,44.5,90.4,45.2z"/>
</svg>
