<?xml version="1.0" encoding="utf-8"?>
<!-- Generator: Adobe Illustrator 21.1.0, SVG Export Plug-In . SVG Version: 6.00 Build 0)  -->
<svg version="1.1" id="Layer_1" xmlns="http://www.w3.org/2000/svg" xmlns:xlink="http://www.w3.org/1999/xlink" x="0px" y="0px"
	 viewBox="0 0 100 100" style="enable-background:new 0 0 100 100;" xml:space="preserve">
<style type="text/css">
	.st0{fill:#A6E0A6;}
	.st1{fill:#D8C38D;}
	.st2{fill:#6B5415;}
</style>
<path d="M95.7,44.1L81.3,21.3c-0.2-0.3-0.6-0.6-0.9-0.7c-0.4-0.1-0.8,0-1.1,0.2l-10.1,6.5c-0.7,0.5-0.9,1.4-0.5,2.1l0.9,1.4
	l-2.1,0.8c-0.2,0.1-0.4,0.1-0.6,0.1l-6.4-1.4c-3.7-0.8-7.5-0.8-11.2-0.1l-6.1,1.1c-1.7,0.3-3.2,1.1-4.4,2.2L33,32.6
	c-0.1,0-0.2,0-0.3-0.1l-2.7-1.4c1.5-3.3,0.3-7.3-2.8-9.2c-1.7-1.1-3.7-1.4-5.6-1c-1.9,0.4-3.6,1.6-4.6,3.3L5.3,42.8
	c-1.1,1.7-1.4,3.7-1,5.6C4.7,50.3,5.9,52,7.6,53c1.2,0.8,2.6,1.1,4,1.1c0.5,0,1.1-0.1,1.6-0.2c1.5-0.4,2.9-1.2,3.9-2.4l4.8,6.3
	l-1.6,2.3c-1.5,2.2-1,5.2,1.1,6.7l0.1,0.1c0.8,0.6,1.8,0.9,2.7,0.9c0,1.5,0.7,3.1,2.1,4c0.8,0.6,1.8,0.9,2.8,0.9
	c0.3,0,0.6,0,0.9-0.1c0.3,0,0.5-0.1,0.8-0.2c0.4,1.1,1.2,2,2.2,2.5c0,0,0,0,0,0c0.7,0.4,1.5,0.6,2.3,0.6c0.8,0,1.5-0.2,2.1-0.5
	c0.5,0.9,1.2,1.6,2.2,2c0.5,0.2,1.1,0.3,1.7,0.3c1.3,0,2.6-0.6,3.5-1.7l7.3,1.1c0.5,0.1,1,0.1,1.5,0.1c2.5,0,4.9-1,6.7-2.8
	c0.2,0,0.3,0,0.5,0c1.8,0,3.5-0.9,4.6-2.5c0.6-0.8,0.8-1.7,0.8-2.6h0.1c1.9,0,3.7-0.9,4.8-2.6c0.4-0.7,0.7-1.4,0.7-2.2
	c0.1,0,0.2,0,0.4,0c1.7,0,3.4-0.8,4.4-2.4c0.8-1.2,1.1-2.6,0.8-4c0-0.2-0.1-0.4-0.2-0.6l5.8-5.4l0.2,0.2c0.2,0.3,0.6,0.6,0.9,0.7
	c0.1,0,0.2,0,0.3,0c0.3,0,0.6-0.1,0.8-0.2l10.1-6.5C95.9,45.7,96.1,44.8,95.7,44.1z M15.3,49.1c-0.6,1-1.6,1.7-2.8,2
	c-1.2,0.3-2.3,0.1-3.3-0.6c-1-0.6-1.7-1.6-2-2.8c-0.3-1.1,0-2.3,0.6-3.3l11.7-18.6c0.6-1,1.6-1.7,2.8-1.9c0.3-0.1,0.7-0.1,1-0.1
	c0.8,0,1.6,0.2,2.4,0.7c1.3,0.8,2.1,2.3,2.1,3.7c0,0.8-0.2,1.6-0.7,2.4L15.3,49.1z M25.7,64.2c-0.3,0.3-0.6,0.5-1,0.6
	c-0.5,0.1-1,0-1.4-0.3l-0.1-0.1c-0.8-0.6-1-1.7-0.4-2.5l2.9-4.1c0.3-0.5,0.9-0.8,1.5-0.8c0.3,0,0.7,0.1,1,0.3
	c0.4,0.3,0.7,0.7,0.8,1.2c0.1,0.5,0,0.9-0.2,1.3L25.7,64.2z M31.3,67.9c-0.1,0.1-0.1,0.2-0.2,0.4l-0.4,0.6c-0.3,0.4-0.7,0.7-1.2,0.8
	c-0.5,0.1-1,0-1.4-0.3c-0.8-0.6-1-1.8-0.5-2.6l0.6-0.9c0,0,0.1-0.1,0.1-0.2c0.9-1.3,1.9-2.8,2.8-4.1c0,0,0-0.1,0.1-0.1l2.4-3.5
	c0.4-0.5,1-0.8,1.5-0.8c0.4,0,0.7,0.1,1,0.3c0.4,0.3,0.7,0.7,0.8,1.2c0.1,0.5,0,1-0.3,1.4l-0.8,1.2c0,0,0,0-0.1,0.1L31.3,67.9z
	 M37.7,70.4c-0.1,0.1-0.1,0.2-0.2,0.3l-0.7,1c-0.5,0.8-1.6,1-2.4,0.6c0,0,0,0,0,0c-0.5-0.2-0.8-0.7-0.9-1.2
	c-0.1-0.4-0.1-0.8,0.1-1.1l4.8-7c0.3-0.4,0.7-0.7,1.2-0.7c0.5-0.1,1,0.1,1.4,0.4c0.8,0.6,0.9,1.7,0.4,2.5l-1.4,2
	c0,0-0.1,0.1-0.1,0.1L37.7,70.4z M44.7,70.6l-2.2,3.2c-0.4,0.6-1.1,0.8-1.7,0.5c-0.4-0.2-0.7-0.5-0.8-0.9c-0.1-0.3-0.1-0.6,0-0.9
	l2.5-3.6c0.2-0.3,0.5-0.4,0.9-0.5c0.1,0,0.1,0,0.2,0c0.3,0,0.6,0.1,0.9,0.3c0,0,0,0,0,0C45,69.2,45.1,70,44.7,70.6z M74,60.3
	c-0.7,1-2.1,1.3-3.1,0.7l-1.3-0.8L69.3,60l-11.2-6.7c-0.7-0.4-1.6-0.2-2.1,0.5c-0.4,0.7-0.2,1.6,0.5,2.1L68,62.8
	c0.4,0.2,0.6,0.5,0.7,0.9c0.1,0.4,0,0.8-0.2,1.1c-0.8,1.2-2.3,1.6-3.6,0.9l-10-5.4c-0.7-0.4-1.6-0.1-2,0.6c-0.4,0.7-0.1,1.6,0.6,2
	l7.2,3.9l1.8,1.1c0.3,0.2,0.6,0.5,0.6,0.9c0.1,0.4,0,0.8-0.2,1.1c0,0-0.1,0.1-0.1,0.1c-0.7,1.1-2,1.4-3.2,0.9L51.9,67
	c-0.7-0.4-1.6-0.1-2,0.6c-0.4,0.7-0.1,1.7,0.7,2l6.4,3.3c-1.3,0.8-2.9,1.2-4.5,0.9l-5.8-0.9l0.4-0.6c1.3-1.9,1-4.5-0.8-5.9
	c0,0,0,0,0,0c-0.5-0.5-1.2-0.7-1.9-0.9c0.5-1.8,0-3.9-1.6-5.2c-0.8-0.7-1.8-1-2.9-1.1c0-0.4,0-0.8-0.1-1.2c-0.3-1.3-1-2.4-2.1-3.1
	c-2.2-1.4-5.2-0.8-6.6,1.3c-0.4-0.6-0.9-1.1-1.5-1.5c-1.9-1.2-4.3-0.9-5.9,0.7L18.9,49l9.6-15.3l2.8,1.5c0.4,0.2,0.8,0.3,1.2,0.4
	l3.9,0.6l-3.9,5.1c-0.7,0.9-1,2-0.8,3c0.2,1.1,0.7,2.1,1.6,2.7c1.3,1,3,1.1,4.4,0.4l11-5.7c0.3-0.2,0.8-0.2,1.1,0L73.3,57
	c0.5,0.3,0.9,0.9,1,1.5S74.4,59.7,74,60.3z M75.4,54.9c-0.1-0.1-0.3-0.2-0.4-0.3L51.4,39.2c-1.2-0.8-2.8-0.9-4.1-0.2l-11,5.7
	c-0.4,0.2-0.8,0.2-1.2-0.1c-0.2-0.2-0.4-0.4-0.4-0.7c0-0.3,0-0.6,0.2-0.8l5.2-6.7c0.9-1.1,2.1-1.9,3.6-2.2l6-1.1
	c3.4-0.6,6.7-0.6,10.1,0.1l6.4,1.4c0.8,0.2,1.6,0.1,2.4-0.2l2.6-1l10.1,16L75.4,54.9z M84.8,49.3L72,29l7.5-4.8l12.8,20.2L84.8,49.3
	z"/>
<path class="st0" d="M27.7,28.2c0,0.8-0.2,1.6-0.7,2.4L15.3,49.1c-0.6,1-1.6,1.7-2.8,2c-1.2,0.3-2.3,0.1-3.3-0.6
	c-1-0.6-1.7-1.6-2-2.8c-0.3-1.1,0-2.3,0.6-3.3l11.7-18.6c0.6-1,1.6-1.7,2.8-1.9c0.3-0.1,0.7-0.1,1-0.1c0.8,0,1.6,0.2,2.4,0.7
	C27,25.2,27.7,26.7,27.7,28.2z"/>
<path class="st1" d="M44.7,70.6l-2.2,3.2c-0.4,0.6-1.1,0.8-1.7,0.5c-0.4-0.2-0.7-0.5-0.8-0.9c-0.1-0.3-0.1-0.6,0-0.9l2.5-3.6
	c0.2-0.3,0.5-0.4,0.9-0.5c0.1,0,0.1,0,0.2,0c0.3,0,0.6,0.1,0.9,0.3c0,0,0,0,0,0C45,69.2,45.1,70,44.7,70.6z"/>
<path class="st1" d="M41.3,65.2l-1.4,2c0,0-0.1,0.1-0.1,0.1l-2.2,3.1c-0.1,0.1-0.1,0.2-0.2,0.3l-0.7,1c-0.5,0.8-1.6,1-2.4,0.6
	c0,0,0,0,0,0c-0.5-0.2-0.8-0.7-0.9-1.2c-0.1-0.4-0.1-0.8,0.1-1.1l4.8-7c0.3-0.4,0.7-0.7,1.2-0.7c0.5-0.1,1,0.1,1.4,0.4
	C41.7,63.3,41.9,64.4,41.3,65.2z"/>
<path class="st1" d="M28.7,59.8l-3,4.4c-0.3,0.3-0.6,0.5-1,0.6c-0.5,0.1-1,0-1.4-0.3l-0.1-0.1c-0.8-0.6-1-1.7-0.4-2.5l2.9-4.1
	c0.3-0.5,0.9-0.8,1.5-0.8c0.3,0,0.7,0.1,1,0.3c0.4,0.3,0.7,0.7,0.8,1.2C29,58.9,28.9,59.4,28.7,59.8z"/>
<path class="st1" d="M36.7,60.1l-0.8,1.2c0,0,0,0-0.1,0.1l-4.5,6.6c-0.1,0.1-0.1,0.2-0.2,0.4l-0.4,0.6c-0.3,0.4-0.7,0.7-1.2,0.8
	c-0.5,0.1-1,0-1.4-0.3c-0.8-0.6-1-1.8-0.5-2.6l0.6-0.9c0,0,0.1-0.1,0.1-0.2c0.9-1.3,1.9-2.8,2.8-4.1c0,0,0-0.1,0.1-0.1l2.4-3.5
	c0.4-0.5,1-0.8,1.5-0.8c0.4,0,0.7,0.1,1,0.3c0.4,0.3,0.7,0.7,0.8,1.2C37,59.1,36.9,59.7,36.7,60.1z"/>
<path class="st1" d="M81.2,49.3l-5.8,5.5c-0.1-0.1-0.3-0.2-0.4-0.3L51.4,39.2c-1.2-0.8-2.8-0.9-4.1-0.2l-11,5.7
	c-0.4,0.2-0.8,0.2-1.2-0.1c-0.2-0.2-0.4-0.4-0.4-0.7c0-0.3,0-0.6,0.2-0.8l5.2-6.7c0.9-1.1,2.1-1.9,3.6-2.2l6-1.1
	c3.4-0.6,6.7-0.6,10.1,0.1l6.4,1.4c0.8,0.2,1.6,0.1,2.4-0.2l2.6-1L81.2,49.3z"/>
<path class="st2" d="M74,60.3c-0.7,1-2.1,1.3-3.1,0.7l-1.3-0.8L69.3,60l-11.2-6.7c-0.7-0.4-1.6-0.2-2.1,0.5
	c-0.4,0.7-0.2,1.6,0.5,2.1L68,62.8c0.4,0.2,0.6,0.5,0.7,0.9c0.1,0.4,0,0.8-0.2,1.1c-0.8,1.2-2.3,1.6-3.6,0.9l-10-5.4
	c-0.7-0.4-1.6-0.1-2,0.6c-0.4,0.7-0.1,1.6,0.6,2l7.2,3.9l1.8,1.1c0.3,0.2,0.6,0.5,0.6,0.9c0.1,0.4,0,0.8-0.2,1.1
	c0,0-0.1,0.1-0.1,0.1c-0.7,1.1-2,1.4-3.2,0.9L51.9,67c-0.7-0.4-1.6-0.1-2,0.6c-0.4,0.7-0.1,1.7,0.7,2l6.4,3.3
	c-1.3,0.8-2.9,1.2-4.5,0.9l-5.8-0.9l0.4-0.6c1.3-1.9,1-4.5-0.8-5.9c0,0,0,0,0,0c-0.5-0.5-1.2-0.7-1.9-0.9c0.5-1.8,0-3.9-1.6-5.2
	c-0.8-0.7-1.8-1-2.9-1.1c0-0.4,0-0.8-0.1-1.2c-0.3-1.3-1-2.4-2.1-3.1c-2.2-1.4-5.2-0.8-6.6,1.3c-0.4-0.6-0.9-1.1-1.5-1.5
	c-1.9-1.2-4.3-0.9-5.9,0.7L18.9,49l9.6-15.3l2.8,1.5c0.4,0.2,0.8,0.3,1.2,0.4l3.9,0.6l-3.9,5.1c-0.7,0.9-1,2-0.8,3
	c0.2,1.1,0.7,2.1,1.6,2.7c1.3,1,3,1.1,4.4,0.4l11-5.7c0.3-0.2,0.8-0.2,1.1,0L73.3,57c0.5,0.3,0.9,0.9,1,1.5S74.4,59.7,74,60.3z"/>
</svg>
