<?xml version="1.0" encoding="utf-8"?>
<!-- Generator: Adobe Illustrator 21.1.0, SVG Export Plug-In . SVG Version: 6.00 Build 0)  -->
<svg version="1.1" xmlns="http://www.w3.org/2000/svg" xmlns:xlink="http://www.w3.org/1999/xlink" x="0px" y="0px"
	 viewBox="0 0 64 60" style="enable-background:new 0 0 64 60;" xml:space="preserve">
<style type="text/css">
	.st0{fill:#D3D3D3;}
	.st1{fill:#C0EDF9;}
</style>
<g id="art">
	<g>
		<path d="M63,46v5c0,2.8-2.2,5-5,5H6c-2.8,0-5-2.2-5-5v-5h20v2H3v3c0,1.7,1.3,3,3,3h52c1.7,0,3-1.3,3-3v-3H43v-2H63z"/>
		<path d="M21,46v3c0,1.7,1.3,3,3,3h16c1.7,0,3-1.3,3-3v-3H21z M41,49c0,0.5-0.5,1-1,1H24c-0.5,0-1-0.5-1-1v-1h18V49z"/>
		<path class="st0" d="M61,48v3c0,1.7-1.3,3-3,3H6c-1.7,0-3-1.3-3-3v-3h18v1c0,1.7,1.3,3,3,3h16c1.7,0,3-1.3,3-3v-1H61z"/>
		<rect x="7" y="50" width="2" height="2"/>
		<rect x="11" y="50" width="2" height="2"/>
		<rect x="15" y="50" width="2" height="2"/>
		<path d="M63,9v38h-2V9c0-1.7-1.3-3-3-3H6C4.3,6,3,7.3,3,9v38H1V9c0-2.8,2.2-5,5-5h52C60.8,4,63,6.2,63,9z"/>
		<path class="st0" d="M61,9v37h-2V10c0-1.1-0.9-2-2-2H7c-1.1,0-2,0.9-2,2v36H3V9c0-1.7,1.3-3,3-3h52C59.7,6,61,7.3,61,9z"/>
		<rect x="7" y="10" class="st1" width="50" height="36"/>
		<path d="M59,10v37h-2V10H7v37H5V10c0-1.1,0.9-2,2-2h50C58.1,8,59,8.9,59,10z"/>
	</g>
</g>
<g id="text">
</g>
</svg>
