<?xml version="1.0" encoding="utf-8"?>
<!-- Generator: Adobe Illustrator 21.1.0, SVG Export Plug-In . SVG Version: 6.00 Build 0)  -->
<svg version="1.1" id="Layer_1" xmlns="http://www.w3.org/2000/svg" xmlns:xlink="http://www.w3.org/1999/xlink" x="0px" y="0px"
	 viewBox="0 0 64 60" style="enable-background:new 0 0 64 60;" xml:space="preserve">
<g>
	<path d="M45,46v2h16v3c0,1.7-1.3,3-3,3H6c-1.7,0-3-1.3-3-3v-3h16v-2H1v5c0,2.8,2.2,5,5,5h52c2.8,0,5-2.2,5-5v-5H45z"/>
	<path d="M24,52h16c1.7,0,3-1.3,3-3v-3H21v3C21,50.7,22.3,52,24,52z M23,48h18v1c0,0.6-0.4,1-1,1H24c-0.6,0-1-0.4-1-1V48z"/>
	<rect x="7" y="50" width="2" height="2"/>
	<rect x="11" y="50" width="2" height="2"/>
	<rect x="15" y="50" width="2" height="2"/>
	<path d="M3,9c0-1.7,1.3-3,3-3h52c1.7,0,3,1.3,3,3v35h2V9c0-2.8-2.2-5-5-5H6C3.2,4,1,6.2,1,9v35h2V9z"/>
	<path d="M59,44V10c0-1.1-0.9-2-2-2H7c-1.1,0-2,0.9-2,2v34h2V10h50v34H59z"/>
</g>
</svg>
