<?xml version="1.0" encoding="utf-8"?>
<!-- Generator: Adobe Illustrator 21.1.0, SVG Export Plug-In . SVG Version: 6.00 Build 0)  -->
<svg version="1.1" id="Layer_1" xmlns="http://www.w3.org/2000/svg" xmlns:xlink="http://www.w3.org/1999/xlink" x="0px" y="0px"
	 viewBox="0 0 64 64" style="enable-background:new 0 0 64 64;" xml:space="preserve">
<style type="text/css">
	.st0{fill:#331803;stroke:#000000;stroke-miterlimit:10;}
	.st1{fill:#76DD99;}
	.st2{fill:#0DBABA;}
	.st3{fill:#60390A;}
	.st4{fill:#FFFFFF;}
</style>
<path d="M46,46h-7v-3.6c3.8-1.9,6.8-5.2,8.2-9.4h0.5c1,0,1.9-0.6,2.4-1.5c0.3-0.6,0.5-1.2,0.4-1.8c0.5-0.3,0.9-0.9,1.2-1.5
	c0.2-0.6,0.2-1.3,0.1-1.9c0.5-0.4,0.8-1,0.9-1.7c0.1-0.6,0-1.3-0.3-1.9c0.4-0.5,0.6-1.1,0.6-1.8c0-0.7-0.2-1.3-0.6-1.8
	c0.3-0.6,0.4-1.2,0.3-1.9c-0.1-0.6-0.4-1.2-0.9-1.6c0.2-0.6,0.2-1.3-0.1-1.9c-0.2-0.6-0.6-1.1-1.2-1.5c0.1-0.6,0-1.3-0.4-1.8
	c-0.3-0.6-0.8-1-1.4-1.2c0-0.6-0.3-1.2-0.7-1.8c-0.4-0.5-1-0.8-1.6-1c-0.1-0.6-0.5-1.2-1-1.6c-0.5-0.4-1.1-0.7-1.8-0.7
	c-0.2-0.6-0.7-1.1-1.2-1.4c-0.6-0.3-1.2-0.5-1.8-0.4c-0.4-0.5-0.9-0.9-1.5-1.2C38.6,1,37.9,1,37.3,1.2c-0.4-0.5-1-0.8-1.6-0.9
	c-0.7-0.1-1.3,0-1.9,0.3C33.3,0.2,32.7,0,32,0c-0.6,0-1.3,0.2-1.8,0.6c-0.6-0.3-1.2-0.4-1.9-0.3c-0.6,0.1-1.2,0.4-1.7,0.9
	C26.1,1,25.4,1,24.8,1.3c-0.6,0.2-1.1,0.6-1.5,1.2c-0.6-0.1-1.3,0.1-1.8,0.4c-0.6,0.3-1,0.8-1.2,1.4c-0.6,0-1.2,0.3-1.8,0.7
	c-0.5,0.4-0.8,1-1,1.6c-0.6,0.1-1.2,0.5-1.6,1c-0.4,0.5-0.7,1.1-0.7,1.8c-0.6,0.3-1.1,0.7-1.4,1.2c-0.3,0.6-0.5,1.2-0.4,1.8
	c-0.5,0.4-0.9,0.9-1.2,1.5c-0.2,0.6-0.2,1.3-0.1,1.9c-0.5,0.4-0.8,1-0.9,1.7c-0.1,0.7,0,1.3,0.3,1.9C11.2,19.7,11,20.3,11,21
	s0.2,1.3,0.6,1.8c-0.3,0.6-0.4,1.2-0.3,1.9c0.1,0.6,0.4,1.2,0.9,1.7C12,27,12,27.7,12.3,28.3c0.2,0.6,0.6,1.1,1.2,1.5
	c-0.1,0.6,0.1,1.3,0.4,1.8c0.5,0.9,1.4,1.4,2.4,1.5c0,0,0,0,0.1,0h0.5c1.4,4.1,4.3,7.5,8.2,9.4V46h-7c-3.9,0-7,3.1-7,7v9
	c0,1.1,0.9,2,2,2h38c1.1,0,2-0.9,2-2v-9C53,49.1,49.9,46,46,46z M16.3,20.3c-0.1,0.1-0.2,0.2-0.2,0.3c0,0.1-0.1,0.2-0.1,0.4v7
	c0,1,0.1,2,0.3,3c-0.3,0-0.6-0.2-0.8-0.5s-0.2-0.7,0-1c0.1-0.3,0.1-0.6,0-0.9c-0.1-0.3-0.4-0.5-0.7-0.6s-0.6-0.3-0.7-0.6
	c-0.1-0.3-0.1-0.7,0.1-0.9s0.2-0.6,0.2-0.9c-0.1-0.3-0.3-0.5-0.6-0.7c-0.3-0.1-0.5-0.4-0.6-0.7c-0.1-0.3,0.1-0.7,0.3-0.9
	s0.3-0.5,0.3-0.8s-0.2-0.6-0.5-0.8c-0.1,0-0.3-0.4-0.3-0.7s0.2-0.7,0.5-0.8c0.2-0.2,0.4-0.5,0.4-0.8c0-0.3-0.1-0.6-0.3-0.8
	c-0.2-0.2-0.4-0.6-0.3-0.9c0.1-0.3,0.3-0.6,0.6-0.8c0.3-0.1,0.5-0.4,0.6-0.7s0-0.6-0.2-0.8c-0.2-0.3-0.3-0.6-0.1-0.9
	c0.1-0.3,0.4-0.5,0.7-0.6c0.3-0.1,0.5-0.3,0.7-0.5c0.1-0.3,0.1-0.6,0-0.9c-0.2-0.3-0.1-0.7,0-1c0.2-0.3,0.5-0.5,0.8-0.5
	c0.3,0,0.6-0.2,0.8-0.4c0.2-0.3,0.2-0.6,0.1-0.9c-0.1-0.3,0-0.7,0.2-0.9c0.2-0.3,0.5-0.4,0.9-0.3c0.3,0,0.6-0.1,0.8-0.3
	s0.3-0.5,0.3-0.8c0-0.3,0.1-0.7,0.4-0.9c0.3-0.2,0.6-0.3,0.9-0.2c0.3,0.1,0.6,0,0.9-0.1C22,6.1,22,5.7,22,5.4c0-0.3,0.2-0.6,0.5-0.8
	c0.3-0.2,0.7-0.2,1,0c0.3,0.1,0.6,0.1,0.9,0c0.3-0.1,0.5-0.4,0.5-0.7c0.1-0.3,0.3-0.6,0.6-0.7c0.3-0.1,0.7-0.1,0.9,0.1
	c0.2,0.2,0.6,0.2,0.9,0.2c0.3-0.1,0.5-0.3,0.7-0.6c0.1-0.3,0.4-0.5,0.7-0.6c0.3-0.1,0.7,0.1,0.9,0.3c0.2,0.2,0.5,0.3,0.8,0.3
	c0.3,0,0.6-0.2,0.7-0.5C31.3,2.2,31.6,2,32,2c0.3,0,0.7,0.2,0.8,0.5C33,2.8,33.3,2.9,33.6,3c0.3,0,0.6-0.1,0.8-0.3
	c0.2-0.2,0.6-0.4,0.9-0.3C35.6,2.5,35.9,2.7,36,3s0.4,0.5,0.7,0.6c0.3,0.1,0.6,0,0.9-0.2c0.3-0.2,0.6-0.2,0.9-0.1
	C38.8,3.4,39,3.7,39.1,4c0.1,0.3,0.3,0.6,0.5,0.7c0.3,0.1,0.6,0.1,0.9,0c0.3-0.2,0.7-0.2,1,0C41.8,4.7,42,5,42,5.3s0.2,0.6,0.4,0.8
	c0.2,0.2,0.6,0.2,0.9,0.1c0.3-0.1,0.7,0,0.9,0.2c0.3,0.2,0.4,0.5,0.3,0.9c0,0.3,0.1,0.6,0.3,0.8c0.2,0.2,0.5,0.3,0.8,0.3
	c0.4,0,0.7,0.1,0.9,0.4s0.3,0.6,0.2,0.9c-0.1,0.3,0,0.6,0.1,0.9c0.2,0.3,0.5,0.4,0.8,0.4c0.3,0,0.6,0.2,0.8,0.5c0.2,0.3,0.2,0.6,0,1
	c-0.1,0.3-0.1,0.6,0,0.9c0.1,0.3,0.4,0.5,0.7,0.5c0.3,0.1,0.6,0.3,0.7,0.6c0.1,0.3,0.1,0.7-0.1,0.9c-0.2,0.2-0.2,0.6-0.2,0.9
	c0.1,0.3,0.3,0.5,0.6,0.7c0.3,0.1,0.5,0.4,0.6,0.8c0.1,0.4-0.1,0.7-0.3,0.9c-0.2,0.2-0.3,0.5-0.3,0.8s0.2,0.6,0.4,0.8
	c0.3,0.2,0.5,0.5,0.5,0.8c0,0.3-0.2,0.7-0.5,0.8c-0.3,0.2-0.4,0.4-0.4,0.8c0,0.3,0.1,0.6,0.3,0.8c0.2,0.2,0.4,0.6,0.3,0.9
	c-0.1,0.3-0.3,0.6-0.6,0.8c-0.3,0.1-0.5,0.4-0.6,0.7c-0.1,0.3,0,0.6,0.2,0.8c0.2,0.3,0.2,0.6,0.1,0.9c-0.1,0.3-0.4,0.5-0.7,0.6
	c-0.3,0.1-0.5,0.3-0.7,0.5c-0.1,0.3-0.1,0.6,0,0.9c0.2,0.3,0.1,0.7,0,1c-0.2,0.3-0.4,0.4-0.7,0.5c0.2-1,0.3-2,0.3-3v-7
	c0-0.3-0.1-0.5-0.3-0.7l-3.1-3.1c-0.1,0-0.1-0.1-0.2-0.1c-0.1,0-0.1,0-0.2,0c-0.1,0-0.1,0-0.2,0s-0.1,0-0.2,0c0,0-0.1,0-0.2,0
	c-0.1,0-5.9,2-11.7,2c-5.8,0-11.6-1.9-11.7-2c0,0-0.1,0-0.2,0s-0.1,0-0.2,0c-0.1,0-0.1,0-0.2,0c-0.1,0-0.1,0-0.2,0.1
	c-0.1,0-0.1,0.1-0.2,0.1c0,0-0.1,0-0.1,0.1L16.3,20.3z M18,28v-6.6l2.3-2.3C22,19.6,26.9,21,32,21s10-1.4,11.7-1.9l2.3,2.3V28
	c0,7.7-6.3,14-14,14S18,35.7,18,28z M37.3,47.7L32,55.2l-5.3-7.5c0.2-0.2,0.3-0.4,0.3-0.7v-3.8c1.6,0.5,3.2,0.8,5,0.8s3.4-0.3,5-0.8
	V47C37,47.3,37.1,47.5,37.3,47.7z M13,62v-9c0-2.8,2.2-5,5-5h2.5l9.6,14H13z M22.9,48h1.6l6.7,9.6c0,0,0,0,0.1,0
	c0.1,0.1,0.1,0.1,0.2,0.2c0,0,0,0,0.1,0h0.1c0,0.2,0.2,0.2,0.3,0.2s0.3,0,0.4-0.1h0.2c0.1,0,0.1-0.1,0.2-0.2c0,0,0,0,0.1,0l6.7-9.6
	h1.6L32,61.2L22.9,48z M51,62H33.9l9.6-14H46c2.8,0,5,2.2,5,5V62z"/>
<path class="st0" d="M50.4,23.5c0.2,0.2,0.4,0.6,0.3,0.9c-0.1,0.3-0.3,0.6-0.6,0.8c-0.3,0.1-0.5,0.4-0.6,0.7c-0.1,0.3,0,0.6,0.2,0.8
	c0.2,0.3,0.2,0.6,0.1,0.9c-0.1,0.3-0.4,0.5-0.7,0.6c-0.3,0.1-0.5,0.3-0.7,0.5c-0.1,0.3-0.1,0.6,0,0.9c0.2,0.3,0.1,0.7,0,1
	c-0.2,0.3-0.4,0.4-0.7,0.5c0.2-1,0.3-2,0.3-3v-7c0-0.3-0.1-0.5-0.3-0.7l-3.1-3.1c-0.1,0-0.1-0.1-0.2-0.1c-0.1,0-0.1,0-0.2,0
	c-0.1,0-0.1,0-0.2,0s-0.1,0-0.2,0c0,0-0.1,0-0.2,0c-0.1,0-5.9,2.2-11.7,2.2c-5.8,0-11.6-2.1-11.7-2.2c0,0-0.1,0-0.2,0s-0.1,0-0.2,0
	c-0.1,0-0.1,0-0.2,0c-0.1,0-0.1,0-0.2,0.1c-0.1,0-0.1,0.1-0.2,0.1c0,0-0.1,0-0.1,0.1l-2.7,2.9c-0.1,0.1-0.3,0.1-0.3,0.2
	c0,0.1-0.1,0.2-0.1,0.4l0.1,7c0,1,0,2,0.2,3c-0.3,0-0.6-0.2-0.8-0.5s-0.2-0.7,0-1c0.1-0.3,0.1-0.6,0-0.9c-0.1-0.3-0.4-0.5-0.7-0.6
	s-0.6-0.3-0.7-0.6c-0.1-0.3-0.1-0.7,0.1-0.9s0.2-0.6,0.2-0.9c-0.1-0.3-0.3-0.5-0.6-0.7c-0.3-0.1-0.5-0.4-0.6-0.7
	c-0.1-0.3,0.1-0.7,0.3-0.9s0.3-0.5,0.3-0.8s-0.2-0.6-0.5-0.8c-0.1,0-0.3-0.4-0.3-0.7s0.2-0.7,0.5-0.8c0.2-0.2,0.4-0.5,0.4-0.8
	c0-0.3-0.1-0.6-0.3-0.8c-0.2-0.2-0.4-0.6-0.3-0.9c0.1-0.3,0.3-0.6,0.6-0.8c0.3-0.1,0.5-0.4,0.6-0.7s0-0.6-0.2-0.8
	c-0.2-0.3-0.3-0.6-0.1-0.9c0.1-0.3,0.4-0.5,0.7-0.6c0.3-0.1,0.5-0.3,0.7-0.5c0.1-0.3,0.1-0.6,0-0.9c-0.2-0.3-0.1-0.7,0-1
	c0.2-0.3,0.5-0.5,0.8-0.5c0.3,0,0.6-0.2,0.8-0.4c0.2-0.3,0.2-0.6,0.1-0.9c-0.1-0.3,0-0.7,0.2-0.9c0.2-0.3,0.5-0.4,0.9-0.3
	c0.3,0,0.6-0.1,0.8-0.3s0.3-0.5,0.3-0.8c0-0.3,0.1-0.7,0.4-0.9c0.3-0.2,0.6-0.3,0.9-0.2c0.3,0.1,0.6,0,0.9-0.1C22,6.1,22,5.7,22,5.4
	c0-0.3,0.2-0.6,0.5-0.8c0.3-0.2,0.7-0.2,1,0c0.3,0.1,0.6,0.1,0.9,0c0.3-0.1,0.5-0.4,0.5-0.7c0.1-0.3,0.3-0.6,0.6-0.7
	c0.3-0.1,0.7-0.1,0.9,0.1c0.2,0.2,0.6,0.2,0.9,0.2c0.3-0.1,0.5-0.3,0.7-0.6c0.1-0.3,0.4-0.5,0.7-0.6c0.3-0.1,0.7,0.1,0.9,0.3
	c0.2,0.2,0.5,0.3,0.8,0.3c0.3,0,0.6-0.2,0.7-0.5C31.3,2.2,31.6,2,32,2c0.3,0,0.7,0.2,0.8,0.5C33,2.8,33.3,2.9,33.6,3
	c0.3,0,0.6-0.1,0.8-0.3c0.2-0.2,0.6-0.4,0.9-0.3C35.6,2.5,35.9,2.7,36,3s0.4,0.5,0.7,0.6c0.3,0.1,0.6,0,0.9-0.2
	c0.3-0.2,0.6-0.2,0.9-0.1C38.8,3.4,39,3.7,39.1,4c0.1,0.3,0.3,0.6,0.5,0.7c0.3,0.1,0.6,0.1,0.9,0c0.3-0.2,0.7-0.2,1,0
	C41.8,4.7,42,5,42,5.3s0.2,0.6,0.4,0.8c0.2,0.2,0.6,0.2,0.9,0.1c0.3-0.1,0.7,0,0.9,0.2c0.3,0.2,0.4,0.5,0.3,0.9
	c0,0.3,0.1,0.6,0.3,0.8c0.2,0.2,0.5,0.3,0.8,0.3c0.4,0,0.7,0.1,0.9,0.4s0.3,0.6,0.2,0.9c-0.1,0.3,0,0.6,0.1,0.9
	c0.2,0.3,0.5,0.4,0.8,0.4c0.3,0,0.6,0.2,0.8,0.5c0.2,0.3,0.2,0.6,0,1c-0.1,0.3-0.1,0.6,0,0.9c0.1,0.3,0.4,0.5,0.7,0.5
	c0.3,0.1,0.6,0.3,0.7,0.6c0.1,0.3,0.1,0.7-0.1,0.9c-0.2,0.2-0.2,0.6-0.2,0.9c0.1,0.3,0.3,0.5,0.6,0.7c0.3,0.1,0.5,0.4,0.6,0.8
	c0.1,0.4-0.1,0.7-0.3,0.9c-0.2,0.2-0.3,0.5-0.3,0.8s0.2,0.6,0.4,0.8c0.3,0.2,0.5,0.5,0.5,0.8c0,0.3-0.2,0.7-0.5,0.8
	c-0.3,0.2-0.4,0.4-0.4,0.8C50.1,23,50.2,23.3,50.4,23.5z"/>
<path class="st1" d="M30.1,62H13v-9c0-2.8,2.2-5,5-5h2.5L30.1,62z"/>
<path class="st1" d="M51,53v9H33.9l9.6-14H46C48.8,48,51,50.2,51,53z"/>
<path class="st2" d="M41.1,48L32,61.2L22.9,48h1.6l6.7,9.6c0,0,0,0,0.1,0c0.1,0.1,0.1,0.1,0.2,0.2c0,0,0,0,0.1,0h0.1
	c0,0.2,0.2,0.2,0.3,0.2c0.1,0,0.3,0,0.4-0.1h0.1h0.1c0.1,0,0.1-0.1,0.2-0.2c0,0,0,0,0.1,0l6.7-9.6L41.1,48L41.1,48z"/>
<path class="st3" d="M37.3,47.7L32,55.2l-5.3-7.5c0.2-0.2,0.3-0.4,0.3-0.7v-3.8c1.6,0.5,3.2,0.8,5,0.8s3.4-0.3,5-0.8V47
	C37,47.3,37.1,47.5,37.3,47.7z"/>
<path class="st3" d="M46,21.4V28c0,7.7-6.3,14-14,14s-14-6.3-14-14v-6.6l2.3-2.3C22,19.6,26.9,21,32,21s10-1.4,11.7-1.9L46,21.4z"/>
<path d="M26.9,27.7c-1,0-1.8,0.8-1.8,1.8s0.8,1.8,1.8,1.8s1.8-0.8,1.8-1.8S27.9,27.7,26.9,27.7z M26.7,29.5c0-0.1,0.1-0.2,0.2-0.2
	s0.2,0.1,0.2,0.2C27.1,29.8,26.7,29.8,26.7,29.5z"/>
<path class="st4" d="M27.1,29.5c0,0.3-0.4,0.3-0.4,0c0-0.1,0.1-0.2,0.2-0.2C27,29.3,27.1,29.4,27.1,29.5z"/>
<path d="M36.9,27.7c-1,0-1.8,0.8-1.8,1.8s0.8,1.8,1.8,1.8s1.8-0.8,1.8-1.8S37.9,27.7,36.9,27.7z M36.7,29.5c0-0.1,0.1-0.2,0.2-0.2
	c0.1,0,0.2,0.1,0.2,0.2C37.1,29.8,36.7,29.8,36.7,29.5z"/>
<path class="st4" d="M37.1,29.5c0,0.3-0.4,0.3-0.4,0c0-0.1,0.1-0.2,0.2-0.2S37.1,29.4,37.1,29.5z"/>
<path d="M35.7,34.5h-1.5c0,1.2-1,2.2-2.2,2.2s-2.2-1-2.2-2.2h-1.5c0,2.1,1.7,3.8,3.8,3.8S35.7,36.6,35.7,34.5z"/>
</svg>
