<svg xmlns="http://www.w3.org/2000/svg" xmlns:xlink="http://www.w3.org/1999/xlink" version="1.1" x="0px" y="0px" viewBox="0 0 42 52.5" style="enable-background:new 0 0 42 42;" xml:space="preserve"><path d="M11,31c0.3,0,0.5-0.1,0.7-0.3l7.3-7.3l4.3,4.3c0.4,0.4,1,0.4,1.4,0l7.3-7.3V22c0,0.6,0.4,1,1,1s1-0.4,1-1  v-4c0-0.1,0-0.3-0.1-0.4c-0.1-0.2-0.3-0.4-0.5-0.5C33.3,17,33.1,17,33,17h-4c-0.6,0-1,0.4-1,1s0.4,1,1,1h1.6L24,25.6l-4.3-4.3  c-0.4-0.4-1-0.4-1.4,0l-8,8c-0.4,0.4-0.4,1,0,1.4C10.5,30.9,10.7,31,11,31z"/><path d="M35,35H8V8c0-0.6-0.4-1-1-1S6,7.4,6,8v28c0,0.6,0.4,1,1,1h28c0.6,0,1-0.4,1-1S35.6,35,35,35z"/><path d="M21,15c-0.6,0-1,0.4-1,1s0.4,1,1,1h1v1c0,0.6,0.4,1,1,1s1-0.4,1-1v-1c1.1,0,2-0.9,2-2v-1c0-1.1-0.9-2-2-2  h-2v-1h3c0.6,0,1-0.4,1-1s-0.4-1-1-1h-1V8c0-0.6-0.4-1-1-1s-1,0.4-1,1v1c-1.1,0-2,0.9-2,2v1c0,1.1,0.9,2,2,2h2v1H21z"/><text x="0" y="57" fill="#000000" font-size="5px" font-weight="bold" font-family="'Helvetica Neue', Helvetica, Arial-Unicode, Arial, Sans-serif">Created by Josy Dom Alexis</text><text x="0" y="62" fill="#000000" font-size="5px" font-weight="bold" font-family="'Helvetica Neue', Helvetica, Arial-Unicode, Arial, Sans-serif">from the Noun Project</text></svg>