<?xml version="1.0" encoding="utf-8"?>
<!-- Generator: Adobe Illustrator 21.1.0, SVG Export Plug-In . SVG Version: 6.00 Build 0)  -->
<svg version="1.1" id="Layer_1" xmlns="http://www.w3.org/2000/svg" xmlns:xlink="http://www.w3.org/1999/xlink" x="0px" y="0px"
	 viewBox="0 0 100 100" style="enable-background:new 0 0 100 100;" xml:space="preserve">
<style type="text/css">
	.st0{fill:#DDBF73;}
	.st1{fill:#B5E7EA;}
	.st2{fill:#CE0F0F;}
	.st3{fill:#EFE243;}
	.st4{fill:#C4C4C4;}
	.st5{fill:#D8C49C;}
	.st6{fill:#FFFFFF;}
	.st7{fill:#6956D8;}
	.st8{fill:#71F4B5;}
	.st9{fill:#F2721C;}
	.st10{fill:#E027CE;}
</style>
<title>Artboard 60</title>
<path d="M89,53h-6.1c0-0.2,0.1-0.3,0.1-0.5c0-1.2-0.8-2.3-2-2.5V37c0-0.5-0.5-1-1-1H60c-0.5,0-1,0.5-1,1v13
	c-1.2,0.2-2.1,1.2-2.1,2.4c0,0.1,0,0.3,0,0.4c0,0,0,0.1,0,0.2h-9v-3.7c0-4-3.3-7.3-7.3-7.3H29.3c-4,0-7.3,3.3-7.3,7.3V53h-1
	c-0.5-1.1-1.1-2.1-1.8-2.8c-0.7-0.8-1.6-1.3-2.7-1.4L12,35.2l14.8-18.1l0.3,0.6c0,0,0.1,0.1,0.1,0.1c-1.7,2.1-2,5-0.8,7.4l2,4.1
	c0.2,0.5,0.8,0.7,1.3,0.4l10.8-5.3c0.5-0.2,0.7-0.8,0.5-1.3l-2-4.1c-1.2-2.4-3.7-3.9-6.4-3.9V15l-1.8-3.6c-0.2-0.5-0.8-0.7-1.3-0.5
	c0,0,0,0,0,0l-0.9,0.4l-0.4-0.9c-0.3-0.5-0.9-0.6-1.4-0.4c-0.4,0.2-0.6,0.8-0.4,1.2l0.4,0.9l-0.9,0.4c-0.5,0.2-0.7,0.8-0.5,1.3
	l0.6,1.1c-0.2,0.1-0.3,0.2-0.4,0.3L9,35.5c-0.3,0.4-0.3,1.1,0.2,1.4c0.2,0.1,0.4,0.2,0.6,0.2c0.2,0,0.4-0.1,0.5-0.2l3.9,11.9
	c-1.9,0.5-3.4,2.1-3.7,4.1c0,0.1,0,0.2,0,0.3C10.2,53.3,10,53.6,10,54v34c0,0.5,0.5,1,1,1s1-0.5,1-1V59h10.8c1.2,2.5,3.8,4,6.5,4H34
	v5h-8c-2.2,0-4,1.8-4,4s1.8,4,4,4h8v7.3l-8.4,3.7c-0.5,0.2-0.7,0.8-0.5,1.3c0.2,0.5,0.8,0.7,1.3,0.5l8.6-3.8l8.6,3.8
	c0.5,0.2,1.1,0,1.3-0.5c0.2-0.5,0-1.1-0.5-1.3L36,83.3V76h8c2.2,0,4-1.8,4-4s-1.8-4-4-4h-8v-5h4.7c2.8,0,5.3-1.5,6.5-4H88v29
	c0,0.5,0.5,1,1,1s1-0.5,1-1V54C90,53.5,89.5,53,89,53z M37,19.9C37,19.9,37,19.9,37,19.9l1.6,3.2l-9,4.4L28,24.4
	c-1.2-2.5-0.1-5.5,2.4-6.7C32.8,16.5,35.8,17.5,37,19.9z M29.3,13.2l1.1,2.3c-0.3,0.1-0.6,0.2-0.9,0.4c-0.3,0.2-0.6,0.3-0.9,0.5
	l-1.1-2.3L29.3,13.2z M15.5,50.6c1.4,0,2.7,1,3,2.4h-6C12.9,51.6,14.1,50.6,15.5,50.6z M12,57v-2h10v0.7c0,0.4,0,0.9,0.1,1.3H12z
	 M44,70c1.1,0,2,0.9,2,2s-0.9,2-2,2H26c-1.1,0-2-0.9-2-2s0.9-2,2-2H44z M46,55.7c0,2.9-2.4,5.3-5.3,5.3H29.3c-2.9,0-5.3-2.4-5.3-5.3
	v-6.4c0-2.9,2.4-5.3,5.3-5.3h11.4c2.9,0,5.3,2.4,5.3,5.3V55.7z M61,38h18v12H61V38z M59.5,52h21c0.3,0,0.5,0.1,0.6,0.4
	c0.1,0.3-0.1,0.5-0.4,0.6H59.3c-0.3,0-0.5-0.3-0.4-0.6C59,52.1,59.2,52,59.5,52z M88,57H47.9c0.1-0.4,0.1-0.9,0.1-1.3V55h40V57z"/>
<path class="st0" d="M22.1,57H12v-2h10v0.7C22,56.1,22,56.6,22.1,57z"/>
<path class="st0" d="M88,55v2H47.9c0.1-0.4,0.1-0.9,0.1-1.3V55H88z"/>
<rect x="61" y="38" class="st1" width="18" height="12"/>
<path class="st0" d="M22.1,57H12v-2h10v0.7C22,56.1,22,56.6,22.1,57z"/>
<path class="st0" d="M88,55v2H47.9c0.1-0.4,0.1-0.9,0.1-1.3V55H88z"/>
<path class="st2" d="M46,72c0,1.1-0.9,2-2,2H26c-1.1,0-2-0.9-2-2s0.9-2,2-2h18C45.1,70,46,70.9,46,72z"/>
<path class="st2" d="M46,49.3v6.4c0,2.9-2.4,5.3-5.3,5.3H29.3c-2.9,0-5.3-2.4-5.3-5.3v-6.4c0-2.9,2.4-5.3,5.3-5.3h11.4
	C43.6,44,46,46.4,46,49.3z"/>
<path class="st3" d="M38.6,23.1l-9,4.4L28,24.4c-1.2-2.5-0.1-5.5,2.4-6.7c2.4-1.2,5.4-0.2,6.6,2.2c0,0,0,0,0,0L38.6,23.1z"/>
<path class="st3" d="M30.4,15.5c-0.3,0.1-0.6,0.2-0.9,0.4c-0.3,0.2-0.6,0.3-0.9,0.5l-1.1-2.3l1.8-0.9L30.4,15.5z"/>
<path class="st3" d="M18.5,53h-6c0.3-1.4,1.6-2.4,3-2.4C17,50.6,18.2,51.6,18.5,53z"/>
<path class="st4" d="M81.1,52.4c0.1,0.3-0.1,0.5-0.4,0.6H59.3c-0.3,0-0.5-0.3-0.4-0.6c0.1-0.3,0.3-0.5,0.6-0.4h21
	C80.8,52,81,52.1,81.1,52.4z"/>
<path d="M80,72c2.2,0,4-1.8,4-4s-1.8-4-4-4H62c-2.2,0-4,1.8-4,4s1.8,4,4,4h8v11.3l-8.4,3.7c-0.5,0.2-0.7,0.8-0.5,1.3
	c0.2,0.5,0.8,0.7,1.3,0.5l8.6-3.8l8.6,3.8c0.5,0.2,1.1,0,1.3-0.5c0.2-0.5,0-1.1-0.5-1.3L72,83.3V72H80z M62,70c-1.1,0-2-0.9-2-2
	s0.9-2,2-2h18c1.1,0,2,0.9,2,2s-0.9,2-2,2H62z"/>
<path class="st0" d="M82,68c0,1.1-0.9,2-2,2H62c-1.1,0-2-0.9-2-2s0.9-2,2-2h18C81.1,66,82,66.9,82,68z"/>
<path d="M67,40.8c0.4-0.4,0.3-1.1-0.1-1.4c-0.4-0.3-0.9-0.3-1.3,0l-3.4,3.4c-0.4,0.4-0.5,1-0.1,1.4s1,0.5,1.4,0.1
	c0,0,0.1-0.1,0.1-0.1L67,40.8z"/>
<path d="M69.3,39.6l-5.9,5.9c-0.4,0.4-0.5,1-0.1,1.4s1,0.5,1.4,0.1c0,0,0.1-0.1,0.1-0.1l5.9-5.9c0.4-0.4,0.3-1.1-0.1-1.4
	C70.2,39.3,69.7,39.3,69.3,39.6L69.3,39.6z"/>
<path d="M89,9H46c-0.5,0-1,0.5-1,1v20c0,0.5,0.5,1,1,1h43c0.5,0,1-0.5,1-1V10C90,9.5,89.5,9,89,9z M88,29H47V11h41V29z"/>
<rect x="47" y="11" class="st5" width="41" height="18"/>
<path d="M59,12h-9c-0.5,0-1,0.5-1,1v14c0,0.5,0.5,1,1,1h9c0.5,0,1-0.5,1-1V13C60,12.5,59.5,12,59,12z M58,26h-7V14h7V26z"/>
<rect x="51" y="14" class="st6" width="7" height="12"/>
<path d="M72,12h-7c-0.5,0-1,0.5-1,1v5c0,0.5,0.5,1,1,1h7c0.5,0,1-0.5,1-1v-5C73,12.5,72.5,12,72,12z M71,17h-5v-3h5V17z"/>
<rect x="66" y="14" class="st7" width="5" height="3"/>
<path d="M84,12h-7c-0.5,0-1,0.5-1,1v5c0,0.5,0.5,1,1,1h7c0.5,0,1-0.5,1-1v-5C85,12.5,84.5,12,84,12z M83,17h-5v-3h5V17z"/>
<rect x="78" y="14" class="st8" width="5" height="3"/>
<path d="M72,21h-7c-0.5,0-1,0.5-1,1v5c0,0.5,0.5,1,1,1h7c0.5,0,1-0.5,1-1v-5C73,21.5,72.5,21,72,21z M71,26h-5v-3h5V26z"/>
<rect x="66" y="23" class="st9" width="5" height="3"/>
<path d="M84,21h-7c-0.5,0-1,0.5-1,1v5c0,0.5,0.5,1,1,1h7c0.5,0,1-0.5,1-1v-5C85,21.5,84.5,21,84,21z M83,26h-5v-3h5V26z"/>
<rect x="78" y="23" class="st10" width="5" height="3"/>
<path d="M56,16h-3c-0.6,0-1,0.4-1,1s0.4,1,1,1h3c0.6,0,1-0.4,1-1S56.6,16,56,16z"/>
<path d="M56,19h-3c-0.6,0-1,0.4-1,1s0.4,1,1,1h3c0.6,0,1-0.4,1-1S56.6,19,56,19z"/>
</svg>
