<?xml version="1.0" encoding="utf-8"?>
<!-- Generator: Adobe Illustrator 21.1.0, SVG Export Plug-In . SVG Version: 6.00 Build 0)  -->
<svg version="1.1" id="Layer_1" xmlns="http://www.w3.org/2000/svg" xmlns:xlink="http://www.w3.org/1999/xlink" x="0px" y="0px"
	 viewBox="0 0 64 64" style="enable-background:new 0 0 64 64;" xml:space="preserve">
<style type="text/css">
	.st0{fill:#337AE2;}
	.st1{fill:#E8C091;}
	.st2{fill:#D8C96F;}
	.st3{fill:#FFFFFF;}
</style>
<path d="M54.7,50.6C54.7,50.6,54.7,50.6,54.7,50.6c-1-3.8-4.5-6.6-8.7-6.6h-6v-4.2c3.3-1.9,5.9-5,7.2-8.7l1.4,0.7c0,0,0,0,0,0
	c0,0,0,0,0.1,0c0.1,0,0.2,0.1,0.3,0.1c0.1,0,0.2,0,0.3-0.1c0,0,0.1,0,0.1,0c0.1,0,0.2-0.1,0.3-0.2c0,0,0,0,0,0
	c0.1-0.1,0.1-0.2,0.2-0.2c0,0,0,0,0,0c0,0,0-0.1,0-0.2c0-0.1,0-0.1,0-0.2c0,0,0,0,0,0V19c0-9.4-7.6-17-17-17
	c-8.9,0-16.2,6.9-16.9,15.7c0,0.1-0.1,0.2-0.1,0.3v8c0,5.9,3.2,11.1,8,13.8V44h-6c-4.1,0-7.6,2.8-8.7,6.6v0C9.1,51.4,9,52.2,9,53v3
	c0,0,0,0,0,0v4c0,1.1,0.9,2,2,2h42c1.1,0,2-0.9,2-2v-7C55,52.2,54.9,51.4,54.7,50.6z M33,4c8.3,0,15,6.7,15,15v10.3L21.5,15.1
	c0,0-0.1,0-0.1,0c-0.1,0-0.1,0-0.2-0.1H21c-0.1,0-0.1,0-0.2,0c0,0-0.1,0-0.2,0.1c-0.1,0-0.1,0.1-0.2,0.1c0,0-0.1,0.1-0.1,0.1
	c0,0-0.1,0.1-0.1,0.1L18,18.7C18.2,10.5,24.8,4,33,4z M18,26v-3.7l3.3-5l24,12.9C43.5,36,38.2,40,32,40C24.3,40,18,33.7,18,26z
	 M38,40.8v3.7C37.3,45,35.5,46,32,46s-5.3-1-6-1.5v-3.7c1.8,0.8,3.9,1.2,6,1.2C34.1,42,36.1,41.6,38,40.8z M18,46h6.6
	c0.8,0.6,3.1,2,7.4,2s6.5-1.4,7.4-2H46c2.8,0,5.2,1.6,6.3,4H11.7C12.8,47.6,15.2,46,18,46z M53,60H11v-3h42V60z M53,55H11v-2
	c0-0.3,0-0.7,0.1-1h41.8c0,0.3,0.1,0.7,0.1,1V55z"/>
<rect x="11" y="57" class="st0" width="42" height="3"/>
<path class="st0" d="M53,53v2H11v-2c0-0.3,0-0.7,0.1-1h41.8C53,52.3,53,52.7,53,53z"/>
<path class="st0" d="M52.3,50H11.7c1.1-2.4,3.5-4,6.3-4h6.6c0.8,0.6,3.1,2,7.4,2s6.5-1.4,7.4-2H46C48.8,46,51.2,47.6,52.3,50z"/>
<path class="st1" d="M38,40.8v3.7C37.3,45,35.5,46,32,46s-5.3-1-6-1.5v-3.7c1.8,0.8,3.9,1.2,6,1.2C34.1,42,36.1,41.6,38,40.8z"/>
<path class="st1" d="M45.3,30.2C43.5,36,38.2,40,32,40c-7.7,0-14-6.3-14-14v-3.7l3.3-5L45.3,30.2z"/>
<path class="st2" d="M48,19v10.3L21.5,15.1c0,0-0.1,0-0.1,0c-0.1,0-0.1,0-0.2-0.1H21c-0.1,0-0.1,0-0.2,0c0,0-0.1,0-0.2,0.1
	c-0.1,0-0.1,0.1-0.2,0.1c0,0-0.1,0.1-0.1,0.1c0,0-0.1,0.1-0.1,0.1L18,18.7C18.2,10.5,24.8,4,33,4C41.3,4,48,10.7,48,19z"/>
<path d="M27,26.7c-1,0-1.8,0.8-1.8,1.8s0.8,1.8,1.8,1.8s1.8-0.8,1.8-1.8S28,26.7,27,26.7z M26.8,28.5c0-0.1,0.1-0.2,0.2-0.2
	c0.1,0,0.2,0.1,0.2,0.2C27.2,28.8,26.8,28.8,26.8,28.5z"/>
<path class="st3" d="M27.2,28.5c0,0.3-0.4,0.3-0.4,0c0-0.1,0.1-0.2,0.2-0.2C27.2,28.3,27.2,28.4,27.2,28.5z"/>
<path d="M37,26.7c-1,0-1.8,0.8-1.8,1.8s0.8,1.8,1.8,1.8s1.8-0.8,1.8-1.8S38,26.7,37,26.7z M36.8,28.5c0-0.1,0.1-0.2,0.2-0.2
	c0.1,0,0.2,0.1,0.2,0.2C37.2,28.8,36.8,28.8,36.8,28.5z"/>
<path class="st3" d="M37.2,28.5c0,0.3-0.4,0.3-0.4,0c0-0.1,0.1-0.2,0.2-0.2C37.2,28.3,37.2,28.4,37.2,28.5z"/>
<path d="M35.8,33.5h-1.5c0,1.2-1,2.2-2.2,2.2c-1.2,0-2.2-1-2.2-2.2h-1.5c0,2.1,1.7,3.8,3.8,3.8S35.8,35.6,35.8,33.5z"/>
</svg>
