<?xml version="1.0" encoding="utf-8"?>
<!-- Generator: Adobe Illustrator 21.1.0, SVG Export Plug-In . SVG Version: 6.00 Build 0)  -->
<svg version="1.1" id="Layer_1" xmlns="http://www.w3.org/2000/svg" xmlns:xlink="http://www.w3.org/1999/xlink" x="0px" y="0px"
	 viewBox="0 0 64 64" style="enable-background:new 0 0 64 64;" xml:space="preserve">
<style type="text/css">
	.st0{fill:#B79AEF;}
	.st1{fill:#5EC4DB;}
	.st2{fill:#84D3EF;}
	.st3{fill:#A87C3B;}
	.st4{fill:#18BEEA;}
	.st5{fill:#FFFFFF;}
</style>
<path d="M47.8,43.2L46.1,39c0.6-1.6,0.9-3.3,0.9-5V17c0-8.3-6.7-15-15-15S17,8.7,17,17v17c0,1.7,0.3,3.4,0.9,5l-1.7,4.2
	C13.2,44,11,46.8,11,50v9c0,0.5,0.5,1,1,1h40c0.5,0,1-0.5,1-1v-9C53,46.8,50.8,44,47.8,43.2z M19,17c0-7.2,5.8-13,13-13
	s13,5.8,13,13v17c0,7.2-5.8,13-13,13s-13-5.8-13-13V17z M45.5,43H44c0.4-0.5,0.7-1,1-1.5L45.5,43z M19,41.5c0.3,0.5,0.6,1,1,1.5
	h-1.6L19,41.5z M51,58H13v-8c0-2.8,2.2-5,5-5h3.8c5.7,5.3,14.6,5.3,20.3,0H46c2.8,0,5,2.2,5,5V58z"/>
<path class="st0" d="M51,50v8H13v-8c0-2.8,2.2-5,5-5h3.8c5.7,5.3,14.6,5.3,20.3,0H46C48.8,45,51,47.2,51,50z"/>
<path class="st1" d="M45.5,43H44c0.4-0.5,0.7-1,1-1.5L45.5,43z"/>
<path d="M45,17v17c0,7.2-5.8,13-13,13s-13-5.8-13-13V17c0-7.2,5.8-13,13-13S45,9.8,45,17z"/>
<path class="st1" d="M20,43h-1.6l0.6-1.5C19.3,42,19.7,42.5,20,43z"/>
<path class="st2" d="M32,4c-7.2,0-13,5.8-13,13v17c0,7.2,5.8,13,13,13s13-5.8,13-13V17C45,9.8,39.2,4,32,4z M44,27
	c0,6.6-5.4,12-12,12c-6.6,0-12-5.4-12-12v-6c0-6.6,5.4-12,12-12s12,5.4,12,12V27z"/>
<path d="M32,9c-6.6,0-12,5.4-12,12v6c0,6.6,5.4,12,12,12c6.6,0,12-5.4,12-12v-6C44,14.4,38.6,9,32,9z M32,11c3.3,0,6.4,1.6,8.2,4.3
	c-0.5-0.3-1-0.5-1.5-0.6c-4.4-1-9-1-13.5,0c-0.5,0.1-1.1,0.3-1.5,0.6C25.6,12.6,28.7,11,32,11z M42,27c0,5.5-4.5,10-10,10
	s-10-4.5-10-10v-1.6l1.4-6.4c0.3-1.1,1.2-2,2.3-2.3c4.2-0.9,8.5-0.9,12.7,0c1.1,0.2,2,1.1,2.3,2.2l1.4,5.5V27z"/>
<path class="st3" d="M42,24.4V27c0,5.5-4.5,10-10,10s-10-4.5-10-10v-1.6l1.4-6.4c0.3-1.1,1.2-2,2.3-2.3c4.2-0.9,8.5-0.9,12.7,0
	c1.1,0.2,2,1.1,2.3,2.2L42,24.4z"/>
<path class="st4" d="M40.2,15.3c-0.5-0.3-1-0.5-1.5-0.6c-4.4-1-9-1-13.5,0c-0.5,0.1-1.1,0.3-1.5,0.6c1.9-2.7,5-4.4,8.3-4.4
	C35.3,11,38.4,12.6,40.2,15.3z"/>
<path d="M27,23.2c-1,0-1.8,0.8-1.8,1.8s0.8,1.8,1.8,1.8s1.8-0.8,1.8-1.8S28,23.2,27,23.2z M26.8,25c0-0.1,0.1-0.2,0.2-0.2
	s0.2,0.1,0.2,0.2C27.2,25.3,26.8,25.3,26.8,25z"/>
<path class="st5" d="M27.2,25c0,0.3-0.5,0.3-0.5,0c0-0.1,0.1-0.2,0.2-0.2S27.2,24.9,27.2,25z"/>
<path d="M37,23.2c-1,0-1.8,0.8-1.8,1.8s0.8,1.8,1.8,1.8s1.8-0.8,1.8-1.8S38,23.2,37,23.2z M36.8,25c0-0.1,0.1-0.2,0.2-0.2
	s0.2,0.1,0.2,0.2C37.2,25.3,36.8,25.3,36.8,25z"/>
<path class="st5" d="M37.2,25c0,0.3-0.5,0.3-0.5,0c0-0.1,0.1-0.2,0.2-0.2S37.2,24.9,37.2,25z"/>
<path d="M32,33.8c2.1,0,3.7-1.7,3.8-3.8h-1.5c0,1.2-1,2.2-2.2,2.2s-2.2-1-2.2-2.2h-1.5C28.3,32.1,29.9,33.7,32,33.8z"/>
</svg>
