<?xml version="1.0" encoding="utf-8"?>
<!-- Generator: Adobe Illustrator 21.1.0, SVG Export Plug-In . SVG Version: 6.00 Build 0)  -->
<svg version="1.1" id="Layer_1" xmlns="http://www.w3.org/2000/svg" xmlns:xlink="http://www.w3.org/1999/xlink" x="0px" y="0px"
	 viewBox="0 0 64 64" style="enable-background:new 0 0 64 64;" xml:space="preserve">
<style type="text/css">
	.st0{fill:#D9C9F2;}
	.st1{fill:#F4D7C9;}
	.st2{fill:#EA5F11;}
	.st3{fill:#FFFFFF;}
</style>
<path d="M46,45h-7v-3.6c0.2-0.1,0.5-0.2,0.7-0.4H45v2c0,0,0,0,0,0c0,0.5,0.5,1,1,1c2.8,0,5-2.2,5-5V20C51,9.5,42.5,1,32,1
	C21.5,1,13,9.5,13,20v19c0,2.8,2.2,5,5,5c0.5,0,1-0.5,1-1c0,0,0,0,0,0v-2h5.3c0.2,0.1,0.5,0.2,0.7,0.4V45h-7c-3.9,0-7,3.1-7,7v9
	c0,1.1,0.9,2,2,2h38c1.1,0,2-0.9,2-2v-9C53,48.1,49.9,45,46,45z M45,39h-2.5c0.9-0.8,1.7-1.7,2.5-2.7V39z M18,19c-0.5,0-1,0.4-1,1
	v12.3c0,0,0,0,0,0v9.4c-1.2-0.4-2-1.5-2-2.8V20c0-9.4,7.6-17,17-17s17,7.6,17,17v19c0,1.3-0.8,2.4-2,2.8v-9.4c0,0,0,0,0,0V20
	c0-0.6-0.5-1-1-1h-1v-1c0-0.6-0.5-1-1-1s-1,0.4-1,1v1h-2v-1c0-0.6-0.5-1-1-1s-1,0.4-1,1v1h-2v-1c0-0.6-0.5-1-1-1s-1,0.4-1,1v1h-2v-1
	c0-0.6-0.5-1-1-1s-1,0.4-1,1v1h-2v-1c0-0.6-0.5-1-1-1s-1,0.4-1,1v1h-2v-1c0-0.6-0.5-1-1-1s-1,0.4-1,1v1h-2v-1c0-0.6-0.5-1-1-1
	s-1,0.4-1,1v1H18z M19,39v-2.7c0.7,1,1.5,1.9,2.5,2.7H19z M19,32.2V21h26v11.2c-2.1,5.3-7.3,8.8-13,8.8S21.1,37.5,19,32.2z M17,61
	h-4v-9c0-2.8,2.2-5,5-5h8c0.5,0,1-0.5,1-1v-3.8c1.6,0.5,3.3,0.8,5,0.8s3.4-0.3,5-0.8V46c0,0.5,0.5,1,1,1h3c0,1.4-0.6,2.6-1.5,3.5
	C38.6,51.4,37.4,52,36,52c0,0,0,0,0,0H24c-3.9,0-7,3.1-7,7V61z M51,61H19v-2c0-2.8,2.2-5,5-5c0,0,0,0,0,0h12c3.9,0,7-3.1,7-7h3
	c2.8,0,5,2.2,5,5V61z"/>
<path class="st0" d="M51,52v9H19v-2c0-2.8,2.2-5,5-5c0,0,0,0,0,0h12c3.9,0,7-3.1,7-7h3C48.8,47,51,49.2,51,52z"/>
<path class="st1" d="M41,47c0,1.4-0.6,2.6-1.5,3.5C38.6,51.4,37.4,52,36,52c0,0,0,0,0,0H24c-3.9,0-7,3.1-7,7v2h-4v-9
	c0-2.8,2.2-5,5-5h8c0.5,0,1-0.5,1-1v-3.8c1.6,0.5,3.3,0.8,5,0.8s3.4-0.3,5-0.8V46c0,0.5,0.5,1,1,1H41z"/>
<path class="st1" d="M45,21v11.2c-2.1,5.3-7.3,8.8-13,8.8s-10.9-3.5-13-8.8V21H45z"/>
<path class="st2" d="M21.5,39H19v-2.7C19.7,37.3,20.5,38.2,21.5,39z"/>
<path class="st2" d="M45,36.3V39h-2.5C43.5,38.2,44.3,37.3,45,36.3z"/>
<path class="st2" d="M49,20v19c0,1.3-0.8,2.4-2,2.8v-9.4c0,0,0,0,0,0V20c0-0.6-0.5-1-1-1h-1v-1c0-0.6-0.5-1-1-1s-1,0.4-1,1v1h-2v-1
	c0-0.6-0.5-1-1-1s-1,0.4-1,1v1h-2v-1c0-0.6-0.5-1-1-1s-1,0.4-1,1v1h-2v-1c0-0.6-0.5-1-1-1s-1,0.4-1,1v1h-2v-1c0-0.6-0.5-1-1-1
	s-1,0.4-1,1v1h-2v-1c0-0.6-0.5-1-1-1s-1,0.4-1,1v1h-2v-1c0-0.6-0.5-1-1-1s-1,0.4-1,1v1h-1c-0.5,0-1,0.4-1,1v12.3c0,0,0,0,0,0v9.4
	c-1.2-0.4-2-1.5-2-2.8V20c0-9.4,7.6-17,17-17S49,10.6,49,20z"/>
<path d="M26.8,27.5c-1,0-1.8,0.8-1.8,1.8s0.8,1.8,1.8,1.8s1.8-0.8,1.8-1.8S27.8,27.5,26.8,27.5z M26.6,29.3c0-0.1,0.1-0.2,0.2-0.2
	c0.1,0,0.2,0.1,0.2,0.2C27,29.6,26.6,29.6,26.6,29.3z"/>
<path class="st3" d="M27,29.3c0,0.3-0.4,0.3-0.4,0c0-0.1,0.1-0.2,0.2-0.2C26.9,29.1,27,29.2,27,29.3z"/>
<path d="M36.8,27.5c-1,0-1.8,0.8-1.8,1.8s0.8,1.8,1.8,1.8s1.8-0.8,1.8-1.8S37.8,27.5,36.8,27.5z M36.6,29.3c0-0.1,0.1-0.2,0.2-0.2
	c0.1,0,0.2,0.1,0.2,0.2C37,29.6,36.6,29.6,36.6,29.3z"/>
<path class="st3" d="M37,29.3c0,0.3-0.4,0.3-0.4,0c0-0.1,0.1-0.2,0.2-0.2C36.9,29.1,37,29.2,37,29.3z"/>
<path d="M35.6,34.3h-1.5c0,1.2-1,2.2-2.2,2.2s-2.2-1-2.2-2.2h-1.5c0,2.1,1.7,3.8,3.8,3.8S35.6,36.4,35.6,34.3z"/>
</svg>
