<?xml version="1.0" encoding="utf-8"?>
<!-- Generator: Adobe Illustrator 21.1.0, SVG Export Plug-In . SVG Version: 6.00 Build 0)  -->
<svg version="1.1" id="Layer_1" xmlns="http://www.w3.org/2000/svg" xmlns:xlink="http://www.w3.org/1999/xlink" x="0px" y="0px"
	 viewBox="0 0 64 64" style="enable-background:new 0 0 64 64;" xml:space="preserve">
<style type="text/css">
	.st0{fill:#E55177;}
	.st1{fill:#CCAE5A;}
	.st2{fill:#543F02;}
	.st3{fill:#FFFFFF;}
</style>
<path d="M48.9,31.9C48.5,34.8,46,37,43,37l-4.5-0.9L38,36l1-2l1.6,0.4L43,35c2.2,0,4-1.8,4-4c0-0.5,0.5-1,1-1c1.7,0,3-1.3,3-3
	s-1.3-3-3-3c-0.5,0-1-0.5-1-1v-4.5C47.1,10.3,40.8,3.5,32.7,3c-0.2,0-0.5,0-0.7,0c-8.3,0-15,6.7-15,15v5c0,0.5-0.5,1-1,1
	c-1.7,0-3,1.3-3,3s1.3,3,3,3c0.5,0,1,0.5,1,1c0,2.2,1.8,4,4,4l2.4-0.6L25,34l1,2l-0.5,0.1L21,37c-3,0-5.5-2.2-5.9-5.1
	c-2-0.4-3.6-1.9-4-3.9c-0.5-2.7,1.2-5.3,3.9-5.9V18c0-0.3,0-0.5,0-0.8C15.5,7.8,23.4,0.6,32.8,1C42,1.6,49.1,9.2,49,18.5v3.6
	c2,0.4,3.5,2,3.9,4C53.4,28.8,51.6,31.4,48.9,31.9z"/>
<path d="M46,42h-8v-5.6c0.2-0.1,0.3-0.2,0.5-0.3c0.8-0.5,1.5-1.1,2.1-1.7c2.2-2.2,3.4-5.2,3.4-8.4v-5h1v-2h-2.9
	c-1.4,0-2.6-1-2.9-2.3l-2.2-8C36.8,8.3,36.5,8,36,8s-0.8,0.3-1,0.7L33,16c-0.4,1.8-2,3-3.9,3H19v2h1v5c0,3.2,1.3,6.2,3.4,8.4
	c0.6,0.6,1.3,1.2,2.1,1.7c0.2,0.1,0.3,0.2,0.5,0.3V42h-8c-3.9,0-7,3.1-7,7v11c0,0.5,0.5,1,1,1h40c0.5,0,1-0.5,1-1V49
	C53,45.1,49.9,42,46,42z M22,26v-5h7.1c2.7,0,5.1-1.8,5.8-4.5l1.1-3.8l1.3,4.5c0.5,2.2,2.5,3.7,4.7,3.8v5c0,5.5-4.5,10-10,10
	S22,31.5,22,26z M27,44c0.5,0,1-0.5,1-1v-5.7c2.6,0.9,5.4,0.9,8,0V43c0,0.5,0.5,1,1,1h1.8c-0.4,1.2-1.5,2-2.8,2h-8
	c-1.3,0-2.4-0.8-2.8-2H27z M51,59H13V49c0-2.8,2.2-5,5-5h5.1c0.5,2.3,2.5,4,4.9,4h8c2.4,0,4.4-1.7,4.9-4H46c2.8,0,5,2.2,5,5V59z"/>
<path class="st0" d="M51,49v10H13V49c0-2.8,2.2-5,5-5h5.1c0.5,2.3,2.5,4,4.9,4h8c2.4,0,4.4-1.7,4.9-4H46C48.8,44,51,46.2,51,49z"/>
<path class="st1" d="M38.8,44c-0.4,1.2-1.5,2-2.8,2h-8c-1.3,0-2.4-0.8-2.8-2H27c0.5,0,1-0.5,1-1v-5.7c2.6,0.9,5.4,0.9,8,0V43
	c0,0.5,0.5,1,1,1H38.8z"/>
<path class="st2" d="M51,27c0,1.7-1.3,3-3,3c-0.5,0-1,0.5-1,1c0,2.2-1.8,4-4,4l-2.4-0.6c2.2-2.2,3.4-5.2,3.4-8.4v-5h1v-2h-2.9
	c-1.4,0-2.6-1-2.9-2.3l-2.2-8C36.8,8.3,36.5,8,36,8s-0.8,0.3-1,0.7L33,16c-0.4,1.8-2,3-3.9,3H19v2h1v5c0,3.2,1.3,6.2,3.4,8.4L21,35
	c-2.2,0-4-1.8-4-4c0-0.5-0.5-1-1-1c-1.7,0-3-1.3-3-3s1.3-3,3-3c0.5,0,1-0.5,1-1v-5c0-8.3,6.7-15,15-15c0.2,0,0.5,0,0.7,0
	c8.1,0.5,14.4,7.3,14.3,15.4V23c0,0.5,0.5,1,1,1C49.7,24,51,25.3,51,27z"/>
<path class="st1" d="M42,21v5c0,5.5-4.5,10-10,10s-10-4.5-10-10v-5h7.1c2.7,0,5.1-1.8,5.8-4.5l1.1-3.8l1.3,4.5
	C37.8,19.4,39.8,20.9,42,21z"/>
<path d="M27,23.2c-1,0-1.8,0.8-1.8,1.8s0.8,1.8,1.8,1.8s1.8-0.8,1.8-1.8S28,23.2,27,23.2z M26.8,25c0-0.1,0.1-0.2,0.2-0.2
	s0.2,0.1,0.2,0.2C27.2,25.3,26.8,25.3,26.8,25z"/>
<path class="st3" d="M27.2,25c0,0.3-0.5,0.3-0.5,0c0-0.1,0.1-0.2,0.2-0.2S27.2,24.9,27.2,25z"/>
<path d="M37,23.2c-1,0-1.8,0.8-1.8,1.8s0.8,1.8,1.8,1.8s1.8-0.8,1.8-1.8S38,23.2,37,23.2z M36.8,25c0-0.1,0.1-0.2,0.2-0.2
	s0.2,0.1,0.2,0.2C37.2,25.3,36.8,25.3,36.8,25z"/>
<path class="st3" d="M37.2,25c0,0.3-0.5,0.3-0.5,0c0-0.1,0.1-0.2,0.2-0.2S37.2,24.9,37.2,25z"/>
<path d="M35.8,30h-1.5c0,1.2-1,2.2-2.2,2.2s-2.2-1-2.2-2.2h-1.5c0,2.1,1.7,3.8,3.8,3.8S35.8,32.1,35.8,30z"/>
</svg>
