<?xml version="1.0" encoding="utf-8"?>
<!-- Generator: Adobe Illustrator 21.1.0, SVG Export Plug-In . SVG Version: 6.00 Build 0)  -->
<svg version="1.1" id="Layer_1" xmlns="http://www.w3.org/2000/svg" xmlns:xlink="http://www.w3.org/1999/xlink" x="0px" y="0px"
	 viewBox="0 0 100 100" style="enable-background:new 0 0 100 100;" xml:space="preserve">
<style type="text/css">
	.st0{fill:#D8D8D8;}
	.st1{fill:#F7F8F9;}
	.st2{fill:#C3A1F7;}
	.st3{fill:#C17840;}
	.st4{fill:#2B1E13;}
	.st5{fill:#FFFFFF;}
</style>
<path d="M78.1,82.9c0.5-1.8,0.2-3.7-0.8-5.3l-4.4-7.5c0,0-0.1-0.1-0.1-0.1v-6.3c0-2.7-2.2-4.9-4.9-4.9h-1.4c2-2,3.1-4.8,2.8-7.7
	l-1.1-9.8c1.1-0.8,1.8-2.1,1.8-3.6c0-1.5-0.7-2.8-1.8-3.6v-4.8c0-11.6-9.5-21.1-21.1-21.1C35.5,8.2,26,17.6,26,29.3v4.9
	c-1.1,0.8-1.8,2.1-1.8,3.5c0,1.4,0.7,2.7,1.8,3.5l-1.1,9.9c-0.3,2.9,0.8,5.7,2.8,7.7h-1.3c-2.7,0-4.9,2.2-4.9,4.9v6.7l-4.3,7.3
	c-0.9,1.6-1.2,3.5-0.7,5.3c0.4,1.5,1.2,2.8,2.5,3.7h-2.2c-0.6,0-1,0.4-1,1c0,0.6,0.4,1,1,1H77c0.5,0,1-0.4,1-1c0-0.6-0.5-1-1-1h-1.4
	C76.8,85.7,77.7,84.4,78.1,82.9z M21.5,85.9l-0.8-0.5c-1.1-0.7-2-1.7-2.3-3c-0.3-1.3-0.1-2.6,0.5-3.8l2.6-4.3V85.9z M63.1,58.8H52.7
	v-1.7c2.1-0.7,4-1.7,5.7-3c0,0,0,0,0,0c0.3-0.2,0.6-0.5,0.9-0.7c0.1-0.1,0.1-0.1,0.2-0.2c0.8-0.8,1.6-1.6,2.3-2.5
	c0.1-0.1,0.2-0.2,0.3-0.4c0.2-0.3,0.4-0.5,0.6-0.8c0.1-0.1,0.2-0.3,0.2-0.4c0.3-0.5,0.6-1,0.9-1.6c0.1-0.2,0.1-0.3,0.2-0.5
	c0.1-0.3,0.2-0.6,0.4-0.9c0.1-0.2,0.1-0.4,0.2-0.6c0.1-0.3,0.2-0.6,0.3-0.9c0.1-0.3,0.2-0.6,0.2-0.9c0.1-0.4,0.2-0.8,0.2-1.2
	c0-0.2,0.1-0.3,0.1-0.5h0.9l1,9.2C67.7,54.4,65.9,57.5,63.1,58.8z M68,37.7c0,1.4-1.1,2.4-2.4,2.5v-4.9C66.9,35.2,68,36.3,68,37.7z
	 M28,29.3c0-10.5,8.6-19.1,19.1-19.1c10.5,0,19.1,8.6,19.1,19.1v4h-0.3c-0.6,0-1.2-0.2-1.7-0.6c-2.6-2.2-4.3-5.2-4.8-8.5l-0.5-3.1
	c-0.1-0.4-0.3-0.7-0.7-0.8c-0.1,0-0.2-0.1-0.3-0.1c-0.2,0-0.5,0.1-0.7,0.3l-0.2,0.2c-7.5,7.1-17.2,11.6-27.4,12.7H28V29.3z
	 M50.7,57.7v1h-7.1v-1C46,58.2,48.3,58.2,50.7,57.7z M28.7,35.2v4.3c0,0.2,0,0.4,0,0.6v0c-1.3,0-2.4-1.1-2.4-2.5
	C26.2,36.3,27.3,35.2,28.7,35.2z M26.9,51.3l1-9.2h0.9c0,0.1,0.1,0.3,0.1,0.5c0.2,1.1,0.5,2.2,0.9,3.2c0,0.1,0,0.1,0.1,0.2
	c2,5.3,6.3,9.4,11.7,11.1v1.6H31.1C28.3,57.5,26.5,54.4,26.9,51.3z M70.8,86.6H23.5V63.7c0-1.6,1.3-2.9,2.9-2.9h41.6
	c1.6,0,2.9,1.3,2.9,2.9V86.6z M76.1,82.4c-0.3,1.3-1.2,2.4-2.3,3l-1,0.6V73.9l2.8,4.7C76.3,79.8,76.5,81.1,76.1,82.4z"/>
<path class="st0" d="M70.8,63.7v22.9H23.5V63.7c0-1.6,1.3-2.9,2.9-2.9h41.6C69.5,60.8,70.8,62.1,70.8,63.7z"/>
<path d="M46.3,69.6c-2.8,0-5,2.2-5,5c0,2.8,2.2,5,5,5s5-2.2,5-5C51.3,71.8,49.1,69.6,46.3,69.6z M46.3,77.6c-1.7,0-3-1.3-3-3
	c0-1.7,1.3-3,3-3c1.6,0,3,1.3,3,3C49.3,76.2,48,77.6,46.3,77.6z"/>
<path class="st1" d="M49.3,74.6c0,1.7-1.4,3-3,3c-1.7,0-3-1.3-3-3c0-1.7,1.3-3,3-3C48,71.6,49.3,72.9,49.3,74.6z"/>
<path class="st2" d="M76.1,82.4c-0.3,1.3-1.2,2.4-2.3,3l-1,0.6V73.9l2.8,4.7C76.3,79.8,76.5,81.1,76.1,82.4z"/>
<path class="st2" d="M21.5,74.2v11.6l-0.8-0.5c-1.1-0.7-2-1.7-2.3-3c-0.3-1.3-0.1-2.6,0.5-3.8L21.5,74.2z"/>
<path class="st3" d="M50.7,57.7v1h-7.1v-1C46,58.2,48.3,58.2,50.7,57.7z"/>
<path class="st3" d="M68,37.7c0,1.4-1.1,2.4-2.4,2.5v-4.9C66.9,35.2,68,36.3,68,37.7z"/>
<path class="st3" d="M28.7,40.1L28.7,40.1c-1.3,0-2.4-1.1-2.4-2.5c0-1.3,1.1-2.4,2.4-2.5v4.3C28.7,39.7,28.7,39.9,28.7,40.1z"/>
<path class="st4" d="M41.6,57.1v1.6H31.1c-2.9-1.3-4.6-4.3-4.2-7.5l1-9.2h0.9c0,0.1,0.1,0.3,0.1,0.5c0.2,1.1,0.5,2.2,0.9,3.2
	c0,0.1,0,0.1,0.1,0.2C31.8,51.3,36.2,55.4,41.6,57.1z"/>
<path class="st4" d="M63.1,58.8H52.7v-1.7c2.1-0.7,4-1.7,5.7-3c0,0,0,0,0,0c0.3-0.2,0.6-0.5,0.9-0.7c0.1-0.1,0.1-0.1,0.2-0.2
	c0.8-0.8,1.6-1.6,2.3-2.5c0.1-0.1,0.2-0.2,0.3-0.4c0.2-0.3,0.4-0.5,0.6-0.8c0.1-0.1,0.2-0.3,0.2-0.4c0.3-0.5,0.6-1,0.9-1.6
	c0.1-0.2,0.1-0.3,0.2-0.5c0.1-0.3,0.2-0.6,0.4-0.9c0.1-0.2,0.1-0.4,0.2-0.6c0.1-0.3,0.2-0.6,0.3-0.9c0.1-0.3,0.2-0.6,0.2-0.9
	c0.1-0.4,0.2-0.8,0.2-1.2c0-0.2,0.1-0.3,0.1-0.5h0.9l1,9.2C67.7,54.4,65.9,57.5,63.1,58.8z"/>
<path class="st4" d="M66.2,29.3v4h-0.3c-0.6,0-1.2-0.2-1.7-0.6c-2.6-2.2-4.3-5.2-4.8-8.5l-0.5-3.1c-0.1-0.4-0.3-0.7-0.7-0.8
	c-0.1,0-0.2-0.1-0.3-0.1c-0.2,0-0.5,0.1-0.7,0.3l-0.2,0.2c-7.5,7.1-17.2,11.6-27.4,12.7H28v-4c0-10.5,8.6-19.1,19.1-19.1
	C57.6,10.2,66.2,18.7,66.2,29.3z"/>
<path class="st3" d="M63.5,34.6v5c0,0.5,0,1-0.1,1.5c0,0.3-0.1,0.6-0.1,0.9c0,0.2-0.1,0.4-0.1,0.6c0,0.3-0.1,0.6-0.2,0.9
	c0,0.2-0.1,0.3-0.1,0.5c-0.1,0.3-0.2,0.6-0.3,0.9c0,0.1-0.1,0.2-0.1,0.3c-0.4,1-0.8,2-1.4,3c-0.1,0.1-0.1,0.2-0.2,0.3
	c-0.2,0.3-0.4,0.6-0.6,0.9c0,0.1-0.1,0.2-0.2,0.2c-2.2,3-5.4,5.2-9.2,6.1h0c0,0,0,0,0,0c-1.3,0.3-2.6,0.5-3.9,0.5
	c-1.5,0-2.9-0.2-4.2-0.6c0,0,0,0,0,0c-5.7-1.5-10.1-6.1-11.6-11.7c0-0.1-0.1-0.2-0.1-0.3c-0.1-0.3-0.1-0.6-0.2-1
	c0-0.2,0-0.3-0.1-0.5c0-0.3-0.1-0.6-0.1-0.9h0c0-0.3,0-0.6,0-0.9v-5c9.8-1.2,19.2-5.4,26.5-12l0.2,1.3c0.6,3.8,2.5,7.3,5.5,9.8
	C63.1,34.3,63.3,34.4,63.5,34.6z"/>
<path d="M41,37.5c-1.3,0-2.3,1-2.3,2.3s1,2.3,2.3,2.3s2.3-1,2.3-2.3S42.3,37.5,41,37.5z M40.7,39.7c0-0.1,0.1-0.2,0.2-0.2
	s0.2,0.1,0.2,0.2C41.2,40.1,40.7,40.1,40.7,39.7z"/>
<path class="st5" d="M41.2,39.7c0,0.4-0.5,0.4-0.5,0c0-0.1,0.1-0.2,0.2-0.2S41.2,39.6,41.2,39.7z"/>
<path d="M53.7,37.5c-1.3,0-2.3,1-2.3,2.3s1,2.3,2.3,2.3c1.3,0,2.3-1,2.3-2.3S55,37.5,53.7,37.5z M53.5,39.7c0-0.1,0.1-0.2,0.2-0.2
	s0.2,0.1,0.2,0.2C54,40.1,53.5,40.1,53.5,39.7z"/>
<path class="st5" d="M54,39.7c0,0.4-0.5,0.4-0.5,0c0-0.1,0.1-0.2,0.2-0.2S54,39.6,54,39.7z"/>
<path d="M52.2,46.1h-1.9c0,1.5-1.3,2.8-2.8,2.8c-1.5,0-2.8-1.3-2.8-2.8h-1.9c0,2.7,2.2,4.8,4.8,4.8S52.2,48.8,52.2,46.1z"/>
</svg>
